<svg xmlns="http://www.w3.org/2000/svg" xmlns:xlink="http://www.w3.org/1999/xlink" width="384.546" height="122.649" viewBox="0 0 384.546 122.649">
  <defs>
    <linearGradient id="linear-gradient" x1="-1458.344" y1="0.005" x2="-1458.344" y2="0.985" gradientUnits="objectBoundingBox">
      <stop offset="0.553" stop-color="#95e1ff"/>
      <stop offset="1" stop-color="#aeecff"/>
    </linearGradient>
    <linearGradient id="linear-gradient-2" x1="-1473.164" y1="0.136" x2="-1481.992" y2="0.833" xlink:href="#linear-gradient"/>
  </defs>
  <g id="Group_3870" data-name="Group 3870" transform="translate(-423.165 -47.827) rotate(-13)">
    <path id="Path_5928" data-name="Path 5928" d="M552.438,245.205c0,2.364-3.306,3.591-7.366,3.591s-2.384,3.088-2.384,3.088h-4.032v-6.679Z" transform="translate(39.691 21.976)" fill="#d3d3da"/>
    <g id="Group_3849" data-name="Group 3849" transform="translate(714.339 265.255)">
      <rect id="Rectangle_1413" data-name="Rectangle 1413" width="1.028" height="3.244" transform="translate(2.623 3.947)" fill="#6d6f7b"/>
      <rect id="Rectangle_1414" data-name="Rectangle 1414" width="1.091" height="3.244" transform="translate(1.256 3.947)" fill="#6d6f7b"/>
      <rect id="Rectangle_1415" data-name="Rectangle 1415" width="1.091" height="2.155" transform="matrix(0.866, -0.501, 0.501, 0.866, 1.609, 7.936)" fill="#6d6f7b"/>
      <rect id="Rectangle_1416" data-name="Rectangle 1416" width="3.249" height="1.091" transform="translate(0.998 7.032)" fill="#9897a0"/>
      <path id="Path_5929" data-name="Path 5929" d="M645.115,246.263a2.55,2.55,0,0,0,2.55,2.55h0a2.551,2.551,0,0,0,2.552-2.55v-.018a2.55,2.55,0,0,0-2.552-2.547h0a2.55,2.55,0,0,0-2.55,2.547Z" transform="translate(-645.042 -243.698)" fill="#d3d3da"/>
      <path id="Path_5930" data-name="Path 5930" d="M645.058,254.087a3.414,3.414,0,1,0,3.413-3.41A3.413,3.413,0,0,0,645.058,254.087Z" transform="translate(-645.058 -241.757)" fill="#4f505c"/>
      <path id="Path_5931" data-name="Path 5931" d="M646.51,253.683a1.556,1.556,0,1,0,1.557-1.554A1.558,1.558,0,0,0,646.51,253.683Z" transform="translate(-644.654 -241.353)" fill="#d3d3da"/>
    </g>
    <g id="Group_3850" data-name="Group 3850" transform="translate(575.714 269.148)">
      <path id="Path_5932" data-name="Path 5932" d="M536.6,252.667a5.925,5.925,0,1,0,5.925-5.923A5.926,5.926,0,0,0,536.6,252.667Z" transform="translate(-536.596 -246.744)" fill="#4f505c"/>
      <path id="Path_5933" data-name="Path 5933" d="M539.116,251.966a2.7,2.7,0,1,0,2.7-2.7A2.7,2.7,0,0,0,539.116,251.966Z" transform="translate(-535.895 -246.043)" fill="#d3d3da"/>
      <path id="Path_5934" data-name="Path 5934" d="M539.508,251.856a2.2,2.2,0,1,0,2.2-2.2A2.2,2.2,0,0,0,539.508,251.856Z" transform="translate(-535.786 -245.934)" fill="#3e3f47"/>
    </g>
    <path id="Path_5935" data-name="Path 5935" d="M765.3,241.443c0,11.907-30.912,13.412-39.484,13.412-2.348,0-17.08.11-38.216.184a.553.553,0,0,1-.165.017c-48.583.187-130.706.261-173.6-1.5h-.167c-6.549-.276-12.18-.585-16.623-.938a315.561,315.561,0,0,1-77.827-16.273c-3.3-1.117-7.377-2.474-12.109-4.054l-.5-.165c-.936-.312-1.909-.625-2.9-.953l-1.576-5.725A32.2,32.2,0,0,0,409.7,227c11.8,1.4,31.941-2.275,31.941-2.275s-4.4-1.944-10.292-4.108c-6.237-2.294-14.161-4.826-20.235-5.541a.606.606,0,0,0-.185-.019c-.164-.64-.348-1.3-.551-1.945h287.5c21.614,0,32.787,2.989,39.87,5.6a95.668,95.668,0,0,1,13.061,5.851c.093.054.2.11.294.164a45.505,45.505,0,0,1,8.366,5.854,1.706,1.706,0,0,0,.184.165c.477.44.937.916,1.374,1.376.058.054.114.11.166.165C763.686,235.02,765.3,238.066,765.3,241.443Z" transform="translate(1.727 13.052)" fill="#26c5d2"/>
    <path id="Path_5936" data-name="Path 5936" d="M758.818,230.695H407.838l-.5-.165c-.936-.312-1.909-.625-2.9-.953l-1.576-5.725c-3.338-1.247-3.466-2.9-3.285-4.825H480.51l50.857-.184H718.821C739.645,218.843,758.818,230.695,758.818,230.695Z" transform="translate(1.001 14.645)" fill="#d1fffd"/>
    <path id="Path_5937" data-name="Path 5937" d="M405.943,228.093c4.783,1.591,8.91,2.966,12.23,4.077a315.281,315.281,0,0,0,77.813,16.275c46.2,3.728,220.2,2.241,228.774,2.241,6.618,0,26.532-.888,35.291-6.782a.756.756,0,0,0,.17-.118c2.491-1.709,4.034-3.856,4.034-6.517,0-3.315-1.591-6.351-4.034-9.044a1.193,1.193,0,0,0-.121-.133Z" transform="translate(2.785 17.218)" fill="#e9f9ff"/>
    <path id="Path_5938" data-name="Path 5938" d="M755.733,237.116c-3.795,9.762-31.07,11.058-39.041,11.058-8.568,0-182.572,1.488-228.774-2.234a325.038,325.038,0,0,1-52.974-8.824Z" transform="translate(10.85 19.727)" fill="#e1f3f9"/>
    <g id="Group_3853" data-name="Group 3853" transform="translate(468.439 235.373)">
      <g id="Group_3852" data-name="Group 3852">
        <g id="Group_3851" data-name="Group 3851">
          <path id="Rectangle_1417" data-name="Rectangle 1417" d="M1.912,0h6.02A1.914,1.914,0,0,1,9.845,1.914V14.6a1.911,1.911,0,0,1-1.911,1.911H1.91A1.91,1.91,0,0,1,0,14.6V1.912A1.912,1.912,0,0,1,1.912,0Z" transform="translate(0.169 0.17)" fill="#e9f9ff"/>
          <path id="Rectangle_1418" data-name="Rectangle 1418" d="M1.909,0H7.932A1.909,1.909,0,0,1,9.841,1.909v12.7a1.908,1.908,0,0,1-1.908,1.908H1.91A1.91,1.91,0,0,1,0,14.6V1.909A1.909,1.909,0,0,1,1.909,0Z" transform="translate(244.37 0.17)" fill="#e9f9ff"/>
          <path id="Path_5939" data-name="Path 5939" d="M452.831,234.556A2.446,2.446,0,0,0,455.274,237h4.959a2.447,2.447,0,0,0,2.442-2.445V222.928a2.443,2.443,0,0,0-2.442-2.44h-4.959a2.442,2.442,0,0,0-2.444,2.44Zm7.4-14.238a2.613,2.613,0,0,1,2.609,2.61v11.628a2.613,2.613,0,0,1-2.609,2.611h-4.959a2.614,2.614,0,0,1-2.612-2.611V222.928a2.615,2.615,0,0,1,2.612-2.61Z" transform="translate(-452.662 -220.318)" fill="#26c5d2"/>
          <path id="Path_5940" data-name="Path 5940" d="M653.738,234.556V222.928a2.44,2.44,0,0,0-2.439-2.44h-4.963a2.442,2.442,0,0,0-2.44,2.44v11.628a2.446,2.446,0,0,0,2.44,2.445H651.3A2.445,2.445,0,0,0,653.738,234.556Zm-10.011,0V222.928a2.614,2.614,0,0,1,2.61-2.61H651.3a2.612,2.612,0,0,1,2.609,2.61v11.628a2.612,2.612,0,0,1-2.609,2.611h-4.963A2.614,2.614,0,0,1,643.727,234.556Z" transform="translate(-399.528 -220.318)" fill="#26c5d2"/>
        </g>
      </g>
    </g>
    <g id="Group_3854" data-name="Group 3854" transform="translate(689.163 226.169)">
      <path id="Path_5941" data-name="Path 5941" d="M625.36,213.116v41.936a1.217,1.217,0,0,0,.167-.008V213.116Z" transform="translate(-625.36 -213.116)" fill="#fff"/>
    </g>
    <g id="Group_3855" data-name="Group 3855" transform="translate(762.835 245.311)">
      <path id="Path_5942" data-name="Path 5942" d="M683,228.093V243.9a.756.756,0,0,0,.17-.118V228.226a1.193,1.193,0,0,0-.121-.133Z" transform="translate(-683.002 -228.093)" fill="#fff"/>
    </g>
    <g id="Group_3856" data-name="Group 3856" transform="translate(722.819 245.176)">
      <path id="Path_5943" data-name="Path 5943" d="M651.693,227.988v.167h40.1c-.046-.06-.109-.11-.157-.167Z" transform="translate(-651.693 -227.988)" fill="#fff"/>
    </g>
    <path id="Path_5944" data-name="Path 5944" d="M395.93,166.18c1.844,9.905,10.1,39.023,16.136,59.812h15.51l-23.553-59.645C401.7,166.222,399.035,166.18,395.93,166.18Z" transform="translate(0)" fill="#4bdee0"/>
    <path id="Path_5945" data-name="Path 5945" d="M402.262,166.311l23.553,59.645h29.562l-45.141-58.5A36.9,36.9,0,0,0,402.262,166.311Z" transform="translate(1.761 0.036)" fill="#26c5d2"/>
    <path id="Path_5946" data-name="Path 5946" d="M442.365,223.3s-20.144,3.671-31.941,2.275a32.2,32.2,0,0,1-7.559-1.558c-3.338-1.247-3.466-2.9-3.285-4.825.037-.312.075-.626.111-.937l4.164.5,3.724.441Z" transform="translate(1.001 14.481)" fill="#dfedf4"/>
    <path id="Path_5947" data-name="Path 5947" d="M408.5,167.208l45.141,58.5h.21l-45.073-58.419h-.008Z" transform="translate(3.496 0.286)" fill="#fff"/>
    <path id="Path_5948" data-name="Path 5948" d="M408.555,212.976a.812.812,0,0,0,.041.173h45.159l-.128-.173Z" transform="translate(3.511 13.014)" fill="#fff"/>
    <path id="Path_5949" data-name="Path 5949" d="M408.718,167.268l45.073,58.419h21.537c-19.428-2.134-35.185-23.811-47.925-40.435C418.856,174.094,415.456,169.3,408.718,167.268Z" transform="translate(3.556 0.303)" fill="#e9f9ff"/>
    <path id="Path_5950" data-name="Path 5950" d="M411.626,214.709a1.25,1.25,0,0,1,.176.018c11.788,1.389,30.525,9.647,30.525,9.647l-38.51-4.537-4.16-.488C400.047,216.073,400.02,213.362,411.626,214.709Z" transform="translate(1.036 13.397)" fill="#e9f9ff"/>
    <path id="Path_5951" data-name="Path 5951" d="M443.82,212.976l.127.172h.22l-.137-.172Z" transform="translate(13.318 13.014)" fill="#fff"/>
    <path id="Path_5952" data-name="Path 5952" d="M443.984,212.976l.138.173h24.031a23.623,23.623,0,0,1-2.632-.173Z" transform="translate(13.364 13.014)" fill="#fff"/>
    <g id="Group_3857" data-name="Group 3857" transform="translate(515.403 226.169)">
      <rect id="Rectangle_1419" data-name="Rectangle 1419" width="0.167" height="40.436" transform="translate(0)" fill="#fff"/>
    </g>
    <path id="Path_5953" data-name="Path 5953" d="M638.872,226.147a1.794,1.794,0,0,0,3.588,0v-1.431a1.794,1.794,0,1,0-3.588,0Z" transform="translate(67.561 15.779)" fill="#30768c"/>
    <path id="Path_5954" data-name="Path 5954" d="M634.643,226.147a1.794,1.794,0,0,0,3.588,0v-1.431a1.794,1.794,0,1,0-3.588,0Z" transform="translate(66.385 15.779)" fill="#30768c"/>
    <path id="Path_5955" data-name="Path 5955" d="M630.69,226.147a1.793,1.793,0,0,0,3.586,0v-1.431a1.793,1.793,0,1,0-3.586,0Z" transform="translate(65.285 15.779)" fill="#30768c"/>
    <path id="Path_5956" data-name="Path 5956" d="M626.354,226.147a1.794,1.794,0,0,0,3.589,0v-1.431a1.794,1.794,0,1,0-3.589,0Z" transform="translate(64.079 15.779)" fill="#30768c"/>
    <path id="Path_5957" data-name="Path 5957" d="M621.665,226.147a1.793,1.793,0,0,0,3.586,0v-1.431a1.793,1.793,0,1,0-3.586,0Z" transform="translate(62.776 15.779)" fill="#30768c"/>
    <path id="Path_5958" data-name="Path 5958" d="M616.973,226.147a1.793,1.793,0,0,0,3.585,0v-1.431a1.793,1.793,0,1,0-3.585,0Z" transform="translate(61.471 15.779)" fill="#30768c"/>
    <path id="Path_5959" data-name="Path 5959" d="M612.281,226.147a1.794,1.794,0,0,0,3.588,0v-1.431a1.794,1.794,0,1,0-3.588,0Z" transform="translate(60.166 15.779)" fill="#30768c"/>
    <path id="Path_5960" data-name="Path 5960" d="M607.6,226.147a1.8,1.8,0,0,0,3.59,0v-1.431a1.8,1.8,0,0,0-3.59,0Z" transform="translate(58.863 15.779)" fill="#30768c"/>
    <path id="Path_5961" data-name="Path 5961" d="M604.7,227.938a1.8,1.8,0,0,0,1.793-1.791v-1.431a1.794,1.794,0,1,0-3.589,0v1.431A1.794,1.794,0,0,0,604.7,227.938Z" transform="translate(57.559 15.779)" fill="#30768c"/>
    <path id="Path_5962" data-name="Path 5962" d="M600.007,227.938a1.8,1.8,0,0,0,1.794-1.791v-1.431a1.793,1.793,0,1,0-3.586,0v1.431A1.8,1.8,0,0,0,600.007,227.938Z" transform="translate(56.254 15.779)" fill="#30768c"/>
    <path id="Path_5963" data-name="Path 5963" d="M595.317,227.931a1.786,1.786,0,0,0,1.793-1.784v-1.431a1.793,1.793,0,1,0-3.586,0v1.431A1.791,1.791,0,0,0,595.317,227.931Z" transform="translate(54.95 15.779)" fill="#30768c"/>
    <path id="Path_5964" data-name="Path 5964" d="M588.841,226.147a1.792,1.792,0,0,0,3.584,0v-1.431a1.792,1.792,0,1,0-3.584,0Z" transform="translate(53.647 15.779)" fill="#30768c"/>
    <path id="Path_5965" data-name="Path 5965" d="M584.148,226.147a1.794,1.794,0,0,0,3.589,0v-1.431a1.794,1.794,0,1,0-3.589,0Z" transform="translate(52.342 15.779)" fill="#30768c"/>
    <path id="Path_5966" data-name="Path 5966" d="M579.457,226.147a1.794,1.794,0,0,0,3.588,0v-1.431a1.794,1.794,0,1,0-3.588,0Z" transform="translate(51.038 15.779)" fill="#30768c"/>
    <path id="Path_5967" data-name="Path 5967" d="M574.768,226.147a1.794,1.794,0,0,0,3.589,0v-1.431a1.794,1.794,0,1,0-3.589,0Z" transform="translate(49.734 15.779)" fill="#30768c"/>
    <path id="Path_5968" data-name="Path 5968" d="M570.081,226.147a1.79,1.79,0,0,0,3.58,0v-1.431a1.79,1.79,0,1,0-3.58,0Z" transform="translate(48.43 15.779)" fill="#30768c"/>
    <path id="Path_5969" data-name="Path 5969" d="M565.391,226.147a1.794,1.794,0,0,0,3.589,0v-1.431a1.794,1.794,0,1,0-3.589,0Z" transform="translate(47.126 15.779)" fill="#30768c"/>
    <path id="Path_5970" data-name="Path 5970" d="M560.7,226.147a1.794,1.794,0,0,0,3.588,0v-1.431a1.794,1.794,0,1,0-3.588,0Z" transform="translate(45.822 15.779)" fill="#30768c"/>
    <path id="Path_5971" data-name="Path 5971" d="M556.01,226.147a1.793,1.793,0,0,0,3.585,0v-1.431a1.793,1.793,0,1,0-3.585,0Z" transform="translate(44.517 15.779)" fill="#30768c"/>
    <path id="Path_5972" data-name="Path 5972" d="M551.318,226.147a1.794,1.794,0,0,0,3.588,0v-1.431a1.794,1.794,0,1,0-3.588,0Z" transform="translate(43.212 15.779)" fill="#30768c"/>
    <path id="Path_5973" data-name="Path 5973" d="M546.633,226.147a1.793,1.793,0,0,0,3.586,0v-1.431a1.793,1.793,0,1,0-3.586,0Z" transform="translate(41.91 15.779)" fill="#30768c"/>
    <path id="Path_5974" data-name="Path 5974" d="M541.942,226.147a1.794,1.794,0,0,0,3.588,0v-1.431a1.794,1.794,0,1,0-3.588,0Z" transform="translate(40.605 15.779)" fill="#30768c"/>
    <path id="Path_5975" data-name="Path 5975" d="M537.252,226.147a1.794,1.794,0,0,0,3.588,0v-1.431a1.794,1.794,0,1,0-3.588,0Z" transform="translate(39.301 15.779)" fill="#30768c"/>
    <path id="Path_5976" data-name="Path 5976" d="M532.56,226.147a1.794,1.794,0,0,0,3.588,0v-1.431a1.794,1.794,0,1,0-3.588,0Z" transform="translate(37.996 15.779)" fill="#30768c"/>
    <path id="Path_5977" data-name="Path 5977" d="M529.671,227.938a1.8,1.8,0,0,0,1.793-1.791v-1.431a1.794,1.794,0,1,0-3.588,0v1.431A1.792,1.792,0,0,0,529.671,227.938Z" transform="translate(36.694 15.779)" fill="#30768c"/>
    <path id="Path_5978" data-name="Path 5978" d="M524.981,227.931a1.792,1.792,0,0,0,1.792-1.784v-1.431a1.794,1.794,0,1,0-3.588,0v1.431A1.787,1.787,0,0,0,524.981,227.931Z" transform="translate(35.389 15.779)" fill="#30768c"/>
    <path id="Path_5979" data-name="Path 5979" d="M518.493,226.147a1.794,1.794,0,0,0,3.589,0v-1.431a1.794,1.794,0,1,0-3.589,0Z" transform="translate(34.084 15.779)" fill="#30768c"/>
    <path id="Path_5980" data-name="Path 5980" d="M513.805,226.147a1.792,1.792,0,0,0,3.584,0v-1.431a1.792,1.792,0,1,0-3.584,0Z" transform="translate(32.78 15.779)" fill="#30768c"/>
    <path id="Path_5981" data-name="Path 5981" d="M509.118,226.147a1.794,1.794,0,0,0,3.588,0v-1.431a1.794,1.794,0,1,0-3.588,0Z" transform="translate(31.477 15.779)" fill="#30768c"/>
    <path id="Path_5982" data-name="Path 5982" d="M504.429,226.147a1.794,1.794,0,0,0,3.589,0v-1.431a1.794,1.794,0,1,0-3.589,0Z" transform="translate(30.173 15.779)" fill="#30768c"/>
    <path id="Path_5983" data-name="Path 5983" d="M499.737,226.147a1.793,1.793,0,0,0,3.586,0v-1.431a1.793,1.793,0,1,0-3.586,0Z" transform="translate(28.868 15.779)" fill="#30768c"/>
    <path id="Path_5984" data-name="Path 5984" d="M495.047,226.147a1.793,1.793,0,0,0,3.585,0v-1.431a1.793,1.793,0,1,0-3.585,0Z" transform="translate(27.564 15.779)" fill="#30768c"/>
    <path id="Path_5985" data-name="Path 5985" d="M490.356,226.147a1.793,1.793,0,0,0,3.586,0v-1.431a1.793,1.793,0,1,0-3.586,0Z" transform="translate(26.259 15.779)" fill="#30768c"/>
    <path id="Path_5986" data-name="Path 5986" d="M485.672,226.147a1.793,1.793,0,0,0,3.585,0v-1.431a1.793,1.793,0,1,0-3.585,0Z" transform="translate(24.957 15.779)" fill="#30768c"/>
    <path id="Path_5987" data-name="Path 5987" d="M480.979,226.147a1.793,1.793,0,0,0,3.586,0v-1.431a1.793,1.793,0,1,0-3.586,0Z" transform="translate(23.652 15.779)" fill="#30768c"/>
    <path id="Path_5988" data-name="Path 5988" d="M476.289,226.147a1.794,1.794,0,0,0,3.588,0v-1.431a1.794,1.794,0,1,0-3.588,0Z" transform="translate(22.347 15.779)" fill="#30768c"/>
    <path id="Path_5989" data-name="Path 5989" d="M471.6,226.147a1.793,1.793,0,0,0,3.585,0v-1.431a1.793,1.793,0,1,0-3.585,0Z" transform="translate(21.043 15.779)" fill="#30768c"/>
    <path id="Path_5990" data-name="Path 5990" d="M466.913,226.147a1.794,1.794,0,0,0,3.589,0v-1.431a1.794,1.794,0,1,0-3.589,0Z" transform="translate(19.74 15.779)" fill="#30768c"/>
    <path id="Path_5991" data-name="Path 5991" d="M466.782,224.752a1.962,1.962,0,1,1,3.924,0v1.431a1.962,1.962,0,0,1-3.924,0Zm.167,1.431a1.794,1.794,0,0,0,3.589,0v-1.431a1.794,1.794,0,1,0-3.589,0Z" transform="translate(19.703 15.742)" fill="#fff"/>
    <path id="Path_5992" data-name="Path 5992" d="M471.634,226.184a1.793,1.793,0,0,0,3.585,0v-1.431a1.793,1.793,0,1,0-3.585,0Zm3.755-1.431v1.431a1.958,1.958,0,1,1-3.916,0v-1.431a1.958,1.958,0,1,1,3.916,0Z" transform="translate(21.008 15.742)" fill="#fff"/>
    <path id="Path_5993" data-name="Path 5993" d="M480.082,224.752v1.431a1.963,1.963,0,0,1-3.926,0v-1.431a1.963,1.963,0,1,1,3.926,0Zm-3.756,1.431a1.794,1.794,0,0,0,3.588,0v-1.431a1.794,1.794,0,1,0-3.588,0Z" transform="translate(22.31 15.742)" fill="#fff"/>
    <path id="Path_5994" data-name="Path 5994" d="M484.773,224.752v1.431a1.963,1.963,0,0,1-3.926,0v-1.431a1.963,1.963,0,1,1,3.926,0Zm-3.758,1.431a1.793,1.793,0,0,0,3.586,0v-1.431a1.793,1.793,0,1,0-3.586,0Z" transform="translate(23.615 15.742)" fill="#fff"/>
    <path id="Path_5995" data-name="Path 5995" d="M487.5,227.968a1.79,1.79,0,0,0,1.793-1.784v-1.431a1.793,1.793,0,1,0-3.585,0v1.431A1.786,1.786,0,0,0,487.5,227.968Zm-1.961-3.216a1.961,1.961,0,1,1,3.922,0v1.431a1.961,1.961,0,0,1-3.922,0Z" transform="translate(24.92 15.742)" fill="#fff"/>
    <path id="Path_5996" data-name="Path 5996" d="M492.193,227.975a1.791,1.791,0,0,0,1.784-1.791v-1.431a1.793,1.793,0,1,0-3.586,0v1.431A1.8,1.8,0,0,0,492.193,227.975Zm-1.963-3.222a1.957,1.957,0,1,1,3.914,0v1.431a1.957,1.957,0,1,1-3.914,0Z" transform="translate(26.224 15.742)" fill="#fff"/>
    <path id="Path_5997" data-name="Path 5997" d="M496.879,227.975a1.79,1.79,0,0,0,1.791-1.791v-1.431a1.793,1.793,0,1,0-3.585,0v1.431A1.8,1.8,0,0,0,496.879,227.975Zm-1.966-1.791v-1.431a1.963,1.963,0,1,1,3.925,0v1.431a1.963,1.963,0,0,1-3.925,0Z" transform="translate(27.527 15.742)" fill="#fff"/>
    <path id="Path_5998" data-name="Path 5998" d="M501.565,227.975a1.8,1.8,0,0,0,1.794-1.791v-1.431a1.793,1.793,0,1,0-3.586,0v1.431A1.8,1.8,0,0,0,501.565,227.975Zm1.964-1.791a1.962,1.962,0,0,1-3.924,0v-1.431a1.962,1.962,0,1,1,3.924,0Z" transform="translate(28.832 15.742)" fill="#fff"/>
    <path id="Path_5999" data-name="Path 5999" d="M506.259,227.975a1.8,1.8,0,0,0,1.8-1.791v-1.431a1.794,1.794,0,1,0-3.589,0v1.431A1.792,1.792,0,0,0,506.259,227.975Zm1.962-1.791a1.963,1.963,0,0,1-3.925,0v-1.431a1.963,1.963,0,1,1,3.925,0Z" transform="translate(30.136 15.742)" fill="#fff"/>
    <path id="Path_6000" data-name="Path 6000" d="M512.9,226.184a1.958,1.958,0,1,1-3.916,0v-1.431a1.958,1.958,0,1,1,3.916,0Zm-3.75-1.431v1.431a1.794,1.794,0,0,0,3.588,0v-1.431a1.794,1.794,0,1,0-3.588,0Z" transform="translate(31.441 15.742)" fill="#fff"/>
    <path id="Path_6001" data-name="Path 6001" d="M513.672,226.184v-1.431a1.962,1.962,0,1,1,3.925,0v1.431a1.962,1.962,0,0,1-3.925,0Zm3.754-1.431a1.792,1.792,0,1,0-3.584,0v1.431a1.792,1.792,0,0,0,3.584,0Z" transform="translate(32.743 15.742)" fill="#fff"/>
    <path id="Path_6002" data-name="Path 6002" d="M518.529,224.752v1.431a1.794,1.794,0,0,0,3.589,0v-1.431a1.794,1.794,0,0,0-3.589,0Zm3.759,1.431a1.963,1.963,0,0,1-3.925,0v-1.431a1.963,1.963,0,1,1,3.925,0Z" transform="translate(34.048 15.742)" fill="#fff"/>
    <path id="Path_6003" data-name="Path 6003" d="M523.221,224.752v1.431a1.794,1.794,0,0,0,3.588,0v-1.431a1.794,1.794,0,1,0-3.588,0Zm3.756,1.431a1.962,1.962,0,0,1-3.924,0v-1.431a1.962,1.962,0,1,1,3.924,0Z" transform="translate(35.352 15.742)" fill="#fff"/>
    <path id="Path_6004" data-name="Path 6004" d="M527.914,224.752v1.431a1.794,1.794,0,0,0,3.588,0v-1.431a1.794,1.794,0,1,0-3.588,0Zm3.746,0v1.431a1.958,1.958,0,1,1-3.916,0v-1.431a1.958,1.958,0,1,1,3.916,0Z" transform="translate(36.657 15.742)" fill="#fff"/>
    <path id="Path_6005" data-name="Path 6005" d="M532.431,224.752a1.962,1.962,0,1,1,3.924,0v1.431a1.962,1.962,0,0,1-3.924,0Zm3.752,1.431v-1.431a1.794,1.794,0,1,0-3.588,0v1.431a1.794,1.794,0,0,0,3.588,0Z" transform="translate(37.96 15.742)" fill="#fff"/>
    <path id="Path_6006" data-name="Path 6006" d="M540.876,226.184v-1.431a1.794,1.794,0,1,0-3.588,0v1.431a1.794,1.794,0,0,0,3.588,0Zm-3.756-1.431a1.963,1.963,0,1,1,3.925,0v1.431a1.963,1.963,0,0,1-3.925,0Z" transform="translate(39.264 15.742)" fill="#fff"/>
    <path id="Path_6007" data-name="Path 6007" d="M541.979,226.184a1.794,1.794,0,0,0,3.588,0v-1.431a1.794,1.794,0,1,0-3.588,0Zm-.167-1.431a1.963,1.963,0,1,1,3.925,0v1.431a1.963,1.963,0,0,1-3.925,0Z" transform="translate(40.569 15.742)" fill="#fff"/>
    <path id="Path_6008" data-name="Path 6008" d="M550.426,224.752v1.431a1.962,1.962,0,0,1-3.924,0v-1.431a1.962,1.962,0,1,1,3.924,0Zm-3.756,1.431a1.793,1.793,0,0,0,3.586,0v-1.431a1.793,1.793,0,1,0-3.586,0Z" transform="translate(41.873 15.742)" fill="#fff"/>
    <path id="Path_6009" data-name="Path 6009" d="M555.109,224.752v1.431a1.962,1.962,0,0,1-3.924,0v-1.431a1.962,1.962,0,1,1,3.924,0Zm-3.754,1.431a1.794,1.794,0,0,0,3.588,0v-1.431a1.794,1.794,0,1,0-3.588,0Z" transform="translate(43.176 15.742)" fill="#fff"/>
    <path id="Path_6010" data-name="Path 6010" d="M557.84,227.968a1.785,1.785,0,0,0,1.792-1.784v-1.431a1.792,1.792,0,1,0-3.585,0v1.431A1.793,1.793,0,0,0,557.84,227.968Zm1.962-3.216v1.431a1.963,1.963,0,0,1-3.926,0v-1.431a1.963,1.963,0,1,1,3.926,0Z" transform="translate(44.48 15.742)" fill="#fff"/>
    <path id="Path_6011" data-name="Path 6011" d="M562.531,227.975a1.8,1.8,0,0,0,1.793-1.791v-1.431a1.794,1.794,0,1,0-3.588,0v1.431A1.8,1.8,0,0,0,562.531,227.975Zm-1.962-3.222a1.962,1.962,0,1,1,3.924,0v1.431a1.962,1.962,0,0,1-3.924,0Z" transform="translate(45.785 15.742)" fill="#fff"/>
    <path id="Path_6012" data-name="Path 6012" d="M567.219,227.975a1.8,1.8,0,0,0,1.8-1.791v-1.431a1.794,1.794,0,1,0-3.589,0v1.431A1.793,1.793,0,0,0,567.219,227.975Zm1.964-1.791a1.961,1.961,0,0,1-3.922,0v-1.431a1.961,1.961,0,1,1,3.922,0Z" transform="translate(47.09 15.742)" fill="#fff"/>
    <path id="Path_6013" data-name="Path 6013" d="M571.9,227.968a1.787,1.787,0,0,0,1.793-1.784v-1.431a1.79,1.79,0,1,0-3.58,0v1.431A1.786,1.786,0,0,0,571.9,227.968Zm-1.954-1.784v-1.431a1.959,1.959,0,1,1,3.919,0v1.431a1.959,1.959,0,0,1-3.919,0Z" transform="translate(48.394 15.742)" fill="#fff"/>
    <path id="Path_6014" data-name="Path 6014" d="M576.6,227.975a1.8,1.8,0,0,0,1.8-1.791v-1.431a1.794,1.794,0,1,0-3.589,0v1.431A1.8,1.8,0,0,0,576.6,227.975Zm0-5.186a1.966,1.966,0,0,1,1.963,1.964v1.431a1.962,1.962,0,0,1-3.924,0v-1.431A1.968,1.968,0,0,1,576.6,222.788Z" transform="translate(49.697 15.742)" fill="#fff"/>
    <path id="Path_6015" data-name="Path 6015" d="M581.289,227.975a1.8,1.8,0,0,0,1.792-1.791v-1.431a1.794,1.794,0,1,0-3.588,0v1.431A1.8,1.8,0,0,0,581.289,227.975Zm1.961-1.791a1.961,1.961,0,0,1-3.922,0v-1.431a1.961,1.961,0,1,1,3.922,0Z" transform="translate(51.002 15.742)" fill="#fff"/>
    <path id="Path_6016" data-name="Path 6016" d="M587.942,226.184a1.962,1.962,0,0,1-3.924,0v-1.431a1.962,1.962,0,1,1,3.924,0Zm-3.758-1.431v1.431a1.794,1.794,0,0,0,3.589,0v-1.431a1.794,1.794,0,1,0-3.589,0Z" transform="translate(52.306 15.742)" fill="#fff"/>
    <path id="Path_6017" data-name="Path 6017" d="M588.878,224.752v1.431a1.792,1.792,0,0,0,3.584,0v-1.431a1.792,1.792,0,1,0-3.584,0Zm-.17,1.431v-1.431a1.961,1.961,0,1,1,3.922,0v1.431a1.961,1.961,0,0,1-3.922,0Z" transform="translate(53.61 15.742)" fill="#fff"/>
    <path id="Path_6018" data-name="Path 6018" d="M593.393,226.184v-1.431a1.961,1.961,0,1,1,3.922,0v1.431a1.961,1.961,0,0,1-3.922,0Zm.167-1.431v1.431a1.793,1.793,0,0,0,3.586,0v-1.431a1.793,1.793,0,1,0-3.586,0Z" transform="translate(54.913 15.742)" fill="#fff"/>
    <path id="Path_6019" data-name="Path 6019" d="M602.006,226.184a1.961,1.961,0,0,1-3.921,0v-1.431a1.961,1.961,0,1,1,3.921,0Zm-3.755-1.431v1.431a1.793,1.793,0,0,0,3.586,0v-1.431a1.793,1.793,0,1,0-3.586,0Z" transform="translate(56.218 15.742)" fill="#fff"/>
    <path id="Path_6020" data-name="Path 6020" d="M606.7,224.752v1.431a1.962,1.962,0,0,1-3.925,0v-1.431a1.962,1.962,0,1,1,3.925,0Zm-3.757,1.431a1.794,1.794,0,0,0,3.589,0v-1.431a1.794,1.794,0,1,0-3.589,0Z" transform="translate(57.522 15.742)" fill="#fff"/>
    <path id="Path_6021" data-name="Path 6021" d="M607.632,226.184a1.8,1.8,0,0,0,3.59,0v-1.431a1.8,1.8,0,0,0-3.59,0Zm3.756-1.431v1.431a1.961,1.961,0,0,1-3.922,0v-1.431a1.961,1.961,0,1,1,3.922,0Z" transform="translate(58.827 15.742)" fill="#fff"/>
    <path id="Path_6022" data-name="Path 6022" d="M615.905,226.184v-1.431a1.794,1.794,0,1,0-3.588,0v1.431a1.794,1.794,0,0,0,3.588,0Zm-3.756-1.431a1.963,1.963,0,1,1,3.926,0v1.431a1.963,1.963,0,0,1-3.926,0Z" transform="translate(60.129 15.742)" fill="#fff"/>
    <path id="Path_6023" data-name="Path 6023" d="M617.01,226.184a1.793,1.793,0,0,0,3.585,0v-1.431a1.793,1.793,0,1,0-3.585,0Zm3.755-1.431v1.431a1.962,1.962,0,0,1-3.924,0v-1.431a1.962,1.962,0,1,1,3.924,0Z" transform="translate(61.434 15.742)" fill="#fff"/>
    <path id="Path_6024" data-name="Path 6024" d="M625.456,224.752v1.431a1.962,1.962,0,0,1-3.924,0v-1.431a1.962,1.962,0,1,1,3.924,0Zm-.167,1.431v-1.431a1.793,1.793,0,1,0-3.586,0v1.431a1.793,1.793,0,0,0,3.586,0Z" transform="translate(62.739 15.742)" fill="#fff"/>
    <path id="Path_6025" data-name="Path 6025" d="M630.146,224.752v1.431a1.961,1.961,0,0,1-3.922,0v-1.431a1.961,1.961,0,1,1,3.922,0Zm-1.962,3.222a1.8,1.8,0,0,0,1.8-1.791v-1.431a1.794,1.794,0,1,0-3.589,0v1.431A1.792,1.792,0,0,0,628.184,227.975Z" transform="translate(64.043 15.742)" fill="#fff"/>
    <path id="Path_6026" data-name="Path 6026" d="M632.521,227.975a1.79,1.79,0,0,0,1.792-1.791v-1.431a1.793,1.793,0,1,0-3.586,0v1.431A1.8,1.8,0,0,0,632.521,227.975Zm1.961-1.791a1.961,1.961,0,0,1-3.922,0v-1.431a1.961,1.961,0,1,1,3.922,0Z" transform="translate(65.249 15.742)" fill="#fff"/>
    <path id="Path_6027" data-name="Path 6027" d="M638.436,226.184a1.963,1.963,0,0,1-3.925,0v-1.431a1.963,1.963,0,1,1,3.925,0Zm-.169-1.431a1.794,1.794,0,1,0-3.588,0v1.431a1.794,1.794,0,0,0,3.588,0Z" transform="translate(66.348 15.742)" fill="#fff"/>
    <path id="Path_6028" data-name="Path 6028" d="M642.664,226.184a1.961,1.961,0,0,1-3.922,0v-1.431a1.961,1.961,0,1,1,3.922,0Zm-3.755-1.431v1.431a1.794,1.794,0,0,0,3.588,0v-1.431a1.794,1.794,0,1,0-3.588,0Z" transform="translate(67.524 15.742)" fill="#fff"/>
    <g id="Group_3860" data-name="Group 3860" transform="translate(735.628 237.61)">
      <g id="Group_3859" data-name="Group 3859" transform="translate(0)">
        <g id="Group_3858" data-name="Group 3858">
          <path id="Path_6029" data-name="Path 6029" d="M661.849,224.643v.967a2.444,2.444,0,0,0,2.437,2.445h22.951a45.647,45.647,0,0,0-8.359-5.855H664.286A2.443,2.443,0,0,0,661.849,224.643Z" transform="translate(-661.678 -222.031)" fill="#30768c"/>
          <path id="Path_6030" data-name="Path 6030" d="M661.715,224.68v.967a2.613,2.613,0,0,0,2.609,2.612h23.14c-.066-.059-.124-.118-.189-.167H664.324a2.444,2.444,0,0,1-2.437-2.445v-.967a2.443,2.443,0,0,1,2.437-2.442h14.592c-.1-.059-.2-.109-.3-.17H664.324A2.614,2.614,0,0,0,661.715,224.68Z" transform="translate(-661.715 -222.068)" fill="#fff"/>
        </g>
      </g>
    </g>
    <g id="Group_3861" data-name="Group 3861" transform="translate(742.251 236.13)">
      <rect id="Rectangle_1420" data-name="Rectangle 1420" width="0.84" height="8.576" fill="url(#linear-gradient)"/>
    </g>
    <g id="Group_3862" data-name="Group 3862" transform="translate(743.975 235.998)">
      <rect id="Rectangle_1421" data-name="Rectangle 1421" width="0.836" height="11.368" transform="translate(0 0.574) rotate(-43.317)" fill="url(#linear-gradient-2)"/>
    </g>
    <path id="Path_6031" data-name="Path 6031" d="M644.691,226.866a.43.43,0,1,0,.429-.428A.431.431,0,0,0,644.691,226.866Z" transform="translate(69.179 16.757)" fill="#676c70"/>
    <path id="Path_6032" data-name="Path 6032" d="M453.617,226.935a.428.428,0,1,0,.429-.431A.428.428,0,0,0,453.617,226.935Z" transform="translate(16.042 16.776)" fill="#676c70"/>
    <g id="Group_3866" data-name="Group 3866" transform="translate(542.308 252.108)">
      <g id="Group_3863" data-name="Group 3863" transform="translate(0.083 0.083)">
        <path id="Path_6033" data-name="Path 6033" d="M510.523,240.684c0,3.98,52.058,7.206,85.115,7.206s34.594-3.226,34.594-7.206-1.536-7.208-34.594-7.208S510.523,236.7,510.523,240.684Z" transform="translate(-510.523 -233.476)" fill="#f5fcff"/>
      </g>
      <g id="Group_3864" data-name="Group 3864" transform="translate(0.501 7.902)">
        <path id="Path_6034" data-name="Path 6034" d="M630.12,239.594c-.227,3.7-3.232,6.595-34.574,6.595s-79.759-2.9-84.7-6.595Z" transform="translate(-510.85 -239.594)" fill="#dfedf4"/>
      </g>
      <g id="Group_3865" data-name="Group 3865" transform="translate(0)">
        <path id="Path_6035" data-name="Path 6035" d="M540.7,245.883c-11.294-.859-30.238-2.674-30.238-5.18s18.944-4.324,30.238-5.18c17.121-1.3,38.18-2.111,54.959-2.111,15.281,0,24.722.67,29.718,2.111,4.579,1.324,4.959,3.205,4.959,5.18s-.38,3.851-4.959,5.18c-5,1.437-14.437,2.11-29.718,2.11C578.874,247.993,557.815,247.186,540.7,245.883Zm.011-10.2c-27.152,2.067-30.084,4.195-30.084,5.015s2.932,2.946,30.084,5.011c17.118,1.3,38.172,2.113,54.948,2.113,15.263,0,24.692-.671,29.668-2.113,4.475-1.288,4.84-3.033,4.84-5.011s-.366-3.723-4.84-5.018c-4.977-1.438-14.405-2.108-29.668-2.108C578.881,233.577,557.827,234.385,540.708,235.687Z" transform="translate(-510.458 -233.411)" fill="#fff"/>
      </g>
    </g>
    <path id="Path_6036" data-name="Path 6036" d="M599.986,244.45h-57.81v-3.52l-44.192-20.612h11.881Z" transform="translate(28.381 15.055)" fill="#c7dde5"/>
    <path id="Path_6037" data-name="Path 6037" d="M507.28,220.318h.111L610.822,240.93l.53,3.52H597.4Z" transform="translate(30.966 15.055)" fill="#fff"/>
    <g id="Group_3869" data-name="Group 3869" transform="translate(608.426 255.985)">
      <path id="Path_6038" data-name="Path 6038" d="M588.4,237.586c10.5,0,11.519,5.234,11.519,11.686S598.9,260.951,588.4,260.951a55.319,55.319,0,0,1-6.98-.527l.257-22.34A54.237,54.237,0,0,1,588.4,237.586Z" transform="translate(-556.841 -236.128)" fill="#d3d3da"/>
      <path id="Path_6039" data-name="Path 6039" d="M588.293,237.634c7.849.513,9.426,4.524,9.675,9.676Q593.131,242.47,588.293,237.634Z" transform="translate(-554.931 -236.114)" fill="#9897a0"/>
      <path id="Path_6040" data-name="Path 6040" d="M585.523,237.673q7.151,7.157,14.307,14.308c-.413,5.133-2.465,8.945-11.427,8.945a55.319,55.319,0,0,1-6.98-.527l.257-22.34C583.032,237.883,584.318,237.76,585.523,237.673Z" transform="translate(-556.841 -236.104)" fill="#9897a0"/>
      <path id="Path_6041" data-name="Path 6041" d="M562.19,248.855c0-4.615,13.308-8.516,23.171-9.781l-.226,19.529C575.294,257.311,562.19,253.435,562.19,248.855Z" transform="translate(-562.19 -235.714)" fill="#676c70"/>
      <path id="Path_6042" data-name="Path 6042" d="M568.862,241.708a85.288,85.288,0,0,1,16.311-3.732l-.257,22.34a85.375,85.375,0,0,1-16.054-3.7Z" transform="translate(-560.335 -236.019)" fill="#9897a0"/>
      <path id="Path_6043" data-name="Path 6043" d="M584.877,248.868l-.081,7.012c-7.8-1.025-17.647-3.677-21.393-7.012Z" transform="translate(-561.852 -232.99)" fill="#54585b"/>
      <path id="Path_6044" data-name="Path 6044" d="M585.039,246.952l-.123,10.868a85.375,85.375,0,0,1-16.054-3.7v-7.168Z" transform="translate(-560.335 -233.523)" fill="#8d8c93"/>
      <path id="Path_6045" data-name="Path 6045" d="M571.8,239.368v20.439c1.249.32,2.514.62,3.774.9.057.008.118.029.166.035a81.175,81.175,0,0,0,15.851,1.987c.9,0,1.734-.033,2.509-.1a.761.761,0,0,0,.167-.02,15.669,15.669,0,0,0,4.861-1.127V237.695a15.6,15.6,0,0,0-4.861-1.129,1.111,1.111,0,0,0-.167-.017c-.775-.065-1.609-.1-2.509-.1a80.413,80.413,0,0,0-15.851,2c-.048.008-.109.018-.166.031C574.315,238.748,573.05,239.047,571.8,239.368Z" transform="translate(-559.517 -236.445)" fill="#e9f9ff"/>
      <rect id="Rectangle_1422" data-name="Rectangle 1422" width="27.328" height="1.469" transform="translate(12.283 16.406)" fill="#dfedf4"/>
      <path id="Path_6046" data-name="Path 6046" d="M599.129,251.739v5.489a15.669,15.669,0,0,1-4.861,1.127.761.761,0,0,1-.167.02c-.775.066-1.609.1-2.509.1a81.175,81.175,0,0,1-15.851-1.987c-.048-.005-.109-.024-.166-.035-1.26-.28-2.526-.58-3.774-.9v-3.815Z" transform="translate(-559.517 -232.192)" fill="#dfedf4"/>
      <rect id="Rectangle_1423" data-name="Rectangle 1423" width="27.328" height="7.676" transform="translate(12.283 3.52)" fill="#fff"/>
      <g id="Group_3867" data-name="Group 3867" transform="translate(34.584 0.105)">
        <path id="Path_6047" data-name="Path 6047" d="M589.249,236.527v26.08a.76.76,0,0,0,.167-.02V236.544A.857.857,0,0,0,589.249,236.527Z" transform="translate(-589.249 -236.527)" fill="#fff"/>
      </g>
      <g id="Group_3868" data-name="Group 3868" transform="translate(16.058 1.999)">
        <path id="Path_6048" data-name="Path 6048" d="M574.754,238.04v22.232c.057.01.118.029.166.035v-22.3C574.872,238.017,574.812,238.027,574.754,238.04Z" transform="translate(-574.754 -238.009)" fill="#fff"/>
      </g>
    </g>
    <path id="Path_6049" data-name="Path 6049" d="M551.1,233.3H526.82l-3.869,1.781,9.326.764Z" transform="translate(35.324 18.666)" fill="#dfedf4"/>
    <path id="Path_6050" data-name="Path 6050" d="M540.007,229.1H517.539l-3.578,1.645,8.627.711Z" transform="translate(32.824 17.497)" fill="#dfedf4"/>
    <path id="Path_6051" data-name="Path 6051" d="M529.975,225.526H510.092l-3.167,1.458,7.636.627Z" transform="translate(30.867 16.504)" fill="#dfedf4"/>
  </g>
</svg>
