<svg id="Group_833" data-name="Group 833" xmlns="http://www.w3.org/2000/svg" width="24.665" height="24.663" viewBox="0 0 24.665 24.663">
  <g id="Rectangle_78" data-name="Rectangle 78" transform="translate(1.135 1.54)" fill="#fff" stroke="#fff" stroke-width="1">
    <rect width="22" height="23" stroke="none"/>
    <rect x="0.5" y="0.5" width="21" height="22" fill="none"/>
  </g>
  <path id="Path_2423" data-name="Path 2423" d="M299.147,410.6q0-.32,0-.64l.008,0-.008,0q0-.567,0-1.133l.008,0-.008,0v-.159l.007,0-.007,0v-1.157l.007,0-.007,0,0-.159.007,0-.008,0c-.017-.086.044-.076.095-.076h.843c.708,0,1.416,0,2.124,0,.1,0,.134-.03.147-.13.143-1.125.292-2.251.436-3.376.009-.07.049-.146-.006-.216-.04-.027-.084-.013-.126-.013h-3.274a.46.46,0,0,0-.187.01c-.1-.028-.041-.1-.05-.16l.007,0-.007,0c0-.878-.023-1.757.015-2.635a1.648,1.648,0,0,1,.187-.664,1.116,1.116,0,0,1,.611-.549,2.517,2.517,0,0,1,.969-.163c.633,0,1.266,0,1.9,0,.1,0,.129-.025.128-.125q-.006-1.549,0-3.1c0-.092-.028-.125-.118-.132-.382-.032-.763-.067-1.147-.079-.13,0-.26-.019-.389-.029a.931.931,0,0,0-.348-.008c-.344,0-.689-.016-1.033-.007a5.323,5.323,0,0,0-2.11.44,4.05,4.05,0,0,0-1.562,1.229,4.945,4.945,0,0,0-.969,3.019c-.018.934,0,1.869,0,2.8,0,.165,0,.166-.166.166-.958,0-1.916,0-2.875,0-.227,0-.2-.028-.2.2,0,1.128,0,2.257,0,3.384,0,.117.035.142.146.142.986,0,1.972,0,2.958,0,.114,0,.135.036.135.141q0,4.609,0,9.218a.456.456,0,0,0,0,.071c.015.1-.025.129-.124.127-.411-.005-.823,0-1.235,0l-3.932-.007q-3.23,0-6.462-.007a1.378,1.378,0,0,1-1.416-1.418q.006-7.686,0-15.371,0-3.23.005-6.462a1.372,1.372,0,0,1,1.387-1.386q5.832,0,11.665-.01,5.107,0,10.215,0a1.343,1.343,0,0,1,1.329.969,1.512,1.512,0,0,1,.062.468q0,4.3-.007,8.6,0,3.772,0,7.543,0,2.851,0,5.7a1.351,1.351,0,0,1-1.031,1.33,2.576,2.576,0,0,1-.649.045q-2.893,0-5.785,0c-.024,0-.048,0-.071,0-.084,0-.1-.036-.08-.109l.006,0-.006,0c0-.617-.007-1.233-.007-1.85,0-.537,0-1.075,0-1.613l.008,0-.008,0V413l.007,0-.007,0v-.307a.026.026,0,0,0,0-.045v-.188l.008,0-.008,0v-.784a.224.224,0,0,0,0-.161v-.379l.007,0-.007,0v-.4A.119.119,0,0,0,299.147,410.6Z" transform="translate(-282.113 -392.13)" fill="#014c9d"/>
</svg>
