<svg xmlns="http://www.w3.org/2000/svg" width="2197.15" height="73.476" viewBox="0 0 2197.15 73.476">
  <g id="Group_3848" data-name="Group 3848" transform="translate(14 -545.024)">
    <g id="Group_3844" data-name="Group 3844" transform="translate(-0.7 335.236)">
      <path id="Path_5913" data-name="Path 5913" d="M381.727,224.374l-.309-.921a21.784,21.784,0,0,1-3.673,2.438c.891-1.6,1.868-3.294,2.761-5.029l-5.782-11.074-9.1,21.279c.922,2.621,1.979,5.207,3.111,7.795a38.768,38.768,0,0,1-4.18-5.3l-1.476,3.452-.846,16.268,0,.091,12.493,12.279,12.4-9.367V242.754l-.137-.462Z" fill="#90bc67"/>
      <rect id="Rectangle_1410" data-name="Rectangle 1410" width="550" height="7.845" transform="translate(0 265.655)" fill="#90c22c"/>
      <rect id="Rectangle_1411" data-name="Rectangle 1411" width="550" height="6.251" transform="translate(0 259.404)" fill="#54656f"/>
      <rect id="Rectangle_1412" data-name="Rectangle 1412" width="550" height="7.46" transform="translate(0 275.804)" fill="#54656f"/>
      <path id="Path_5914" data-name="Path 5914" d="M362.171,214.62l-5.9,11.29,3.109,7.922-4.218-4.625-5.394,18.376v13.533l12.4,9.369,12.49-12.279-.848-16.355Z" fill="#c3d622"/>
      <path id="Path_5915" data-name="Path 5915" d="M366.785,250.415c-2.374,1.45-10.776,5.523-17.014,6.4v4.3l12.4,9.369,12.49-12.279-.7-13.43A39.463,39.463,0,0,1,366.785,250.415Z" fill="#b5ae22"/>
      <path id="Path_5916" data-name="Path 5916" d="M355.8,238.936l6.045,3.516L357.38,235.7Z" fill="#b5ae22"/>
      <path id="Path_5917" data-name="Path 5917" d="M356.068,242.182l-1.575,2.383,4.6,1.985Z" fill="#b5ae22"/>
      <path id="Path_5918" data-name="Path 5918" d="M488.492,214.62l-5.9,11.29,3.109,7.922-4.218-4.625-5.393,18.376v13.533l12.4,9.369,12.49-12.279-.849-16.356Z" fill="#c3d622"/>
      <path id="Path_5919" data-name="Path 5919" d="M493.106,250.415c-2.374,1.45-10.776,5.523-17.013,6.4v4.3l12.4,9.369,12.49-12.279-.7-13.43A39.463,39.463,0,0,1,493.106,250.415Z" fill="#b5ae22"/>
      <path id="Path_5920" data-name="Path 5920" d="M494.3,223.533l-6.044,3.516,4.469-6.751Z" fill="#b5ae22"/>
      <path id="Path_5921" data-name="Path 5921" d="M494.04,226.778l1.575,2.383-4.6,1.985Z" fill="#b5ae22"/>
      <path id="Path_5922" data-name="Path 5922" d="M133.352,214.62l-5.9,11.29,3.109,7.922-4.218-4.626-5.394,18.378v13.533l12.4,9.368,12.49-12.279-.848-16.356Z" fill="#90bc67"/>
      <path id="Path_5923" data-name="Path 5923" d="M137.966,250.415c-2.374,1.45-10.776,5.521-17.014,6.4v4.3l12.4,9.368,12.49-12.279-.7-13.43A39.463,39.463,0,0,1,137.966,250.415Z" fill="#5d8b64"/>
      <path id="Path_5924" data-name="Path 5924" d="M11.59,247.583v13.534l-12.4,9.368L-13.3,258.205l0-.09.848-16.269L-.808,214.618l5.9,11.289L1.981,233.83,6.2,229.2l5.258,17.919Z" fill="#90bc67"/>
      <path id="Path_5925" data-name="Path 5925" d="M11.59,247.583v13.534l-12.4,9.368L-13.3,258.2l0-.09c7.744-1.452,17.435-6.172,20.285-7.912a48.38,48.38,0,0,0,4.465-3.081Z" fill="#5d8b64"/>
      <path id="Path_5926" data-name="Path 5926" d="M2.168,239.524l-6.043,3.516,4.467-6.751Z" fill="#5d8b64"/>
      <path id="Path_5927" data-name="Path 5927" d="M-1.168,243.979l1.578,2.383-4.6,1.986Z" fill="#5d8b64"/>
    </g>
    <g id="Group_3847" data-name="Group 3847" transform="translate(1084.15 335.236)">
      <path id="Path_5913-2" data-name="Path 5913" d="M381.727,224.374l-.309-.921a21.784,21.784,0,0,1-3.673,2.438c.891-1.6,1.868-3.294,2.761-5.029l-5.782-11.074-9.1,21.279c.922,2.621,1.979,5.207,3.111,7.795a38.768,38.768,0,0,1-4.18-5.3l-1.476,3.452-.846,16.268,0,.091,12.493,12.279,12.4-9.367V242.754l-.137-.462Z" fill="#90bc67"/>
      <rect id="Rectangle_1410-2" data-name="Rectangle 1410" width="550" height="7.845" transform="translate(0 265.655)" fill="#90c22c"/>
      <rect id="Rectangle_1411-2" data-name="Rectangle 1411" width="550" height="6.251" transform="translate(0 259.404)" fill="#54656f"/>
      <rect id="Rectangle_1412-2" data-name="Rectangle 1412" width="550" height="7.46" transform="translate(0 275.804)" fill="#54656f"/>
      <path id="Path_5914-2" data-name="Path 5914" d="M362.171,214.62l-5.9,11.29,3.109,7.922-4.218-4.625-5.394,18.376v13.533l12.4,9.369,12.49-12.279-.848-16.355Z" fill="#c3d622"/>
      <path id="Path_5915-2" data-name="Path 5915" d="M366.785,250.415c-2.374,1.45-10.776,5.523-17.014,6.4v4.3l12.4,9.369,12.49-12.279-.7-13.43A39.463,39.463,0,0,1,366.785,250.415Z" fill="#b5ae22"/>
      <path id="Path_5916-2" data-name="Path 5916" d="M355.8,238.936l6.045,3.516L357.38,235.7Z" fill="#b5ae22"/>
      <path id="Path_5917-2" data-name="Path 5917" d="M356.068,242.182l-1.575,2.383,4.6,1.985Z" fill="#b5ae22"/>
      <path id="Path_5918-2" data-name="Path 5918" d="M488.492,214.62l-5.9,11.29,3.109,7.922-4.218-4.625-5.393,18.376v13.533l12.4,9.369,12.49-12.279-.849-16.356Z" fill="#c3d622"/>
      <path id="Path_5919-2" data-name="Path 5919" d="M493.106,250.415c-2.374,1.45-10.776,5.523-17.013,6.4v4.3l12.4,9.369,12.49-12.279-.7-13.43A39.463,39.463,0,0,1,493.106,250.415Z" fill="#b5ae22"/>
      <path id="Path_5920-2" data-name="Path 5920" d="M494.3,223.533l-6.044,3.516,4.469-6.751Z" fill="#b5ae22"/>
      <path id="Path_5921-2" data-name="Path 5921" d="M494.04,226.778l1.575,2.383-4.6,1.985Z" fill="#b5ae22"/>
      <path id="Path_5922-2" data-name="Path 5922" d="M133.352,214.62l-5.9,11.29,3.109,7.922-4.218-4.626-5.394,18.378v13.533l12.4,9.368,12.49-12.279-.848-16.356Z" fill="#90bc67"/>
      <path id="Path_5923-2" data-name="Path 5923" d="M137.966,250.415c-2.374,1.45-10.776,5.521-17.014,6.4v4.3l12.4,9.368,12.49-12.279-.7-13.43A39.463,39.463,0,0,1,137.966,250.415Z" fill="#5d8b64"/>
      <path id="Path_5924-2" data-name="Path 5924" d="M11.59,247.583v13.534l-12.4,9.368L-13.3,258.205l0-.09.848-16.269L-.808,214.618l5.9,11.289L1.981,233.83,6.2,229.2l5.258,17.919Z" fill="#90bc67"/>
      <path id="Path_5925-2" data-name="Path 5925" d="M11.59,247.583v13.534l-12.4,9.368L-13.3,258.2l0-.09c7.744-1.452,17.435-6.172,20.285-7.912a48.38,48.38,0,0,0,4.465-3.081Z" fill="#5d8b64"/>
      <path id="Path_5926-2" data-name="Path 5926" d="M2.168,239.524l-6.043,3.516,4.467-6.751Z" fill="#5d8b64"/>
      <path id="Path_5927-2" data-name="Path 5927" d="M-1.168,243.979l1.578,2.383-4.6,1.986Z" fill="#5d8b64"/>
    </g>
    <g id="Group_3845" data-name="Group 3845" transform="translate(548.3 335.236)">
      <path id="Path_5913-3" data-name="Path 5913" d="M381.727,224.374l-.309-.921a21.784,21.784,0,0,1-3.673,2.438c.891-1.6,1.868-3.294,2.761-5.029l-5.782-11.074-9.1,21.279c.922,2.621,1.979,5.207,3.111,7.795a38.768,38.768,0,0,1-4.18-5.3l-1.476,3.452-.846,16.268,0,.091,12.493,12.279,12.4-9.367V242.754l-.137-.462Z" fill="#90bc67"/>
      <rect id="Rectangle_1410-3" data-name="Rectangle 1410" width="550" height="7.845" transform="translate(0 265.655)" fill="#90c22c"/>
      <rect id="Rectangle_1411-3" data-name="Rectangle 1411" width="550" height="6.251" transform="translate(0 259.404)" fill="#54656f"/>
      <rect id="Rectangle_1412-3" data-name="Rectangle 1412" width="550" height="7.46" transform="translate(0 275.804)" fill="#54656f"/>
      <path id="Path_5914-3" data-name="Path 5914" d="M362.171,214.62l-5.9,11.29,3.109,7.922-4.218-4.625-5.394,18.376v13.533l12.4,9.369,12.49-12.279-.848-16.355Z" fill="#c3d622"/>
      <path id="Path_5915-3" data-name="Path 5915" d="M366.785,250.415c-2.374,1.45-10.776,5.523-17.014,6.4v4.3l12.4,9.369,12.49-12.279-.7-13.43A39.463,39.463,0,0,1,366.785,250.415Z" fill="#b5ae22"/>
      <path id="Path_5916-3" data-name="Path 5916" d="M355.8,238.936l6.045,3.516L357.38,235.7Z" fill="#b5ae22"/>
      <path id="Path_5917-3" data-name="Path 5917" d="M356.068,242.182l-1.575,2.383,4.6,1.985Z" fill="#b5ae22"/>
      <path id="Path_5918-3" data-name="Path 5918" d="M488.492,214.62l-5.9,11.29,3.109,7.922-4.218-4.625-5.393,18.376v13.533l12.4,9.369,12.49-12.279-.849-16.356Z" fill="#c3d622"/>
      <path id="Path_5919-3" data-name="Path 5919" d="M493.106,250.415c-2.374,1.45-10.776,5.523-17.013,6.4v4.3l12.4,9.369,12.49-12.279-.7-13.43A39.463,39.463,0,0,1,493.106,250.415Z" fill="#b5ae22"/>
      <path id="Path_5920-3" data-name="Path 5920" d="M494.3,223.533l-6.044,3.516,4.469-6.751Z" fill="#b5ae22"/>
      <path id="Path_5921-3" data-name="Path 5921" d="M494.04,226.778l1.575,2.383-4.6,1.985Z" fill="#b5ae22"/>
      <path id="Path_5922-3" data-name="Path 5922" d="M133.352,214.62l-5.9,11.29,3.109,7.922-4.218-4.626-5.394,18.378v13.533l12.4,9.368,12.49-12.279-.848-16.356Z" fill="#90bc67"/>
      <path id="Path_5923-3" data-name="Path 5923" d="M137.966,250.415c-2.374,1.45-10.776,5.521-17.014,6.4v4.3l12.4,9.368,12.49-12.279-.7-13.43A39.463,39.463,0,0,1,137.966,250.415Z" fill="#5d8b64"/>
      <path id="Path_5924-3" data-name="Path 5924" d="M11.59,247.583v13.534l-12.4,9.368L-13.3,258.205l0-.09.848-16.269L-.808,214.618l5.9,11.289L1.981,233.83,6.2,229.2l5.258,17.919Z" fill="#90bc67"/>
      <path id="Path_5925-3" data-name="Path 5925" d="M11.59,247.583v13.534l-12.4,9.368L-13.3,258.2l0-.09c7.744-1.452,17.435-6.172,20.285-7.912a48.38,48.38,0,0,0,4.465-3.081Z" fill="#5d8b64"/>
      <path id="Path_5926-3" data-name="Path 5926" d="M2.168,239.524l-6.043,3.516,4.467-6.751Z" fill="#5d8b64"/>
      <path id="Path_5927-3" data-name="Path 5927" d="M-1.168,243.979l1.578,2.383-4.6,1.986Z" fill="#5d8b64"/>
    </g>
    <g id="Group_3846" data-name="Group 3846" transform="translate(1633.15 335.236)">
      <path id="Path_5913-4" data-name="Path 5913" d="M381.727,224.374l-.309-.921a21.784,21.784,0,0,1-3.673,2.438c.891-1.6,1.868-3.294,2.761-5.029l-5.782-11.074-9.1,21.279c.922,2.621,1.979,5.207,3.111,7.795a38.768,38.768,0,0,1-4.18-5.3l-1.476,3.452-.846,16.268,0,.091,12.493,12.279,12.4-9.367V242.754l-.137-.462Z" fill="#90bc67"/>
      <rect id="Rectangle_1410-4" data-name="Rectangle 1410" width="550" height="7.845" transform="translate(0 265.655)" fill="#90c22c"/>
      <rect id="Rectangle_1411-4" data-name="Rectangle 1411" width="550" height="6.251" transform="translate(0 259.404)" fill="#54656f"/>
      <rect id="Rectangle_1412-4" data-name="Rectangle 1412" width="550" height="7.46" transform="translate(0 275.804)" fill="#54656f"/>
      <path id="Path_5914-4" data-name="Path 5914" d="M362.171,214.62l-5.9,11.29,3.109,7.922-4.218-4.625-5.394,18.376v13.533l12.4,9.369,12.49-12.279-.848-16.355Z" fill="#c3d622"/>
      <path id="Path_5915-4" data-name="Path 5915" d="M366.785,250.415c-2.374,1.45-10.776,5.523-17.014,6.4v4.3l12.4,9.369,12.49-12.279-.7-13.43A39.463,39.463,0,0,1,366.785,250.415Z" fill="#b5ae22"/>
      <path id="Path_5916-4" data-name="Path 5916" d="M355.8,238.936l6.045,3.516L357.38,235.7Z" fill="#b5ae22"/>
      <path id="Path_5917-4" data-name="Path 5917" d="M356.068,242.182l-1.575,2.383,4.6,1.985Z" fill="#b5ae22"/>
      <path id="Path_5918-4" data-name="Path 5918" d="M488.492,214.62l-5.9,11.29,3.109,7.922-4.218-4.625-5.393,18.376v13.533l12.4,9.369,12.49-12.279-.849-16.356Z" fill="#c3d622"/>
      <path id="Path_5919-4" data-name="Path 5919" d="M493.106,250.415c-2.374,1.45-10.776,5.523-17.013,6.4v4.3l12.4,9.369,12.49-12.279-.7-13.43A39.463,39.463,0,0,1,493.106,250.415Z" fill="#b5ae22"/>
      <path id="Path_5920-4" data-name="Path 5920" d="M494.3,223.533l-6.044,3.516,4.469-6.751Z" fill="#b5ae22"/>
      <path id="Path_5921-4" data-name="Path 5921" d="M494.04,226.778l1.575,2.383-4.6,1.985Z" fill="#b5ae22"/>
      <path id="Path_5922-4" data-name="Path 5922" d="M133.352,214.62l-5.9,11.29,3.109,7.922-4.218-4.626-5.394,18.378v13.533l12.4,9.368,12.49-12.279-.848-16.356Z" fill="#90bc67"/>
      <path id="Path_5923-4" data-name="Path 5923" d="M137.966,250.415c-2.374,1.45-10.776,5.521-17.014,6.4v4.3l12.4,9.368,12.49-12.279-.7-13.43A39.463,39.463,0,0,1,137.966,250.415Z" fill="#5d8b64"/>
      <path id="Path_5924-4" data-name="Path 5924" d="M11.59,247.583v13.534l-12.4,9.368L-13.3,258.205l0-.09.848-16.269L-.808,214.618l5.9,11.289L1.981,233.83,6.2,229.2l5.258,17.919Z" fill="#90bc67"/>
      <path id="Path_5925-4" data-name="Path 5925" d="M11.59,247.583v13.534l-12.4,9.368L-13.3,258.2l0-.09c7.744-1.452,17.435-6.172,20.285-7.912a48.38,48.38,0,0,0,4.465-3.081Z" fill="#5d8b64"/>
      <path id="Path_5926-4" data-name="Path 5926" d="M2.168,239.524l-6.043,3.516,4.467-6.751Z" fill="#5d8b64"/>
      <path id="Path_5927-4" data-name="Path 5927" d="M-1.168,243.979l1.578,2.383-4.6,1.986Z" fill="#5d8b64"/>
    </g>
  </g>
</svg>
