<svg xmlns="http://www.w3.org/2000/svg" width="15.987" height="15.987" viewBox="0 0 15.987 15.987">
  <path id="Icon_metro-copyright" data-name="Icon metro-copyright" d="M16.739,14.253v1.134a1.318,1.318,0,0,1-.38.926,2.524,2.524,0,0,1-.978.63,7.154,7.154,0,0,1-1.228.338,6.832,6.832,0,0,1-1.223.114A4.811,4.811,0,0,1,9.365,15.95a4.916,4.916,0,0,1-1.431-3.6A4.837,4.837,0,0,1,12.878,7.4a7.345,7.345,0,0,1,.786.047,6.716,6.716,0,0,1,.968.187,4.965,4.965,0,0,1,.963.354,2.073,2.073,0,0,1,.718.588,1.338,1.338,0,0,1,.291.843v1.134a.147.147,0,0,1-.167.167H15.209a.147.147,0,0,1-.167-.167V9.83q0-.448-.682-.7a4.051,4.051,0,0,0-1.431-.255,3.162,3.162,0,0,0-2.378.952A3.406,3.406,0,0,0,9.631,12.3a3.666,3.666,0,0,0,.952,2.6,3.171,3.171,0,0,0,2.43,1.025,4.41,4.41,0,0,0,1.436-.25q.729-.25.729-.687v-.729a.162.162,0,0,1,.047-.12.15.15,0,0,1,.109-.047h1.239a.167.167,0,0,1,.114.047.154.154,0,0,1,.052.12ZM12.763,5.739a6.475,6.475,0,0,0-2.586.531A6.569,6.569,0,0,0,6.633,9.814a6.567,6.567,0,0,0,0,5.173,6.569,6.569,0,0,0,3.544,3.544,6.567,6.567,0,0,0,5.173,0,6.569,6.569,0,0,0,3.544-3.544,6.567,6.567,0,0,0,0-5.173A6.569,6.569,0,0,0,15.35,6.27a6.475,6.475,0,0,0-2.586-.531ZM20.757,12.4a7.819,7.819,0,0,1-1.072,4.012,7.958,7.958,0,0,1-2.909,2.909,8.045,8.045,0,0,1-8.025,0,7.958,7.958,0,0,1-2.909-2.909,8.045,8.045,0,0,1,0-8.025A7.958,7.958,0,0,1,8.751,5.479a8.045,8.045,0,0,1,8.025,0,7.958,7.958,0,0,1,2.909,2.909A7.819,7.819,0,0,1,20.757,12.4Z" transform="translate(-4.77 -4.407)" fill="#fff"/>
</svg>
