<svg xmlns="http://www.w3.org/2000/svg" width="16.142" height="18.448" viewBox="0 0 16.142 18.448">
  <path id="Icon_awesome-building" data-name="Icon awesome-building" d="M15.71,17.3h-.721V.865A.865.865,0,0,0,14.124,0H2.018a.865.865,0,0,0-.865.865V17.3H.432A.432.432,0,0,0,0,17.728v.721H16.142v-.721A.432.432,0,0,0,15.71,17.3ZM4.612,2.738a.432.432,0,0,1,.432-.432H6.486a.432.432,0,0,1,.432.432V4.18a.432.432,0,0,1-.432.432H5.044a.432.432,0,0,1-.432-.432Zm0,3.459a.432.432,0,0,1,.432-.432H6.486a.432.432,0,0,1,.432.432V7.639a.432.432,0,0,1-.432.432H5.044a.432.432,0,0,1-.432-.432ZM6.486,11.53H5.044a.432.432,0,0,1-.432-.432V9.656a.432.432,0,0,1,.432-.432H6.486a.432.432,0,0,1,.432.432V11.1A.432.432,0,0,1,6.486,11.53ZM9.224,17.3H6.918V14.269a.432.432,0,0,1,.432-.432H8.792a.432.432,0,0,1,.432.432Zm2.306-6.2a.432.432,0,0,1-.432.432H9.656a.432.432,0,0,1-.432-.432V9.656a.432.432,0,0,1,.432-.432H11.1a.432.432,0,0,1,.432.432Zm0-3.459a.432.432,0,0,1-.432.432H9.656a.432.432,0,0,1-.432-.432V6.2a.432.432,0,0,1,.432-.432H11.1a.432.432,0,0,1,.432.432Zm0-3.459a.432.432,0,0,1-.432.432H9.656a.432.432,0,0,1-.432-.432V2.738a.432.432,0,0,1,.432-.432H11.1a.432.432,0,0,1,.432.432Z" fill="#2e58a6"/>
</svg>
