<svg xmlns="http://www.w3.org/2000/svg" xmlns:xlink="http://www.w3.org/1999/xlink" width="38.107" height="38.107" viewBox="0 0 38.107 38.107">
  <defs>
    <filter id="Path_4291" x="0" y="0" width="38.107" height="38.107" filterUnits="userSpaceOnUse">
      <feOffset dy="3" input="SourceAlpha"/>
      <feGaussianBlur stdDeviation="3" result="blur"/>
      <feFlood flood-opacity="0.161"/>
      <feComposite operator="in" in2="blur"/>
      <feComposite in="SourceGraphic"/>
    </filter>
    <filter id="Path_4292" x="4.891" y="4.892" width="28.325" height="28.325" filterUnits="userSpaceOnUse">
      <feOffset dy="3" input="SourceAlpha"/>
      <feGaussianBlur stdDeviation="3" result="blur-2"/>
      <feFlood flood-opacity="0.161"/>
      <feComposite operator="in" in2="blur-2"/>
      <feComposite in="SourceGraphic"/>
    </filter>
    <filter id="Path_4293" x="14.213" y="3.481" width="20.413" height="20.413" filterUnits="userSpaceOnUse">
      <feOffset dy="3" input="SourceAlpha"/>
      <feGaussianBlur stdDeviation="3" result="blur-3"/>
      <feFlood flood-opacity="0.161"/>
      <feComposite operator="in" in2="blur-3"/>
      <feComposite in="SourceGraphic"/>
    </filter>
  </defs>
  <g id="Group_3428" data-name="Group 3428" transform="translate(9 6)">
    <g transform="matrix(1, 0, 0, 1, -9, -6)" filter="url(#Path_4291)">
      <path id="Path_4291-2" data-name="Path 4291" d="M220.775,138.912c2.684,0,3,.011,4.063.059a5.57,5.57,0,0,1,1.866.347,3.323,3.323,0,0,1,1.908,1.908,5.57,5.57,0,0,1,.347,1.866c.048,1.061.059,1.379.059,4.063s-.011,3-.059,4.062a5.571,5.571,0,0,1-.347,1.867,3.323,3.323,0,0,1-1.908,1.908,5.552,5.552,0,0,1-1.866.346c-1.061.048-1.378.059-4.063.059s-3-.011-4.062-.059a5.559,5.559,0,0,1-1.867-.346,3.33,3.33,0,0,1-1.908-1.908,5.553,5.553,0,0,1-.346-1.867c-.048-1.06-.059-1.378-.059-4.062s.011-3,.059-4.063a5.551,5.551,0,0,1,.346-1.866,3.33,3.33,0,0,1,1.908-1.908,5.577,5.577,0,0,1,1.867-.347c1.06-.048,1.378-.059,4.062-.059m0-1.811c-2.73,0-3.073.013-4.145.061a7.39,7.39,0,0,0-2.44.467,5.141,5.141,0,0,0-2.94,2.94,7.36,7.36,0,0,0-.467,2.44c-.049,1.072-.061,1.414-.061,4.145s.012,3.072.061,4.145a7.361,7.361,0,0,0,.467,2.44,5.141,5.141,0,0,0,2.94,2.94,7.417,7.417,0,0,0,2.44.467c1.072.048,1.414.06,4.145.06s3.072-.012,4.145-.06a7.411,7.411,0,0,0,2.44-.467,5.146,5.146,0,0,0,2.941-2.94,7.387,7.387,0,0,0,.467-2.44c.049-1.072.061-1.414.061-4.145s-.012-3.072-.061-4.145a7.387,7.387,0,0,0-.467-2.44,5.146,5.146,0,0,0-2.941-2.94,7.384,7.384,0,0,0-2.44-.467c-1.072-.048-1.414-.061-4.145-.061" transform="translate(-201.72 -131.1)" fill="#fff"/>
    </g>
    <g transform="matrix(1, 0, 0, 1, -9, -6)" filter="url(#Path_4292)">
      <path id="Path_4292-2" data-name="Path 4292" d="M220.96,142.178a5.162,5.162,0,1,0,5.162,5.162,5.162,5.162,0,0,0-5.162-5.162m0,8.513a3.351,3.351,0,1,1,3.351-3.351,3.351,3.351,0,0,1-3.351,3.351" transform="translate(-201.91 -131.29)" fill="#fff"/>
    </g>
    <g transform="matrix(1, 0, 0, 1, -9, -6)" filter="url(#Path_4293)">
      <path id="Path_4293-2" data-name="Path 4293" d="M227.887,141.92a1.206,1.206,0,1,1-1.206-1.206,1.206,1.206,0,0,1,1.206,1.206" transform="translate(-202.26 -131.23)" fill="#fff"/>
    </g>
  </g>
</svg>
