<svg xmlns="http://www.w3.org/2000/svg" width="27" height="26" viewBox="0 0 27 26">
  <g id="Group_3406" data-name="Group 3406" transform="translate(-601.047 -1013.299)">
    <rect id="Rectangle_1059" data-name="Rectangle 1059" width="27" height="26" rx="5" transform="translate(601.047 1013.299)" fill="#fff"/>
    <path id="Icon_awesome-linkedin-in" data-name="Icon awesome-linkedin-in" d="M2.941,13.14H.217V4.368H2.941ZM1.578,3.171A1.585,1.585,0,1,1,3.155,1.578,1.591,1.591,0,0,1,1.578,3.171ZM13.137,13.14H10.418V8.87c0-1.018-.021-2.323-1.416-2.323-1.416,0-1.633,1.106-1.633,2.25V13.14H4.647V4.368H7.26v1.2H7.3A2.862,2.862,0,0,1,9.876,4.148c2.757,0,3.264,1.815,3.264,4.174V13.14Z" transform="translate(608.181 1018.18)" fill="#2e58a6"/>
  </g>
</svg>
