<svg xmlns="http://www.w3.org/2000/svg" width="17.588" height="12.177" viewBox="0 0 17.588 12.177">
  <g id="Group_4946" data-name="Group 4946" transform="translate(0 -11.448)">
    <g id="Icon_ionic-ios-mail" data-name="Icon ionic-ios-mail" transform="translate(0 11.448)">
      <path id="Path_4077" data-name="Path 4077" d="M20.82,10.34,16.27,14.974a.082.082,0,0,0,0,.118l3.184,3.391a.549.549,0,0,1,0,.778.551.551,0,0,1-.778,0l-3.171-3.378a.087.087,0,0,0-.123,0l-.774.786a3.4,3.4,0,0,1-2.427,1.023A3.472,3.472,0,0,1,9.7,16.639l-.744-.757a.087.087,0,0,0-.123,0L5.667,19.261a.551.551,0,0,1-.778,0,.549.549,0,0,1,0-.778l3.184-3.391a.09.09,0,0,0,0-.118L3.519,10.34a.083.083,0,0,0-.144.059v9.272a1.357,1.357,0,0,0,1.353,1.353H19.61a1.357,1.357,0,0,0,1.353-1.353V10.4A.085.085,0,0,0,20.82,10.34Z" transform="translate(-3.375 -8.847)" fill="#2e58a6"/>
      <path id="Path_4078" data-name="Path 4078" d="M12.508,15.616a2.3,2.3,0,0,0,1.653-.693L20.8,8.171a1.329,1.329,0,0,0-.837-.3H5.063a1.32,1.32,0,0,0-.837.3l6.634,6.752A2.3,2.3,0,0,0,12.508,15.616Z" transform="translate(-3.714 -7.875)" fill="#2e58a6"/>
    </g>
  </g>
</svg>
