<svg xmlns="http://www.w3.org/2000/svg" xmlns:xlink="http://www.w3.org/1999/xlink" width="592.949" height="457.641" viewBox="0 0 592.949 457.641">
  <defs>
    <linearGradient id="linear-gradient" y1="0.5" x2="1" y2="0.5" gradientUnits="objectBoundingBox">
      <stop offset="0" stop-color="#bb7ad5"/>
      <stop offset="1" stop-color="#fbfbfb"/>
    </linearGradient>
    <linearGradient id="linear-gradient-24" x1="0.5" y1="1" x2="0.5" gradientUnits="objectBoundingBox">
      <stop offset="0" stop-color="#cac7c2"/>
      <stop offset="0.216" stop-color="#dddbd8"/>
      <stop offset="0.468" stop-color="#ededeb"/>
      <stop offset="0.727" stop-color="#f7f7f7"/>
      <stop offset="1" stop-color="#fbfbfb"/>
    </linearGradient>
  </defs>
  <g id="Group_3122" data-name="Group 3122" transform="translate(-317.239 -168.66)">
    <g id="Group_3109" data-name="Group 3109" transform="translate(317.239 330.632)" opacity="0.23" style="mix-blend-mode: multiply;isolation: isolate">
      <path id="Path_5178" data-name="Path 5178" d="M447.791,294.362q.037-1.149.044-2.3L360.1,379.8q1.149-.008,2.3-.046Z" transform="translate(-271.209 -203.17)" fill="url(#linear-gradient)"/>
      <path id="Path_5179" data-name="Path 5179" d="M452.086,288.04c-.062-.68-.132-1.361-.21-2.039l-97.838,97.836q1.019.116,2.041.21Z" transform="translate(-275.823 -207.784)" fill="url(#linear-gradient)"/>
      <path id="Path_5180" data-name="Path 5180" d="M323.99,380.841c.187.188.368.38.556.569s.38.37.569.556L450,257.078c-.185-.19-.366-.382-.555-.57s-.38-.37-.571-.556Z" transform="translate(-298.684 -230.645)" fill="url(#linear-gradient)"/>
      <path id="Path_5181" data-name="Path 5181" d="M441.229,301.662c.157-.894.306-1.789.437-2.687l-74.652,74.652c.9-.13,1.792-.28,2.687-.437Z" transform="translate(-265.952 -197.913)" fill="url(#linear-gradient)"/>
      <path id="Path_5182" data-name="Path 5182" d="M454.788,282.393q-.19-.927-.4-1.851L348.581,386.349c.615.141,1.233.273,1.849.4Z" transform="translate(-279.976 -211.937)" fill="url(#linear-gradient)"/>
      <path id="Path_5183" data-name="Path 5183" d="M411.554,319.842,387.88,343.516a88.849,88.849,0,0,0,23.674-23.674Z" transform="translate(-250.078 -182.038)" fill="url(#linear-gradient)"/>
      <path id="Path_5184" data-name="Path 5184" d="M456.253,277.253q-.269-.848-.558-1.692L343.6,387.656q.842.288,1.692.558Z" transform="translate(-283.765 -215.726)" fill="url(#linear-gradient)"/>
      <path id="Path_5185" data-name="Path 5185" d="M327.3,383.751c.407.347.813.688,1.225,1.027L452.817,260.484q-.507-.615-1.027-1.225Z" transform="translate(-296.167 -228.128)" fill="url(#linear-gradient)"/>
      <path id="Path_5186" data-name="Path 5186" d="M454.888,264.189c-.3-.446-.607-.891-.919-1.331L330.9,385.931c.442.312.886.616,1.333.919Z" transform="translate(-293.43 -225.39)" fill="url(#linear-gradient)"/>
      <path id="Path_5187" data-name="Path 5187" d="M456.2,268.2q-.4-.724-.812-1.439L334.8,387.346q.716.412,1.438.812Z" transform="translate(-290.462 -222.423)" fill="url(#linear-gradient)"/>
      <path id="Path_5188" data-name="Path 5188" d="M456.681,272.54q-.338-.782-.694-1.558L339.021,387.949q.777.354,1.558.694Z" transform="translate(-287.249 -219.21)" fill="url(#linear-gradient)"/>
      <path id="Path_5189" data-name="Path 5189" d="M430.682,310.772q.642-1.719,1.208-3.458l-56.537,56.539q1.738-.568,3.458-1.21Z" transform="translate(-259.608 -191.569)" fill="url(#linear-gradient)"/>
      <path id="Path_5190" data-name="Path 5190" d="M431.364,246.359q-.777-.354-1.558-.694l-116.1,116.1q.338.782.694,1.558Z" transform="translate(-306.509 -238.47)" fill="url(#linear-gradient)"/>
      <path id="Path_5191" data-name="Path 5191" d="M437.2,248.577q-.716-.412-1.439-.812L315.8,367.725q.4.724.812,1.439Z" transform="translate(-304.912 -236.873)" fill="url(#linear-gradient)"/>
      <path id="Path_5192" data-name="Path 5192" d="M442.224,251.112c-.44-.312-.886-.616-1.331-.919L318.232,372.854c.3.446.607.891.919,1.331Z" transform="translate(-303.065 -235.026)" fill="url(#linear-gradient)"/>
      <path id="Path_5193" data-name="Path 5193" d="M446.483,253.951q-.61-.52-1.226-1.027L320.964,377.218q.507.615,1.025,1.225Z" transform="translate(-300.986 -232.947)" fill="url(#linear-gradient)"/>
      <path id="Path_5194" data-name="Path 5194" d="M384.789,242.1c-.9.13-1.793.28-2.687.437l-71.528,71.528c-.158.895-.306,1.789-.437,2.687Z" transform="translate(-309.223 -241.184)" fill="url(#linear-gradient)"/>
      <path id="Path_5195" data-name="Path 5195" d="M341.9,250.183a88.891,88.891,0,0,0-23.674,23.675Z" transform="translate(-303.072 -235.033)" fill="url(#linear-gradient)"/>
      <path id="Path_5196" data-name="Path 5196" d="M424.622,244.488q-.845-.288-1.692-.558L311.969,354.891c.178.565.366,1.13.556,1.692Z" transform="translate(-307.829 -239.79)" fill="url(#linear-gradient)"/>
      <path id="Path_5197" data-name="Path 5197" d="M397.349,241.579q-1.146.008-2.3.046l-85.389,85.391q-.037,1.146-.046,2.3Z" transform="translate(-309.618 -241.579)" fill="url(#linear-gradient)"/>
      <path id="Path_5198" data-name="Path 5198" d="M313.293,297.126q-.639,1.719-1.208,3.458l56.539-56.537q-1.741.565-3.458,1.208Z" transform="translate(-307.741 -239.701)" fill="url(#linear-gradient)"/>
      <path id="Path_5199" data-name="Path 5199" d="M416.856,243.01q-.924-.211-1.851-.4L310.648,346.966c.129.618.261,1.236.4,1.851Z" transform="translate(-308.834 -240.795)" fill="url(#linear-gradient)"/>
      <path id="Path_5200" data-name="Path 5200" d="M407.871,242q-1.019-.116-2.039-.21l-96.008,96.006q.1,1.019.211,2.041Z" transform="translate(-309.461 -241.421)" fill="url(#linear-gradient)"/>
    </g>
    <circle id="Ellipse_63" data-name="Ellipse 63" cx="20.249" cy="20.249" r="20.249" transform="translate(376.018 309.361)" fill="#cfe5ff"/>
    <circle id="Ellipse_64" data-name="Ellipse 64" cx="10.565" cy="10.565" r="10.565" transform="translate(323.195 605.171)" fill="#cfe5ff"/>
    <g id="Group_3110" data-name="Group 3110" transform="translate(421.923 284.782)">
      <path id="Path_5201" data-name="Path 5201" d="M440.227,300.455c-3.618-.967-9.3-10.079-13.982-10.492s-10.357,5.106-15.143,1.629-5.228-18.423-10.705-21.408-9.57.361-11.667-3.157.625-15.5-4.279-19.73-8.918-2.823-9.889-6.52,1.953-9.549-2-15.083-5.464-12.611.449-9.313,11.2,7.469,17.145,6.142,4.868,8.855,9.1,11.264,10.517-1.664,13.938.49,3.7,13.658,6.571,14.745,14.31-6.886,19.67-4.655-1.2,16.747,4.536,18.918,12.715,4.918,12.715,4.918Z" transform="translate(-369.072 -215.54)" fill="#b8e3c2"/>
      <path id="Path_5202" data-name="Path 5202" d="M376.252,223.763s6.455,21.311,64.3,58.354l3.675-5.973S397.5,255.821,376.252,223.763Z" transform="translate(-363.609 -209.284)" fill="#9ecdbb"/>
    </g>
    <path id="Path_5203" data-name="Path 5203" d="M378.949,286.1c-12.912,8.608-20.228,51.217,4.735,52.079,17.212.593,23.984-14.912,17.521-19.737-16.231-12.114-35.168,30.495-16.231,39.1,8.934,4.06,18-2.414,27.767-10.3,14.951-12.067,31.551-27.431,51.857-13.375" transform="translate(51.349 122.921)" fill="none" stroke="#d8171c" stroke-miterlimit="10" stroke-width="2"/>
    <path id="Path_5204" data-name="Path 5204" d="M573.277,364.067c0,3.381-11.255,6.122-25.139,6.122S523,367.448,523,364.067s11.255-6.121,25.139-6.121S573.277,360.687,573.277,364.067Z" transform="translate(169.957 177.583)" fill="#e5ebf4" style="mix-blend-mode: multiply;isolation: isolate"/>
    <path id="Path_5205" data-name="Path 5205" d="M491.887,377.762c0,3.381-11.255,6.12-25.139,6.12s-25.139-2.74-25.139-6.12,11.255-6.122,25.139-6.122S491.887,374.382,491.887,377.762Z" transform="translate(108.037 188)" fill="#e5ebf4" style="mix-blend-mode: multiply;isolation: isolate"/>
    <path id="Path_5206" data-name="Path 5206" d="M735.329,361.662H449.435a100.969,100.969,0,0,1-29.467-4.395l-44.453-13.562H813.643L762.4,357.965A100.936,100.936,0,0,1,735.329,361.662Z" transform="translate(57.754 166.749)" fill="#e5ebf4" style="mix-blend-mode: multiply;isolation: isolate"/>
    <g id="Group_3113" data-name="Group 3113" transform="translate(761.724 208.526)">
      <path id="Path_5207" data-name="Path 5207" d="M650.256,206.977c-5.693-.5-13.935-.312-25.586,1.692a22.556,22.556,0,0,0-15.453,10.572c-6,9.917-15.278,25.635-17.233,31.136,0,0-16.505-2.572-25.813-8.232l-4.117,8.232s9.489,6.571,37.411,15.711c0,0,8.311-12.5,12.72-24.69,0,0-.928,6.756,2.243,18.7,2.511,9.452-3.375,46.344-3.375,46.344l60.742-2.176L666.8,267.585l7.367-9.471a12.2,12.2,0,0,0,2.4-9.454c-1.134-6.985-3.913-19.582-10.309-31.275A20.219,20.219,0,0,0,650.256,206.977Z" transform="translate(-562.055 -145.974)" fill="#d85c1c"/>
      <path id="Path_5208" data-name="Path 5208" d="M621.081,239.082l-2.245-15.525s-2.991,20.388-4.3,22.82Z" transform="translate(-522.13 -133.184)" fill="#b14800"/>
      <path id="Path_5209" data-name="Path 5209" d="M611.171,244.953c-3.094,1.081-11.059,3.618-10.325,5.231.423.931,6.041-1.28,6.663-.519.468.572-1.53,3.555-5.124,5.446-2.789,1.468-4.728,1.162-4.842,2.5-.148,1.687,8.094,1.514,10.2,1.252a11.751,11.751,0,0,0,5.573-2.352,38.142,38.142,0,0,0,3.77-3.884,31.879,31.879,0,0,1,5.14-3.93l-4.1-6.665S612.951,244.33,611.171,244.953Z" transform="translate(-535.058 -119.133)" fill="#e7d1ad"/>
      <path id="Path_5210" data-name="Path 5210" d="M600.5,202.686l1.292,14.787s8,6.842,14.972-.882l-3.872-17.877Z" transform="translate(-532.806 -152.084)" fill="#e0bd82"/>
      <path id="Path_5211" data-name="Path 5211" d="M629.614,181.214a22.885,22.885,0,0,1,6.77,16.933c0,11.424-13.5,27.544-25.864,27.544-10.9,0-19.737-11.2-19.737-25.022,0-10.591,5.252-19.532,12.523-23.293C613.588,172.056,624.642,176.354,629.614,181.214Z" transform="translate(-540.199 -170.182)" fill="#e7cb9e"/>
      <path id="Path_5212" data-name="Path 5212" d="M598.67,192.254s-3.367,5.55.687,5.8" transform="translate(-535.197 -156.999)" fill="none" stroke="#e0b695" stroke-miterlimit="10" stroke-width="0.5"/>
      <path id="Path_5213" data-name="Path 5213" d="M597.268,194.518c0,1.1-1.238,1.995-2.764,1.995s-2.763-.894-2.763-1.995,1.238-2,2.763-2S597.268,193.415,597.268,194.518Z" transform="translate(-539.47 -156.796)" fill="#e0ab82"/>
      <path id="Path_5214" data-name="Path 5214" d="M609.7,194.664c0,1.222-1.5,2.213-3.354,2.213s-3.356-.991-3.356-2.213,1.5-2.213,3.356-2.213S609.7,193.441,609.7,194.664Z" transform="translate(-530.915 -156.849)" fill="#e0ab82"/>
      <ellipse id="Ellipse_65" data-name="Ellipse 65" cx="49.475" cy="8.604" rx="49.475" ry="8.604" transform="translate(22.166 299.683)" fill="#e5ebf4" style="mix-blend-mode: multiply;isolation: isolate"/>
      <g id="Group_3111" data-name="Group 3111" transform="translate(88.971 276.334)">
        <path id="Path_5215" data-name="Path 5215" d="M630.876,338.106s2.854.586,2.44,4.891a100.569,100.569,0,0,0-.257,10.105l-1.211.468s-.68-5.171-1.041-5.224-2.763,5.2-5.606,6.411-10.017,3.506-12.056,1.416c-2.233-2.287,2.754-4.367,5.309-5.876S630.876,338.106,630.876,338.106Z" transform="translate(-612.585 -322.372)" fill="#393939"/>
        <path id="Path_5216" data-name="Path 5216" d="M619.01,331.072s2.992,11.817,1.537,16.895-5.349,9.411-5.758,10.424,5.351.347,7.39-1.424,7.466-10.963,7.129-12.2a82.788,82.788,0,0,1-.877-15.6Z" transform="translate(-610.923 -329.17)" fill="#e7cb9e"/>
      </g>
      <g id="Group_3112" data-name="Group 3112" transform="translate(39.5 277.631)">
        <path id="Path_5217" data-name="Path 5217" d="M604.886,338.822s2.75.963,1.764,5.175a100.483,100.483,0,0,0-1.606,9.98l-1.263.3s.018-5.215-.333-5.318-3.307,4.872-6.286,5.691-10.522,2.05-12.266-.3c-1.907-2.565,3.314-3.958,6.048-5.113S604.886,338.822,604.886,338.822Z" transform="translate(-584.488 -323.125)" fill="#393939"/>
        <path id="Path_5218" data-name="Path 5218" d="M594.78,330.532s1.386,12.111-.734,16.947-6.561,8.612-7.1,9.561,5.258,1.06,7.515-.423,8.865-9.866,8.7-11.133a82.708,82.708,0,0,1,1.217-15.578Z" transform="translate(-582.647 -329.907)" fill="#e7cb9e"/>
      </g>
      <path id="Path_5219" data-name="Path 5219" d="M592.43,264.309s-5.14,51.473-5.855,68.63c-.632,15.162,6.452,62.145,6.452,62.145l12.246-1.062s1.449-45.034,4.925-60.044c2.648-11.433,10.589-45.729,10.589-45.729s4.082,32.56,5.441,43.414c1.933,15.419,12.22,63.173,12.22,63.173l14.459-.629s-3.847-48.192-3.633-64.256c.225-16.955,3.9-67.818,3.9-67.818Z" transform="translate(-543.431 -103.837)" fill="#2638a3"/>
      <path id="Path_5220" data-name="Path 5220" d="M592.43,263.665s-5.14,51.473-5.855,68.63c-.632,15.162,6.452,62.145,6.452,62.145l12.246-1.062s1.449-45.034,4.925-60.044c2.648-11.433,10.589-45.729,10.589-45.729s-7.048-8.564-9.249-24.624Z" transform="translate(-543.431 -103.192)" fill="#12259a"/>
      <path id="Path_5221" data-name="Path 5221" d="M638.634,200.293s-2.71,8.376-15.909.782a98.666,98.666,0,0,1-21.568-16.754s-4.305,11.081-11.077,15.525c0,0,.363-7.663,1.65-11.727,1.414-4.469,5.421-13.739,19.326-14.3C642.753,172.548,638.634,200.293,638.634,200.293Z" transform="translate(-540.733 -171.054)" fill="#424242"/>
      <path id="Path_5222" data-name="Path 5222" d="M622.919,194.651s7.305-4.022,4.478-12.287S613.608,169.632,607.951,177" transform="translate(-527.138 -171.443)" fill="#424242"/>
      <path id="Path_5223" data-name="Path 5223" d="M601.142,190.053c0,.988.514,1.787,1.148,1.787s1.148-.8,1.148-1.787-.514-1.787-1.148-1.787S601.142,189.065,601.142,190.053Z" transform="translate(-532.318 -160.033)" fill="#424242"/>
      <path id="Path_5224" data-name="Path 5224" d="M594.356,190.435c0,.986.539,1.785,1.2,1.785s1.2-.8,1.2-1.785-.537-1.787-1.2-1.787S594.356,189.447,594.356,190.435Z" transform="translate(-537.481 -159.742)" fill="#424242"/>
      <path id="Path_5225" data-name="Path 5225" d="M606.215,197.02s-5.656,2.671-10.167.414C595.953,199.82,601.778,204.465,606.215,197.02Z" transform="translate(-536.194 -153.373)" fill="#e5f1ff"/>
      <path id="Path_5226" data-name="Path 5226" d="M611.7,195.7c-1.5,4.629.176,9.226,3.754,10.271s7.695-1.861,9.2-6.49-.176-9.225-3.754-10.269S613.2,191.074,611.7,195.7Z" transform="translate(-524.708 -159.474)"/>
      <path id="Path_5227" data-name="Path 5227" d="M623.217,196.893s-6.922,10.288-21.325,6.922" transform="translate(-531.748 -153.47)" fill="none" stroke="#000" stroke-linecap="round" stroke-miterlimit="10" stroke-width="1"/>
      <path id="Path_5228" data-name="Path 5228" d="M636.225,207.277s3.807-34.83-23.8-35.045c-6.3-.049-17.648,2.3-20.886,13.35" transform="translate(-539.62 -172.232)" fill="none" stroke="#000" stroke-linecap="round" stroke-miterlimit="10" stroke-width="1"/>
    </g>
    <path id="Path_5229" data-name="Path 5229" d="M725.636,262.6l.018-.018L592.082,188.707a45.959,45.959,0,0,0-44.484,0L414,262.6l.018.018a18.935,18.935,0,0,0-9.876,16.631V465.183a18.937,18.937,0,0,0,18.937,18.937H716.6a18.937,18.937,0,0,0,18.937-18.937V279.252A18.933,18.933,0,0,0,725.636,262.6Z" transform="translate(79.529 44.462)" fill="#11579f"/>
    <g id="Group_3114" data-name="Group 3114" transform="translate(671.357 168.66)">
      <path id="Path_5230" data-name="Path 5230" d="M510.733,206.945c1.521-3.421,11.41-7.6,12.551-12.169s-3.423-11.028.761-15.211,19.014-2.282,22.816-7.226,1.141-9.506,4.944-11.028,15.211,3.043,20.156-1.141,4.184-8.367,7.987-8.748,9.126,3.423,15.211.38,13.31-3.421,9.126,1.9-9.126,9.889-8.746,15.972-9.508,3.423-12.549,7.226,0,10.647-2.662,13.69-14.072,1.521-15.593,4.184,4.564,15.211,1.521,20.156-16.352-3.8-19.4,1.521-6.844,11.79-6.844,11.79Z" transform="translate(-510.733 -149.59)" fill="#b8e3c2"/>
      <path id="Path_5231" data-name="Path 5231" d="M584.688,155.6S562.631,158.642,517,209.981l5.323,4.564S549.7,171.571,584.688,155.6Z" transform="translate(-505.967 -145.019)" fill="#9ecdbb"/>
    </g>
    <path id="Rectangle_1106" data-name="Rectangle 1106" d="M12.333,0H243.32a12.333,12.333,0,0,1,12.333,12.333V260.818a0,0,0,0,1,0,0H0a0,0,0,0,1,0,0V12.333A12.333,12.333,0,0,1,12.333,0Z" transform="translate(521.542 221.281)" fill="url(#linear-gradient-24)"/>
    <g id="Group_3115" data-name="Group 3115" transform="translate(553.973 259.806)" style="mix-blend-mode: multiply;isolation: isolate">
      <rect id="Rectangle_1107" data-name="Rectangle 1107" width="190.792" height="1.496" fill="#e1e3e6"/>
      <rect id="Rectangle_1108" data-name="Rectangle 1108" width="190.792" height="1.496" transform="translate(0 21.085)" fill="#e1e3e6"/>
      <rect id="Rectangle_1109" data-name="Rectangle 1109" width="190.792" height="1.496" transform="translate(0 42.171)" fill="#e1e3e6"/>
      <rect id="Rectangle_1110" data-name="Rectangle 1110" width="190.792" height="1.496" transform="translate(0 63.256)" fill="#e1e3e6"/>
      <rect id="Rectangle_1111" data-name="Rectangle 1111" width="190.792" height="1.496" transform="translate(0 84.341)" fill="#e1e3e6"/>
      <rect id="Rectangle_1112" data-name="Rectangle 1112" width="190.792" height="1.496" transform="translate(0 105.427)" fill="#e1e3e6"/>
      <rect id="Rectangle_1113" data-name="Rectangle 1113" width="190.792" height="1.496" transform="translate(0 126.512)" fill="#e1e3e6"/>
      <rect id="Rectangle_1114" data-name="Rectangle 1114" width="190.792" height="1.496" transform="translate(0 147.598)" fill="#e1e3e6"/>
    </g>
    <path id="Path_5232" data-name="Path 5232" d="M707.736,253.254l-139.5,139.492a.774.774,0,0,1-1.1,0L427.65,253.256a33.249,33.249,0,0,0-23.512-9.739h0v175.6a18.937,18.937,0,0,0,18.937,18.937H716.6a18.937,18.937,0,0,0,18.937-18.937v-175.6h-4.294A33.248,33.248,0,0,0,707.736,253.254Z" transform="translate(79.529 90.527)" fill="#2e58a6"/>
    <path id="Path_5233" data-name="Path 5233" d="M617.02,300.568l-48.777,48.775a.774.774,0,0,1-1.1,0l-48.025-48.025L404.128,369.041l.018,6.673a18.937,18.937,0,0,0,18.937,18.937H716.611a18.937,18.937,0,0,0,18.937-18.937v-5.966Z" transform="translate(79.522 133.93)" fill="#e7e7e6" style="mix-blend-mode: multiply;isolation: isolate"/>
    <path id="Path_5234" data-name="Path 5234" d="M735.541,382.441v-5.626L592.082,297.468a45.95,45.95,0,0,0-44.484,0L404.138,376.815v5.626a18.937,18.937,0,0,0,18.937,18.937H716.6A18.937,18.937,0,0,0,735.541,382.441Z" transform="translate(79.529 127.203)" fill="#2e58a6"/>
    <g id="Group_3116" data-name="Group 3116" transform="translate(686.734 488.223)">
      <path id="Path_5235" data-name="Path 5235" d="M552.38,344.815c0,3.515.562-2.245,11.41-2.245,8.239,0,.748,21.511-12.345,22.26,0,0-2.8.935-2.245,4.49s23.756-4.677,23.756-23.943C572.956,332.471,552.38,335.089,552.38,344.815Z" transform="translate(-496.901 -326.887)" fill="#fefefe"/>
      <path id="Path_5236" data-name="Path 5236" d="M519.466,334.009s1.521,50.055,33.041,50.055c28.505,0,31.736-50.055,31.736-50.055Z" transform="translate(-519.466 -328.852)" fill="#fefefe"/>
      <path id="Path_5237" data-name="Path 5237" d="M527.978,337.808a32.958,32.958,0,0,1-6.971-1.439c1.245,12.142,6.823,46.055,30.328,45.9a23.325,23.325,0,0,0,4.391-.449C534.8,378.041,529.358,349.971,527.978,337.808Z" transform="translate(-518.294 -327.056)" fill="#eaf4ff"/>
      <path id="Path_5238" data-name="Path 5238" d="M584.243,336.237c0,2.849-14.5,5.157-32.39,5.157s-32.388-2.308-32.388-5.157,14.5-5.157,32.388-5.157S584.243,333.388,584.243,336.237Z" transform="translate(-519.466 -331.08)" fill="#eaf4ff"/>
      <ellipse id="Ellipse_66" data-name="Ellipse 66" cx="28.91" cy="4.05" rx="28.91" ry="4.05" transform="translate(3.478 1.108)" fill="#fefefe"/>
      <path id="Path_5239" data-name="Path 5239" d="M525.134,336.105a168.9,168.9,0,0,0,44.817,0,169.1,169.1,0,0,0-44.817,0Z" transform="translate(-515.154 -328.391)" fill="#606060"/>
    </g>
    <g id="Group_3119" data-name="Group 3119" transform="translate(421.981 277.739)">
      <path id="Path_5240" data-name="Path 5240" d="M467.992,211.653c-29.673,2.328-58.509,31.877-64.1,37.9-5.749,5.877-33.874,36.1-34.768,65.853-.523,17.368,11.454,34.291,18.747,39.933L421.4,313.225s-5.411-5.39-17.245-8.7c0,0,2.928-15.116,21.068-34.152,17.115-17.96,33.585-23.2,33.585-23.2,3.877,11.66,9.521,16.8,9.521,16.8l40.452-35.522C502.794,221.443,485.315,210.3,467.992,211.653Z" transform="translate(-369.105 -211.54)" fill="#d8171c"/>
      <g id="Group_3117" data-name="Group 3117" transform="translate(11.301 96.139)">
        <path id="Path_5241" data-name="Path 5241" d="M416.109,271.354l-5.987-4.49c-3.942-3.076-14.553,3.932-23.7,15.653s-13.364,23.719-9.422,26.8l5.985,4.49Z" transform="translate(-375.523 -266.14)" fill="#a60006"/>
        <path id="Path_5242" data-name="Path 5242" d="M404.1,296.208c-9.145,11.723-19.756,18.731-23.7,15.655s.276-15.074,9.422-26.8,19.758-18.731,23.7-15.653S413.247,284.486,404.1,296.208Z" transform="translate(-372.937 -264.2)" fill="#a60006"/>
        <path id="Path_5243" data-name="Path 5243" d="M380.4,311.863c-3.942-3.078.276-15.074,9.422-26.8s19.758-18.731,23.7-15.653" transform="translate(-372.937 -264.2)" fill="none" stroke="#707070" stroke-miterlimit="10" stroke-width="1" style="mix-blend-mode: screen;isolation: isolate"/>
      </g>
      <g id="Group_3118" data-name="Group 3118" transform="translate(93.485 10.172)">
        <path id="Path_5244" data-name="Path 5244" d="M468.565,224.105l-5.045-5.525c-3.3-3.757-15.03,1.152-26.2,10.963s-17.551,20.812-14.25,24.57l5.045,5.525Z" transform="translate(-422.198 -217.317)" fill="#a60006"/>
        <path id="Path_5245" data-name="Path 5245" d="M452.135,246.288c-11.17,9.813-22.9,14.72-26.2,10.963s3.08-14.757,14.25-24.57,22.9-14.72,26.2-10.963S463.305,236.477,452.135,246.288Z" transform="translate(-420.018 -214.929)" fill="#a60006"/>
        <path id="Path_5246" data-name="Path 5246" d="M425.933,257.25c-3.3-3.758,3.08-14.757,14.25-24.57s22.9-14.72,26.2-10.963" transform="translate(-420.018 -214.929)" fill="none" stroke="#707070" stroke-miterlimit="10" stroke-width="1" style="mix-blend-mode: screen;isolation: isolate"/>
      </g>
      <path id="Path_5247" data-name="Path 5247" d="M371.55,297.215s19.951-55.368,75.817-81.554C447.367,215.661,402.725,236.111,371.55,297.215Z" transform="translate(-367.244 -208.404)" fill="#ffa1a1"/>
      <path id="Path_5248" data-name="Path 5248" d="M447.219,231.216S431.3,233.073,408.064,254.2c-16.46,14.965-24.191,35.915-24.191,35.915a18.692,18.692,0,0,1,6.51-.22c17.682-45.171,56.935-58.085,56.836-58.68Z" transform="translate(-357.869 -197.315)" fill="#a60006"/>
    </g>
    <g id="Group_3120" data-name="Group 3120" transform="translate(453.106 212.004)">
      <path id="Path_5249" data-name="Path 5249" d="M419.722,199.893a21.354,21.354,0,0,0,.812,3.139,4.9,4.9,0,0,0,.945,1.711,1.592,1.592,0,0,0,1.109.555,2.579,2.579,0,0,0,1.287-.352,3.585,3.585,0,0,0,1.69-2.2,10.109,10.109,0,0,0,.37-3.728,20.93,20.93,0,0,0-.917-4.735,29.76,29.76,0,0,0-2.2-5.238,19.15,19.15,0,0,0-3.765-5.087,12.35,12.35,0,0,0-4.576-2.775,11.6,11.6,0,0,0-5.233-.428,17.277,17.277,0,0,0-5.707,1.94,17.943,17.943,0,0,0-6.4,5.566,19.873,19.873,0,0,0-3.259,7.725,25.56,25.56,0,0,0-.055,9.013,30.55,30.55,0,0,0,3.247,9.417,24.185,24.185,0,0,0,4.795,6.481,15.8,15.8,0,0,0,5.723,3.506,14.342,14.342,0,0,0,6.363.625,19.358,19.358,0,0,0,6.742-2.217,35.377,35.377,0,0,0,3.916-2.386,33.465,33.465,0,0,0,2.951-2.342,20.069,20.069,0,0,0,2.058-2.12,12.062,12.062,0,0,0,1.21-1.71,4.9,4.9,0,0,1,1.2-1.254,2.31,2.31,0,0,1,1.1-.424,1.736,1.736,0,0,1,.979.2,3.956,3.956,0,0,1,.833.585l1.967,2.1a31.047,31.047,0,0,1-2.307,3.592,32.078,32.078,0,0,1-3.03,3.507,33.32,33.32,0,0,1-3.84,3.3,37.542,37.542,0,0,1-4.707,2.942,26.07,26.07,0,0,1-9.454,3.032,20.9,20.9,0,0,1-8.88-.9,21.926,21.926,0,0,1-7.8-4.615,29.024,29.024,0,0,1-6.191-8.128,32.966,32.966,0,0,1-2.955-7.767,33.973,33.973,0,0,1-.956-7.99,32.11,32.11,0,0,1,.963-7.809,29.848,29.848,0,0,1,2.8-7.168,27.687,27.687,0,0,1,4.548-6.1,25.243,25.243,0,0,1,6.224-4.619,21.229,21.229,0,0,1,7.742-2.418,19.432,19.432,0,0,1,7.725.7,19.781,19.781,0,0,1,6.953,3.786,22.364,22.364,0,0,1,5.45,6.872,25.733,25.733,0,0,1,2.683,7.7,21.636,21.636,0,0,1,.077,7.392,16.644,16.644,0,0,1-2.412,6.284,12.667,12.667,0,0,1-4.781,4.379,8.13,8.13,0,0,1-1.771.687,5.192,5.192,0,0,1-1.843.143,5.383,5.383,0,0,1-1.808-.516,5.712,5.712,0,0,1-1.687-1.278,13.562,13.562,0,0,1-2.345,4.872,11.407,11.407,0,0,1-3.589,2.969,7.218,7.218,0,0,1-3.106.91,6.249,6.249,0,0,1-2.821-.523,7.708,7.708,0,0,1-2.433-1.736,12.093,12.093,0,0,1-1.969-2.761,17.76,17.76,0,0,1-1.53-4.059,19.007,19.007,0,0,1-.562-4.534,19.945,19.945,0,0,1,.555-4.7,17.416,17.416,0,0,1,1.831-4.6,18.908,18.908,0,0,1,3.275-4.182,20.993,20.993,0,0,1,4.856-3.467q1.273-.673,2.321-1.115a18.154,18.154,0,0,1,2.007-.715,15.213,15.213,0,0,1,1.838-.412c.585-.092,1.2-.153,1.859-.19Zm-7.9-5.242a10.291,10.291,0,0,0-1.32.583,6.405,6.405,0,0,0-2.437,2.359,10.461,10.461,0,0,0-1.363,3.576,13.268,13.268,0,0,0-.107,4.189,12.015,12.015,0,0,0,1.319,4.173q1.476,2.786,3.356,1.791a3.986,3.986,0,0,0,1.055-.829,3.9,3.9,0,0,0,.764-1.34,6.613,6.613,0,0,0,.331-1.94,13.034,13.034,0,0,0-.225-2.655Z" transform="translate(-386.781 -174.207)" fill="#2e58a6"/>
    </g>
    <circle id="Ellipse_67" data-name="Ellipse 67" cx="6.241" cy="6.241" r="6.241" transform="translate(569.625 192.193)" fill="#ffb700"/>
    <circle id="Ellipse_68" data-name="Ellipse 68" cx="3.12" cy="3.12" r="3.12" transform="translate(438.926 498.168)" fill="#ffb700"/>
    <path id="Path_5250" data-name="Path 5250" d="M653.81,171.462a8.608,8.608,0,1,1-8.609-8.608A8.608,8.608,0,0,1,653.81,171.462Z" transform="translate(256.377 29.16)" fill="#c3f0ce"/>
    <circle id="Ellipse_69" data-name="Ellipse 69" cx="40.672" cy="40.672" r="40.672" transform="translate(536.391 485.973)" fill="#3f69d0"/>
    <path id="Path_5251" data-name="Path 5251" d="M469.955,351.317a9.2,9.2,0,1,0-9.2-9.2A9.2,9.2,0,0,0,469.955,351.317Zm-3.469,43.141c-3.221-2.932,11.89-28.151,9.908-36.362-1.444-5.98-25.515-2.051-25.764-.292,0,0,6.937-.88,8.175,2.345s-8.175,22.58-9.908,29.91,6.441,9.677,11.891,9.677c6.441,0,16.845-4.4,16.6-6.452S469.707,397.392,466.487,394.458Z" transform="translate(113.402 158.542)" fill="#f7fbfc"/>
    <g id="Group_3121" data-name="Group 3121" transform="translate(771.327 191.437)">
      <path id="Path_5252" data-name="Path 5252" d="M604.3,175.281v-.875a11.881,11.881,0,0,0-11.88-11.88H579.387a11.879,11.879,0,0,0-11.878,11.88v.875a11.878,11.878,0,0,0,11.878,11.878h13.028c.157,0,.308-.016.463-.023a12.985,12.985,0,0,0,10.637,6.018,10.455,10.455,0,0,1-5.288-7.519A11.871,11.871,0,0,0,604.3,175.281Z" transform="translate(-567.509 -162.526)" fill="#ffb700"/>
      <path id="Path_5253" data-name="Path 5253" d="M576.776,170.429a1.992,1.992,0,1,1-1.993-1.993A1.992,1.992,0,0,1,576.776,170.429Z" transform="translate(-563.49 -158.03)" fill="#fefefe"/>
      <path id="Path_5254" data-name="Path 5254" d="M580.891,170.429a1.992,1.992,0,1,1-1.993-1.993A1.992,1.992,0,0,1,580.891,170.429Z" transform="translate(-560.36 -158.03)" fill="#fefefe"/>
      <path id="Path_5255" data-name="Path 5255" d="M585.006,170.429a1.993,1.993,0,1,1-1.993-1.993A1.992,1.992,0,0,1,585.006,170.429Z" transform="translate(-557.23 -158.03)" fill="#fefefe"/>
    </g>
  </g>
</svg>
