<svg xmlns="http://www.w3.org/2000/svg" width="14.722" height="14.721" viewBox="0 0 14.722 14.721">
  <path id="Icon_ionic-ios-call" data-name="Icon ionic-ios-call" d="M18.787,16.029A12.366,12.366,0,0,0,16.2,14.3c-.774-.372-1.058-.364-1.606.031-.456.33-.751.636-1.276.521a7.613,7.613,0,0,1-2.564-1.9,7.559,7.559,0,0,1-1.9-2.564c-.111-.529.2-.82.521-1.276.395-.548.406-.832.031-1.606A12.121,12.121,0,0,0,7.684,4.927c-.563-.563-.69-.441-1-.33a5.692,5.692,0,0,0-.916.487,2.763,2.763,0,0,0-1.1,1.161c-.218.471-.471,1.349.816,3.641A20.316,20.316,0,0,0,9.056,14.65h0l0,0,0,0h0a20.4,20.4,0,0,0,4.764,3.572c2.292,1.288,3.169,1.035,3.641.816a2.716,2.716,0,0,0,1.161-1.1,5.692,5.692,0,0,0,.487-.916C19.228,16.719,19.354,16.593,18.787,16.029Z" transform="translate(-4.49 -4.502)" fill="#2e58a6"/>
</svg>
