<svg id="Group_4050" data-name="Group 4050" xmlns="http://www.w3.org/2000/svg" width="456.092" height="58.761" viewBox="0 0 456.092 58.761">
  <g id="Group_3877" data-name="Group 3877" transform="translate(65.179)">
    <path id="Path_6052" data-name="Path 6052" d="M418.1,406.082H379.185l9.9-3.9H407.6Z" transform="translate(-379.185 -402.184)" fill="#f2f2f4"/>
    <g id="Group_3873" data-name="Group 3873" transform="translate(11.403 0.64)">
      <path id="Path_6053" data-name="Path 6053" d="M398.914,403.171h-6.092c-.1,0-.186-.054-.186-.117s.083-.116.186-.116h6.092c.1,0,.188.051.188.116S399.018,403.171,398.914,403.171Z" transform="translate(-392.636 -402.938)" fill="#bec3c9"/>
    </g>
    <g id="Group_3874" data-name="Group 3874" transform="translate(11.403 1.177)">
      <path id="Path_6054" data-name="Path 6054" d="M398.914,403.807h-6.092c-.1,0-.186-.054-.186-.118s.083-.117.186-.117h6.092c.1,0,.188.055.188.117S399.018,403.807,398.914,403.807Z" transform="translate(-392.636 -403.572)" fill="#bec3c9"/>
    </g>
    <g id="Group_3875" data-name="Group 3875" transform="translate(19.95 0.64)">
      <path id="Path_6055" data-name="Path 6055" d="M409,403.171H402.9c-.1,0-.186-.054-.186-.117s.082-.116.186-.116H409c.1,0,.188.051.188.116S409.1,403.171,409,403.171Z" transform="translate(-402.718 -402.938)" fill="#bec3c9"/>
    </g>
    <g id="Group_3876" data-name="Group 3876" transform="translate(19.95 1.177)">
      <path id="Path_6056" data-name="Path 6056" d="M409,403.807H402.9c-.1,0-.186-.054-.186-.118s.082-.117.186-.117H409c.1,0,.188.055.188.117S409.1,403.807,409,403.807Z" transform="translate(-402.718 -403.572)" fill="#bec3c9"/>
    </g>
  </g>
  <g id="Group_3882" data-name="Group 3882" transform="translate(108.288)">
    <path id="Path_6057" data-name="Path 6057" d="M468.951,406.082H430.037l9.9-3.9h18.522Z" transform="translate(-430.037 -402.184)" fill="#f2f2f4"/>
    <g id="Group_3878" data-name="Group 3878" transform="translate(11.401 0.64)">
      <path id="Path_6058" data-name="Path 6058" d="M449.766,403.171h-6.091c-.1,0-.189-.054-.189-.117s.085-.116.189-.116h6.091c.1,0,.186.051.186.116S449.87,403.171,449.766,403.171Z" transform="translate(-443.486 -402.938)" fill="#bec3c9"/>
    </g>
    <g id="Group_3879" data-name="Group 3879" transform="translate(11.401 1.177)">
      <path id="Path_6059" data-name="Path 6059" d="M449.766,403.807h-6.091c-.1,0-.189-.054-.189-.118s.085-.117.189-.117h6.091c.1,0,.186.055.186.117S449.87,403.807,449.766,403.807Z" transform="translate(-443.486 -403.572)" fill="#bec3c9"/>
    </g>
    <g id="Group_3880" data-name="Group 3880" transform="translate(19.948 0.64)">
      <path id="Path_6060" data-name="Path 6060" d="M459.848,403.171h-6.092c-.1,0-.188-.054-.188-.117s.086-.116.188-.116h6.092c.1,0,.186.051.186.116S459.951,403.171,459.848,403.171Z" transform="translate(-453.568 -402.938)" fill="#bec3c9"/>
    </g>
    <g id="Group_3881" data-name="Group 3881" transform="translate(19.948 1.177)">
      <path id="Path_6061" data-name="Path 6061" d="M459.848,403.807h-6.092c-.1,0-.188-.054-.188-.118s.086-.117.188-.117h6.092c.1,0,.186.055.186.117S459.951,403.807,459.848,403.807Z" transform="translate(-453.568 -403.572)" fill="#bec3c9"/>
    </g>
  </g>
  <g id="Group_3887" data-name="Group 3887" transform="translate(313.6)">
    <path id="Path_6062" data-name="Path 6062" d="M711.144,406.082H672.229l9.9-3.9h18.522Z" transform="translate(-672.229 -402.184)" fill="#f2f2f4"/>
    <g id="Group_3883" data-name="Group 3883" transform="translate(11.402 0.64)">
      <path id="Path_6063" data-name="Path 6063" d="M691.957,403.171h-6.091c-.1,0-.187-.054-.187-.117s.085-.116.187-.116h6.091c.107,0,.189.051.189.116S692.064,403.171,691.957,403.171Z" transform="translate(-685.679 -402.938)" fill="#bec3c9"/>
    </g>
    <g id="Group_3884" data-name="Group 3884" transform="translate(11.402 1.177)">
      <path id="Path_6064" data-name="Path 6064" d="M691.957,403.807h-6.091c-.1,0-.187-.054-.187-.118s.085-.117.187-.117h6.091c.107,0,.189.055.189.117S692.064,403.807,691.957,403.807Z" transform="translate(-685.679 -403.572)" fill="#bec3c9"/>
    </g>
    <g id="Group_3885" data-name="Group 3885" transform="translate(19.949 0.64)">
      <path id="Path_6065" data-name="Path 6065" d="M702.041,403.171h-6.092c-.1,0-.188-.054-.188-.117s.084-.116.188-.116h6.092c.1,0,.186.051.186.116S702.143,403.171,702.041,403.171Z" transform="translate(-695.761 -402.938)" fill="#bec3c9"/>
    </g>
    <g id="Group_3886" data-name="Group 3886" transform="translate(19.949 1.177)">
      <path id="Path_6066" data-name="Path 6066" d="M702.041,403.807h-6.092c-.1,0-.188-.054-.188-.118s.084-.117.188-.117h6.092c.1,0,.186.055.186.117S702.143,403.807,702.041,403.807Z" transform="translate(-695.761 -403.572)" fill="#bec3c9"/>
    </g>
  </g>
  <g id="Group_3892" data-name="Group 3892" transform="translate(356.708)">
    <path id="Path_6067" data-name="Path 6067" d="M762,406.082H723.08l9.9-3.9H751.5Z" transform="translate(-723.08 -402.184)" fill="#f2f2f4"/>
    <g id="Group_3888" data-name="Group 3888" transform="translate(11.402 0.64)">
      <path id="Path_6068" data-name="Path 6068" d="M742.81,403.171h-6.091c-.105,0-.189-.054-.189-.117s.084-.116.189-.116h6.091c.1,0,.187.051.187.116S742.914,403.171,742.81,403.171Z" transform="translate(-736.53 -402.938)" fill="#bec3c9"/>
    </g>
    <g id="Group_3889" data-name="Group 3889" transform="translate(11.402 1.177)">
      <path id="Path_6069" data-name="Path 6069" d="M742.81,403.807h-6.091c-.105,0-.189-.054-.189-.118s.084-.117.189-.117h6.091c.1,0,.187.055.187.117S742.914,403.807,742.81,403.807Z" transform="translate(-736.53 -403.572)" fill="#bec3c9"/>
    </g>
    <g id="Group_3890" data-name="Group 3890" transform="translate(19.95 0.64)">
      <path id="Path_6070" data-name="Path 6070" d="M752.891,403.171H746.8c-.1,0-.186-.054-.186-.117s.084-.116.186-.116h6.092c.1,0,.188.051.188.116S753,403.171,752.891,403.171Z" transform="translate(-746.614 -402.938)" fill="#bec3c9"/>
    </g>
    <g id="Group_3891" data-name="Group 3891" transform="translate(19.95 1.177)">
      <path id="Path_6071" data-name="Path 6071" d="M752.891,403.807H746.8c-.1,0-.186-.054-.186-.118s.084-.117.186-.117h6.092c.1,0,.188.055.188.117S753,403.807,752.891,403.807Z" transform="translate(-746.614 -403.572)" fill="#bec3c9"/>
    </g>
  </g>
  <g id="Group_3897" data-name="Group 3897" transform="translate(161.787)">
    <path id="Path_6072" data-name="Path 6072" d="M532.061,406.082H493.146l9.9-3.9h18.522Z" transform="translate(-493.146 -402.184)" fill="#f2f2f4"/>
    <g id="Group_3893" data-name="Group 3893" transform="translate(11.402 0.64)">
      <path id="Path_6073" data-name="Path 6073" d="M512.876,403.171h-6.092c-.1,0-.187-.054-.187-.117s.084-.116.187-.116h6.092c.1,0,.188.051.188.116S512.979,403.171,512.876,403.171Z" transform="translate(-506.597 -402.938)" fill="#bec3c9"/>
    </g>
    <g id="Group_3894" data-name="Group 3894" transform="translate(11.402 1.177)">
      <path id="Path_6074" data-name="Path 6074" d="M512.876,403.807h-6.092c-.1,0-.187-.054-.187-.118s.084-.117.187-.117h6.092c.1,0,.188.055.188.117S512.979,403.807,512.876,403.807Z" transform="translate(-506.597 -403.572)" fill="#bec3c9"/>
    </g>
    <g id="Group_3895" data-name="Group 3895" transform="translate(19.949 0.64)">
      <path id="Path_6075" data-name="Path 6075" d="M522.957,403.171h-6.093c-.1,0-.186-.054-.186-.117s.082-.116.186-.116h6.093c.1,0,.188.051.188.116S523.061,403.171,522.957,403.171Z" transform="translate(-516.679 -402.938)" fill="#bec3c9"/>
    </g>
    <g id="Group_3896" data-name="Group 3896" transform="translate(19.949 1.177)">
      <path id="Path_6076" data-name="Path 6076" d="M522.957,403.807h-6.093c-.1,0-.186-.054-.186-.118s.082-.117.186-.117h6.093c.1,0,.188.055.188.117S523.061,403.807,522.957,403.807Z" transform="translate(-516.679 -403.572)" fill="#bec3c9"/>
    </g>
  </g>
  <g id="Group_3902" data-name="Group 3902" transform="translate(204.895)">
    <path id="Path_6077" data-name="Path 6077" d="M582.914,406.082H544l9.9-3.9h18.522Z" transform="translate(-543.998 -402.184)" fill="#f2f2f4"/>
    <g id="Group_3898" data-name="Group 3898" transform="translate(11.402 0.64)">
      <path id="Path_6078" data-name="Path 6078" d="M563.729,403.171h-6.092c-.1,0-.189-.054-.189-.117s.085-.116.189-.116h6.092c.1,0,.187.051.187.116S563.831,403.171,563.729,403.171Z" transform="translate(-557.448 -402.938)" fill="#bec3c9"/>
    </g>
    <g id="Group_3899" data-name="Group 3899" transform="translate(11.402 1.177)">
      <path id="Path_6079" data-name="Path 6079" d="M563.729,403.807h-6.092c-.1,0-.189-.054-.189-.118s.085-.117.189-.117h6.092c.1,0,.187.055.187.117S563.831,403.807,563.729,403.807Z" transform="translate(-557.448 -403.572)" fill="#bec3c9"/>
    </g>
    <g id="Group_3900" data-name="Group 3900" transform="translate(19.95 0.64)">
      <path id="Path_6080" data-name="Path 6080" d="M573.809,403.171h-6.092c-.1,0-.187-.054-.187-.117s.083-.116.187-.116h6.092c.1,0,.186.051.186.116S573.913,403.171,573.809,403.171Z" transform="translate(-567.531 -402.938)" fill="#bec3c9"/>
    </g>
    <g id="Group_3901" data-name="Group 3901" transform="translate(19.95 1.177)">
      <path id="Path_6081" data-name="Path 6081" d="M573.809,403.807h-6.092c-.1,0-.187-.054-.187-.118s.083-.117.187-.117h6.092c.1,0,.186.055.186.117S573.913,403.807,573.809,403.807Z" transform="translate(-567.531 -403.572)" fill="#bec3c9"/>
    </g>
  </g>
  <g id="Group_3907" data-name="Group 3907" transform="translate(249.98)">
    <path id="Path_6082" data-name="Path 6082" d="M636.1,406.082H597.182l9.9-3.9H625.6Z" transform="translate(-597.182 -402.184)" fill="#f2f2f4"/>
    <g id="Group_3903" data-name="Group 3903" transform="translate(11.401 0.64)">
      <path id="Path_6083" data-name="Path 6083" d="M616.911,403.171h-6.093c-.1,0-.187-.054-.187-.117s.083-.116.187-.116h6.093c.1,0,.186.051.186.116S617.013,403.171,616.911,403.171Z" transform="translate(-610.631 -402.938)" fill="#bec3c9"/>
    </g>
    <g id="Group_3904" data-name="Group 3904" transform="translate(11.401 1.177)">
      <path id="Path_6084" data-name="Path 6084" d="M616.911,403.807h-6.093c-.1,0-.187-.054-.187-.118s.083-.117.187-.117h6.093c.1,0,.186.055.186.117S617.013,403.807,616.911,403.807Z" transform="translate(-610.631 -403.572)" fill="#bec3c9"/>
    </g>
    <g id="Group_3905" data-name="Group 3905" transform="translate(19.947 0.64)">
      <path id="Path_6085" data-name="Path 6085" d="M626.991,403.171H620.9c-.105,0-.19-.054-.19-.117s.085-.116.19-.116h6.09c.1,0,.188.051.188.116S627.1,403.171,626.991,403.171Z" transform="translate(-620.711 -402.938)" fill="#bec3c9"/>
    </g>
    <g id="Group_3906" data-name="Group 3906" transform="translate(19.947 1.177)">
      <path id="Path_6086" data-name="Path 6086" d="M626.991,403.807H620.9c-.105,0-.19-.054-.19-.118s.085-.117.19-.117h6.09c.1,0,.188.055.188.117S627.1,403.807,626.991,403.807Z" transform="translate(-620.711 -403.572)" fill="#bec3c9"/>
    </g>
  </g>
  <g id="Group_3915" data-name="Group 3915" transform="translate(210.878 51.207)">
    <rect id="Rectangle_1438" data-name="Rectangle 1438" width="27.634" height="4.657" transform="translate(3.56 0.151)" fill="#34373a"/>
    <g id="Group_3908" data-name="Group 3908" transform="translate(4.656 0.377)">
      <rect id="Rectangle_1439" data-name="Rectangle 1439" width="0.551" height="7.394" transform="matrix(0.401, -0.916, 0.916, 0.401, 0.153, 0.505)" fill="#494c4f"/>
      <rect id="Rectangle_1440" data-name="Rectangle 1440" width="0.38" height="7.394" transform="matrix(0.401, -0.916, 0.916, 0.401, 0, 0.853)" fill="#222a30"/>
    </g>
    <g id="Group_3909" data-name="Group 3909" transform="translate(13.055 0.377)">
      <path id="Path_6087" data-name="Path 6087" d="M573.408,466.5l-6.77-2.965.219-.505L573.631,466Z" transform="translate(-566.483 -463.033)" fill="#494c4f"/>
      <path id="Path_6088" data-name="Path 6088" d="M573.38,466.594l-6.77-2.965-.155.347,6.774,2.966Z" transform="translate(-566.455 -463.124)" fill="#222a30"/>
    </g>
    <g id="Group_3910" data-name="Group 3910" transform="translate(21.456 0.377)">
      <path id="Path_6089" data-name="Path 6089" d="M583.316,466.5l-6.773-2.965.223-.505L583.539,466Z" transform="translate(-576.392 -463.033)" fill="#494c4f"/>
      <path id="Path_6090" data-name="Path 6090" d="M583.289,466.594l-6.773-2.965-.151.347,6.772,2.966Z" transform="translate(-576.365 -463.124)" fill="#222a30"/>
    </g>
    <g id="Group_3911" data-name="Group 3911">
      <path id="Path_6091" data-name="Path 6091" d="M558.609,466.366a3.777,3.777,0,1,1-3.777-3.777A3.778,3.778,0,0,1,558.609,466.366Z" transform="translate(-551.055 -462.589)" fill="#091308"/>
      <path id="Path_6092" data-name="Path 6092" d="M557.784,466.546a2.773,2.773,0,1,1-2.772-2.772A2.772,2.772,0,0,1,557.784,466.546Z" transform="translate(-551.235 -462.769)" fill="#222428"/>
      <path id="Path_6093" data-name="Path 6093" d="M557.146,466.686a2,2,0,1,1-1.995-2A2,2,0,0,1,557.146,466.686Z" transform="translate(-551.375 -462.909)" fill="#34373a"/>
    </g>
    <g id="Group_3912" data-name="Group 3912" transform="translate(8.927)">
      <path id="Path_6094" data-name="Path 6094" d="M569.139,466.366a3.777,3.777,0,1,1-3.777-3.777A3.777,3.777,0,0,1,569.139,466.366Z" transform="translate(-561.585 -462.589)" fill="#091308"/>
      <path id="Path_6095" data-name="Path 6095" d="M568.315,466.546a2.772,2.772,0,1,1-2.772-2.772A2.772,2.772,0,0,1,568.315,466.546Z" transform="translate(-561.766 -462.769)" fill="#222428"/>
      <path id="Path_6096" data-name="Path 6096" d="M567.678,466.686a2,2,0,1,1-2-2A2,2,0,0,1,567.678,466.686Z" transform="translate(-561.905 -462.909)" fill="#34373a"/>
    </g>
    <g id="Group_3913" data-name="Group 3913" transform="translate(17.855)">
      <path id="Path_6097" data-name="Path 6097" d="M579.672,466.366a3.777,3.777,0,1,1-3.777-3.777A3.777,3.777,0,0,1,579.672,466.366Z" transform="translate(-572.117 -462.589)" fill="#091308"/>
      <path id="Path_6098" data-name="Path 6098" d="M578.848,466.546a2.772,2.772,0,1,1-2.773-2.772A2.773,2.773,0,0,1,578.848,466.546Z" transform="translate(-572.298 -462.769)" fill="#222428"/>
      <path id="Path_6099" data-name="Path 6099" d="M578.212,466.686a2,2,0,1,1-2-2A2,2,0,0,1,578.212,466.686Z" transform="translate(-572.437 -462.909)" fill="#34373a"/>
    </g>
    <g id="Group_3914" data-name="Group 3914" transform="translate(26.782)">
      <path id="Path_6100" data-name="Path 6100" d="M590.2,466.366a3.777,3.777,0,1,1-3.777-3.777A3.777,3.777,0,0,1,590.2,466.366Z" transform="translate(-582.648 -462.589)" fill="#091308"/>
      <path id="Path_6101" data-name="Path 6101" d="M589.378,466.546a2.771,2.771,0,1,1-2.771-2.772A2.772,2.772,0,0,1,589.378,466.546Z" transform="translate(-582.829 -462.769)" fill="#222428"/>
      <path id="Path_6102" data-name="Path 6102" d="M588.745,466.686a2,2,0,1,1-2-2A2,2,0,0,1,588.745,466.686Z" transform="translate(-582.968 -462.909)" fill="#34373a"/>
    </g>
  </g>
  <g id="Group_3916" data-name="Group 3916" transform="translate(299.791 2.022)">
    <rect id="Rectangle_1441" data-name="Rectangle 1441" width="4.564" height="51.675" fill="#020401"/>
    <rect id="Rectangle_1442" data-name="Rectangle 1442" width="1.517" height="51.675" transform="translate(1.523)" fill="#2d2d2d"/>
  </g>
  <rect id="Rectangle_1443" data-name="Rectangle 1443" width="143.487" height="51.671" transform="translate(156.3 2.032)" fill="#f2f2f4"/>
  <g id="Group_3923" data-name="Group 3923" transform="translate(163.357 10.835)">
    <g id="Group_3919" data-name="Group 3919">
      <g id="Group_3918" data-name="Group 3918">
        <g id="Group_3917" data-name="Group 3917">
          <path id="Path_6103" data-name="Path 6103" d="M509.766,417.12v25.586a1.606,1.606,0,0,1-1.611,1.612h-11a1.611,1.611,0,0,1-1.611-1.612V417.12a1.618,1.618,0,0,1,1.611-1.612h11A1.612,1.612,0,0,1,509.766,417.12Z" transform="translate(-495.081 -415.048)" fill="#f2f2f4"/>
          <path id="Path_6104" data-name="Path 6104" d="M509.683,442.623V417.037a1.612,1.612,0,0,0-1.611-1.612h-11a1.618,1.618,0,0,0-1.611,1.612v25.586a1.611,1.611,0,0,0,1.611,1.612h11A1.606,1.606,0,0,0,509.683,442.623Zm.46-25.586v25.586a2.071,2.071,0,0,1-2.072,2.073h-11A2.078,2.078,0,0,1,495,442.623V417.037a2.076,2.076,0,0,1,2.071-2.072h11A2.07,2.07,0,0,1,510.144,417.037Z" transform="translate(-494.998 -414.965)" fill="#020401"/>
        </g>
      </g>
    </g>
    <g id="Group_3922" data-name="Group 3922" transform="translate(2.917 4.309)">
      <g id="Group_3921" data-name="Group 3921">
        <g id="Group_3920" data-name="Group 3920">
          <path id="Path_6105" data-name="Path 6105" d="M507.382,424.783v5.576a4.2,4.2,0,0,1-4.2,4.2,3.863,3.863,0,0,1-1.344-.23,3.986,3.986,0,0,1-1.417-.81,4.536,4.536,0,0,1-.505-.516,4.191,4.191,0,0,1-.929-2.642v-5.668a4.282,4.282,0,0,1,.21-1.241,4.227,4.227,0,0,1,3.893-2.861h.092a4.211,4.211,0,0,1,3.984,2.861A4.058,4.058,0,0,1,507.382,424.783Z" transform="translate(-498.522 -420.13)" fill="#134960"/>
          <path id="Path_6106" data-name="Path 6106" d="M507.3,430.277V424.7a4.2,4.2,0,0,0-8.4,0v5.576a4.2,4.2,0,0,0,8.4,0Zm-4.2-10.229a4.66,4.66,0,0,1,4.664,4.652v5.576a4.66,4.66,0,0,1-9.32,0V424.7A4.659,4.659,0,0,1,503.095,420.048Z" transform="translate(-498.439 -420.048)" fill="#020401"/>
        </g>
      </g>
    </g>
    <path id="Path_6107" data-name="Path 6107" d="M507.382,424.783v.747L499.911,433a4.191,4.191,0,0,1-.929-2.642v-5.668l4.1-4.1h.092A4.208,4.208,0,0,1,507.382,424.783Z" transform="translate(-495.605 -415.821)" fill="#30768c"/>
    <path id="Path_6108" data-name="Path 6108" d="M507.64,427.619v2.23l-5.548,5.548a3.986,3.986,0,0,1-1.417-.81Z" transform="translate(-495.862 -416.892)" fill="#30768c"/>
    <path id="Path_6109" data-name="Path 6109" d="M507.2,423.45H499.23a4.227,4.227,0,0,1,3.893-2.861h.092A4.211,4.211,0,0,1,507.2,423.45Z" transform="translate(-495.642 -415.821)" fill="#30768c" style="mix-blend-mode: multiply;isolation: isolate"/>
  </g>
  <g id="Group_3930" data-name="Group 3930" transform="translate(277.446 10.835)">
    <g id="Group_3926" data-name="Group 3926">
      <g id="Group_3925" data-name="Group 3925">
        <g id="Group_3924" data-name="Group 3924">
          <path id="Path_6110" data-name="Path 6110" d="M644.348,417.12v25.586a1.606,1.606,0,0,1-1.609,1.612H631.734a1.611,1.611,0,0,1-1.609-1.612V417.12a1.618,1.618,0,0,1,1.609-1.612h11.005A1.612,1.612,0,0,1,644.348,417.12Z" transform="translate(-629.664 -415.048)" fill="#f2f2f4"/>
          <path id="Path_6111" data-name="Path 6111" d="M644.265,442.623V417.037a1.612,1.612,0,0,0-1.609-1.612H631.651a1.618,1.618,0,0,0-1.609,1.612v25.586a1.611,1.611,0,0,0,1.609,1.612h11.005A1.606,1.606,0,0,0,644.265,442.623Zm.46-25.586v25.586a2.071,2.071,0,0,1-2.069,2.073H631.651a2.077,2.077,0,0,1-2.07-2.073V417.037a2.076,2.076,0,0,1,2.07-2.072h11.005A2.069,2.069,0,0,1,644.726,417.037Z" transform="translate(-629.581 -414.965)" fill="#020401"/>
        </g>
      </g>
    </g>
    <g id="Group_3929" data-name="Group 3929" transform="translate(2.918 4.309)">
      <g id="Group_3928" data-name="Group 3928">
        <g id="Group_3927" data-name="Group 3927">
          <path id="Path_6112" data-name="Path 6112" d="M641.966,424.783v5.576a4.2,4.2,0,0,1-4.206,4.2,3.873,3.873,0,0,1-1.344-.23,3.978,3.978,0,0,1-1.417-.81,4.844,4.844,0,0,1-.505-.516,4.19,4.19,0,0,1-.928-2.642v-5.668a4.167,4.167,0,0,1,4.1-4.1h.093a4.209,4.209,0,0,1,3.984,2.861A4.038,4.038,0,0,1,641.966,424.783Z" transform="translate(-633.106 -420.13)" fill="#134960"/>
          <path id="Path_6113" data-name="Path 6113" d="M641.883,430.277V424.7a4.2,4.2,0,0,0-8.4,0v5.576a4.2,4.2,0,0,0,8.4,0Zm-4.206-10.229a4.659,4.659,0,0,1,4.663,4.652v5.576a4.659,4.659,0,0,1-9.318,0V424.7A4.659,4.659,0,0,1,637.678,420.048Z" transform="translate(-633.023 -420.048)" fill="#020401"/>
        </g>
      </g>
    </g>
    <path id="Path_6114" data-name="Path 6114" d="M641.966,424.783v.747L634.494,433a4.19,4.19,0,0,1-.928-2.642v-5.668l4.1-4.1h.093A4.208,4.208,0,0,1,641.966,424.783Z" transform="translate(-630.188 -415.821)" fill="#30768c"/>
    <path id="Path_6115" data-name="Path 6115" d="M642.224,427.619v2.23l-5.549,5.548a3.978,3.978,0,0,1-1.417-.81Z" transform="translate(-630.445 -416.892)" fill="#30768c"/>
    <path id="Path_6116" data-name="Path 6116" d="M641.782,423.45h-7.969a4.226,4.226,0,0,1,3.892-2.861h.093A4.209,4.209,0,0,1,641.782,423.45Z" transform="translate(-630.225 -415.821)" fill="#30768c" style="mix-blend-mode: multiply;isolation: isolate"/>
  </g>
  <g id="Group_3931" data-name="Group 3931" transform="translate(181.041 14.773)">
    <path id="Path_6117" data-name="Path 6117" d="M601.74,420.048H516.294V434.7h93.029V420.048Z" transform="translate(-515.926 -419.677)" fill="#134960"/>
    <path id="Path_6118" data-name="Path 6118" d="M557.636,420.048,542.978,434.7H532.867l14.647-14.655Z" transform="translate(-518.449 -419.677)" fill="#30768c"/>
    <path id="Path_6119" data-name="Path 6119" d="M586.755,420.048,572.1,434.7h-4.49l14.656-14.655Z" transform="translate(-523.74 -419.677)" fill="#30768c"/>
    <path id="Path_6120" data-name="Path 6120" d="M529.523,420.048l-13.229,13.219V420.048Z" transform="translate(-515.926 -419.677)" fill="#30768c"/>
    <path id="Path_6121" data-name="Path 6121" d="M535.743,420.048,521.086,434.7H516.6l14.657-14.655Z" transform="translate(-515.972 -419.677)" fill="#30768c"/>
    <path id="Path_6122" data-name="Path 6122" d="M577.539,420.024h-7.664v-.131h-7.582l-14.657,14.656h15.393l6.846-6.845v-.022Z" transform="translate(-520.698 -419.653)" fill="#30768c"/>
    <path id="Path_6123" data-name="Path 6123" d="M565.644,434.27H516.6V420.347h49.048l.737-.737H515.859v15.4h50.522Z" transform="translate(-515.859 -419.61)" fill="#0f1219"/>
    <path id="Path_6124" data-name="Path 6124" d="M625.166,431.639v4.673l-.157.156h-4.673Z" transform="translate(-531.768 -421.442)" fill="#30768c"/>
    <path id="Path_6125" data-name="Path 6125" d="M608.647,420.048,593.988,434.7h-10.11l14.647-14.655Z" transform="translate(-526.217 -419.677)" fill="#30768c"/>
    <path id="Path_6126" data-name="Path 6126" d="M622.038,420.048v7.809l-6.845,6.845H599.8l14.656-14.655Z" transform="translate(-528.641 -419.677)" fill="#30768c"/>
    <path id="Path_6127" data-name="Path 6127" d="M566.836,419.61l-.183.737h49.97V434.27h-49.97l.183.736h50.522v-15.4Z" transform="translate(-523.594 -419.61)" fill="#0f1219"/>
    <path id="Path_6128" data-name="Path 6128" d="M601.74,420.048H516.294v3.32h93.029v-3.32Z" transform="translate(-515.926 -419.677)" fill="#30768c" style="mix-blend-mode: multiply;isolation: isolate"/>
  </g>
  <rect id="Rectangle_1444" data-name="Rectangle 1444" width="143.487" height="5.576" transform="translate(156.3 2.032)" fill="#26c5d2"/>
  <rect id="Rectangle_1445" data-name="Rectangle 1445" width="143.487" height="8.363" transform="translate(156.3 45.339)" fill="#e1f3f9"/>
  <rect id="Rectangle_1446" data-name="Rectangle 1446" width="144.233" height="0.46" transform="translate(155.554 49.019)" fill="#bec3c9"/>
  <g id="Group_3951" data-name="Group 3951" transform="translate(0 2.021)">
    <g id="Group_3939" data-name="Group 3939" transform="translate(34.311 49.186)">
      <rect id="Rectangle_1447" data-name="Rectangle 1447" width="27.633" height="4.657" transform="translate(3.563 0.151)" fill="#34373a"/>
      <g id="Group_3932" data-name="Group 3932" transform="translate(4.659 0.377)">
        <path id="Path_6129" data-name="Path 6129" d="M355.219,466.5l-6.772-2.965.222-.505L355.442,466Z" transform="translate(-348.295 -463.033)" fill="#494c4f"/>
        <path id="Path_6130" data-name="Path 6130" d="M355.192,466.594l-6.772-2.965-.152.347,6.774,2.966Z" transform="translate(-348.268 -463.124)" fill="#222a30"/>
      </g>
      <g id="Group_3933" data-name="Group 3933" transform="translate(13.058 0.377)">
        <rect id="Rectangle_1448" data-name="Rectangle 1448" width="0.551" height="7.393" transform="translate(0.153 0.505) rotate(-66.36)" fill="#494c4f"/>
        <path id="Path_6131" data-name="Path 6131" d="M365.1,466.594l-6.773-2.965-.152.347,6.774,2.966Z" transform="translate(-358.176 -463.124)" fill="#222a30"/>
      </g>
      <g id="Group_3934" data-name="Group 3934" transform="translate(21.459 0.377)">
        <path id="Path_6132" data-name="Path 6132" d="M375.037,466.5l-6.771-2.965.22-.505L375.259,466Z" transform="translate(-368.113 -463.033)" fill="#494c4f"/>
        <rect id="Rectangle_1449" data-name="Rectangle 1449" width="0.379" height="7.392" transform="translate(0 0.852) rotate(-66.355)" fill="#222a30"/>
      </g>
      <g id="Group_3935" data-name="Group 3935">
        <path id="Path_6133" data-name="Path 6133" d="M350.329,466.366a3.778,3.778,0,1,1-3.779-3.777A3.778,3.778,0,0,1,350.329,466.366Z" transform="translate(-342.772 -462.589)" fill="#091308"/>
        <path id="Path_6134" data-name="Path 6134" d="M349.5,466.546a2.772,2.772,0,1,1-2.773-2.772A2.772,2.772,0,0,1,349.5,466.546Z" transform="translate(-342.953 -462.769)" fill="#222428"/>
        <path id="Path_6135" data-name="Path 6135" d="M348.867,466.686a2,2,0,1,1-2-2A2,2,0,0,1,348.867,466.686Z" transform="translate(-343.092 -462.909)" fill="#34373a"/>
      </g>
      <g id="Group_3936" data-name="Group 3936" transform="translate(8.93)">
        <path id="Path_6136" data-name="Path 6136" d="M360.86,466.366a3.777,3.777,0,1,1-3.777-3.777A3.776,3.776,0,0,1,360.86,466.366Z" transform="translate(-353.306 -462.589)" fill="#091308"/>
        <path id="Path_6137" data-name="Path 6137" d="M360.035,466.546a2.772,2.772,0,1,1-2.772-2.772A2.773,2.773,0,0,1,360.035,466.546Z" transform="translate(-353.486 -462.769)" fill="#222428"/>
        <path id="Path_6138" data-name="Path 6138" d="M359.4,466.686a2,2,0,1,1-2-2A2,2,0,0,1,359.4,466.686Z" transform="translate(-353.626 -462.909)" fill="#34373a"/>
      </g>
      <g id="Group_3937" data-name="Group 3937" transform="translate(17.858)">
        <path id="Path_6139" data-name="Path 6139" d="M371.391,466.366a3.777,3.777,0,1,1-3.777-3.777A3.777,3.777,0,0,1,371.391,466.366Z" transform="translate(-363.838 -462.589)" fill="#091308"/>
        <path id="Path_6140" data-name="Path 6140" d="M370.567,466.546a2.772,2.772,0,1,1-2.773-2.772A2.773,2.773,0,0,1,370.567,466.546Z" transform="translate(-364.018 -462.769)" fill="#222428"/>
        <path id="Path_6141" data-name="Path 6141" d="M369.931,466.686a2,2,0,1,1-2-2A2,2,0,0,1,369.931,466.686Z" transform="translate(-364.158 -462.909)" fill="#34373a"/>
      </g>
      <g id="Group_3938" data-name="Group 3938" transform="translate(26.786)">
        <path id="Path_6142" data-name="Path 6142" d="M381.924,466.366a3.777,3.777,0,1,1-3.777-3.777A3.777,3.777,0,0,1,381.924,466.366Z" transform="translate(-374.37 -462.589)" fill="#091308"/>
        <path id="Path_6143" data-name="Path 6143" d="M381.1,466.546a2.772,2.772,0,1,1-2.772-2.772A2.772,2.772,0,0,1,381.1,466.546Z" transform="translate(-374.551 -462.769)" fill="#222428"/>
        <path id="Path_6144" data-name="Path 6144" d="M380.462,466.686a2,2,0,1,1-1.995-2A1.994,1.994,0,0,1,380.462,466.686Z" transform="translate(-374.69 -462.909)" fill="#34373a"/>
      </g>
    </g>
    <path id="Path_6145" data-name="Path 6145" d="M454.035,404.568v51.691H353.285c-12.751,0-31.825-1.445-41.623-3.655-.387-.089-.754-.173-1.113-.264-.406-.1-.793-.2-1.159-.313-.1-.029-.212-.056-.313-.092-.157-.046-.305-.092-.452-.138-.24-.075-.459-.147-.671-.221-.011,0-.019-.008-.029-.008a9.016,9.016,0,0,1-1.767-.83,8.534,8.534,0,0,1-2.815-2.85c-1.5-2.548-1.344-5.786.193-9.331.075-.164.148-.338.239-.5A.1.1,0,0,0,303.8,438c.074-.155.148-.3.231-.462a19.089,19.089,0,0,1,.948-1.729c.182-.313.375-.624.587-.938,5.686-8.665,18.431-18.354,34.845-24.392.312-.11.625-.23.937-.33a94.8,94.8,0,0,1,27.4-5.474c1.434-.075,2.869-.112,4.323-.112Z" transform="translate(-302.298 -404.568)" fill="#f2f2f4"/>
    <path id="Path_6146" data-name="Path 6146" d="M369.055,404.7c-.884,3.08,3.548,5.474-1.575,5.474s-12.7,2.169-22.252,9.125c-5.08,3.7-12.579,10.45-17.106,14.627-2.345,2.165-3.648,3.637-11.288,3.637h-12.5a19.093,19.093,0,0,1,.948-1.729c.182-.313.376-.624.587-.938,5.686-8.665,18.431-18.354,34.845-24.392.312-.11.625-.23.937-.33A94.8,94.8,0,0,1,369.055,404.7Z" transform="translate(-302.609 -404.588)" fill="#26c5d2"/>
    <path id="Path_6147" data-name="Path 6147" d="M379.386,420.048V434.7H334.91c1.674-1.777,7.157-7.589,12.825-11.335a25.887,25.887,0,0,1,4.583-2.485,10.775,10.775,0,0,1,3.837-.835Z" transform="translate(-307.264 -406.925)" fill="#134960"/>
    <path id="Path_6148" data-name="Path 6148" d="M342.754,414.009c-.249,3.588-4.98,7.581-10.224,11.712-1.4,1.086-13.965,10.682-26.46,11.08l-.616.016c.182-.313.375-.624.587-.938,5.686-8.665,18.431-18.354,34.845-24.392.312-.11.625-.23.937-.33A3.933,3.933,0,0,1,342.754,414.009Z" transform="translate(-302.779 -405.571)" fill="#020401"/>
    <path id="Path_6149" data-name="Path 6149" d="M337.4,420.609c-1.592,1.464-3.461,2.962-5.337,4.445a58.192,58.192,0,0,1-5.8,3.948c-1.463.883-3.073,1.773-4.776,2.6a50.125,50.125,0,0,1-7.168,2.88c-.966.3-1.94.553-2.915.764a27.793,27.793,0,0,1-5.264.689,41.907,41.907,0,0,1,5.982-7.036,77.135,77.135,0,0,1,18.4-12.772c.276-.148.56-.3.845-.432,1.077-.534,2.172-1.059,3.285-1.546,2.042-.93,4.15-1.8,6.332-2.605a3.068,3.068,0,0,1,.258.3C343.143,414.234,340.928,417.344,337.4,420.609Z" transform="translate(-302.884 -405.631)" fill="#134960"/>
    <path id="Path_6150" data-name="Path 6150" d="M330.53,416.953l-19.119,19.119a27.793,27.793,0,0,1-5.264.689,41.907,41.907,0,0,1,5.982-7.036A77.135,77.135,0,0,1,330.53,416.953Z" transform="translate(-302.884 -406.454)" fill="#30768c"/>
    <path id="Path_6151" data-name="Path 6151" d="M342.719,411.849,322.964,431.6a50.125,50.125,0,0,1-7.168,2.88l20.334-20.334c2.042-.93,4.15-1.8,6.332-2.605A3.068,3.068,0,0,1,342.719,411.849Z" transform="translate(-304.354 -405.631)" fill="#30768c"/>
    <path id="Path_6152" data-name="Path 6152" d="M383.218,420.048H373.5L358.843,434.7h10.12l14.256-14.257Z" transform="translate(-310.909 -406.925)" fill="#30768c"/>
    <path id="Path_6153" data-name="Path 6153" d="M385.079,422.258v2.577l-10.2,10.2H372.3Z" transform="translate(-312.958 -407.262)" fill="#30768c"/>
    <path id="Path_6154" data-name="Path 6154" d="M359.33,420.048,344.674,434.7h-5.522l13.812-13.82a10.775,10.775,0,0,1,3.837-.835Z" transform="translate(-307.91 -406.925)" fill="#30768c"/>
    <path id="Path_6155" data-name="Path 6155" d="M370.239,420.048,355.582,434.7h-4.491l14.658-14.655Z" transform="translate(-309.728 -406.925)" fill="#30768c"/>
    <path id="Path_6156" data-name="Path 6156" d="M379.6,435.006H333.9l.587-.622c8.653-9.173,14.313-12.628,17.539-13.909A11.105,11.105,0,0,1,356,419.61h23.6Zm-43.989-.737h43.252V420.347H356a10.442,10.442,0,0,0-3.7.811C349.216,422.384,343.841,425.659,335.613,434.27Z" transform="translate(-307.111 -406.859)" fill="#0f1219"/>
    <path id="Path_6157" data-name="Path 6157" d="M358.459,420.048H381.69v3.32H350.039a25.887,25.887,0,0,1,4.583-2.485A10.775,10.775,0,0,1,358.459,420.048Z" transform="translate(-309.568 -406.925)" fill="#30768c" style="mix-blend-mode: multiply;isolation: isolate"/>
    <g id="Group_3946" data-name="Group 3946" transform="translate(75.03 8.814)">
      <g id="Group_3942" data-name="Group 3942">
        <g id="Group_3941" data-name="Group 3941">
          <g id="Group_3940" data-name="Group 3940">
            <path id="Path_6158" data-name="Path 6158" d="M405.571,417.12v25.586a1.605,1.605,0,0,1-1.609,1.612H392.957a1.613,1.613,0,0,1-1.61-1.612V417.12a1.619,1.619,0,0,1,1.61-1.612h11.005A1.612,1.612,0,0,1,405.571,417.12Z" transform="translate(-390.888 -415.048)" fill="#f2f2f4"/>
            <path id="Path_6159" data-name="Path 6159" d="M405.489,442.623V417.037a1.612,1.612,0,0,0-1.609-1.612H392.874a1.619,1.619,0,0,0-1.61,1.612v25.586a1.613,1.613,0,0,0,1.61,1.612H403.88A1.605,1.605,0,0,0,405.489,442.623Zm.46-25.586v25.586a2.069,2.069,0,0,1-2.069,2.073H392.874a2.075,2.075,0,0,1-2.068-2.073V417.037a2.074,2.074,0,0,1,2.068-2.072H403.88A2.068,2.068,0,0,1,405.949,417.037Z" transform="translate(-390.806 -414.965)" fill="#020401"/>
          </g>
        </g>
      </g>
      <g id="Group_3945" data-name="Group 3945" transform="translate(2.915 4.309)">
        <g id="Group_3944" data-name="Group 3944">
          <g id="Group_3943" data-name="Group 3943">
            <path id="Path_6160" data-name="Path 6160" d="M403.189,424.783v5.576a4.2,4.2,0,0,1-4.206,4.2,3.868,3.868,0,0,1-1.343-.23,3.975,3.975,0,0,1-1.417-.81,4.615,4.615,0,0,1-.505-.516,4.19,4.19,0,0,1-.928-2.642v-5.668a4.146,4.146,0,0,1,.21-1.241,4.225,4.225,0,0,1,3.892-2.861h.091a4.209,4.209,0,0,1,3.984,2.861A3.994,3.994,0,0,1,403.189,424.783Z" transform="translate(-394.328 -420.13)" fill="#134960"/>
            <path id="Path_6161" data-name="Path 6161" d="M403.106,430.277V424.7a4.2,4.2,0,0,0-8.4,0v5.576a4.2,4.2,0,0,0,8.4,0ZM398.9,420.048a4.661,4.661,0,0,1,4.666,4.652v5.576a4.66,4.66,0,0,1-9.321,0V424.7A4.659,4.659,0,0,1,398.9,420.048Z" transform="translate(-394.245 -420.048)" fill="#020401"/>
          </g>
        </g>
      </g>
      <path id="Path_6162" data-name="Path 6162" d="M403.189,424.783v.747L395.718,433a4.19,4.19,0,0,1-.928-2.642v-5.668l4.1-4.1h.091A4.207,4.207,0,0,1,403.189,424.783Z" transform="translate(-391.413 -415.821)" fill="#30768c"/>
      <path id="Path_6163" data-name="Path 6163" d="M403.447,427.619v2.23L397.9,435.4a3.975,3.975,0,0,1-1.417-.81Z" transform="translate(-391.67 -416.892)" fill="#30768c"/>
      <path id="Path_6164" data-name="Path 6164" d="M403,423.45h-7.967a4.225,4.225,0,0,1,3.892-2.861h.091A4.209,4.209,0,0,1,403,423.45Z" transform="translate(-391.45 -415.821)" fill="#30768c" style="mix-blend-mode: multiply;isolation: isolate"/>
    </g>
    <g id="Group_3947" data-name="Group 3947" transform="translate(92.714 12.751)">
      <path id="Path_6165" data-name="Path 6165" d="M461.884,420.048V434.7H412.1V420.048h49.784Z" transform="translate(-411.732 -419.677)" fill="#134960"/>
      <path id="Path_6166" data-name="Path 6166" d="M469.96,431.639v4.673l-.156.156h-4.673Z" transform="translate(-419.807 -421.442)" fill="#30768c"/>
      <path id="Path_6167" data-name="Path 6167" d="M453.442,420.048,438.783,434.7H428.673l14.647-14.655Z" transform="translate(-414.256 -419.677)" fill="#30768c"/>
      <path id="Path_6168" data-name="Path 6168" d="M466.833,420.048v7.809l-6.845,6.845H444.6l14.656-14.655Z" transform="translate(-416.68 -419.677)" fill="#30768c"/>
      <path id="Path_6169" data-name="Path 6169" d="M425.33,420.048,412.1,433.267V420.048Z" transform="translate(-411.732 -419.677)" fill="#30768c"/>
      <path id="Path_6170" data-name="Path 6170" d="M431.55,420.048,416.893,434.7H412.4l14.656-14.655Z" transform="translate(-411.778 -419.677)" fill="#30768c"/>
      <path id="Path_6171" data-name="Path 6171" d="M462.188,435.006H411.666v-15.4h50.522ZM412.4,434.27h49.05V420.347H412.4Z" transform="translate(-411.666 -419.61)" fill="#0f1219"/>
      <path id="Path_6172" data-name="Path 6172" d="M461.884,420.048v3.32H412.1v-3.32h49.784Z" transform="translate(-411.732 -419.677)" fill="#30768c" style="mix-blend-mode: multiply;isolation: isolate"/>
    </g>
    <path id="Path_6173" data-name="Path 6173" d="M380.081,404.568h80.967v5.586H348.356A94.434,94.434,0,0,1,380.081,404.568Z" transform="translate(-309.312 -404.568)" fill="#26c5d2"/>
    <path id="Path_6174" data-name="Path 6174" d="M454.223,455.667v8.373H353.473c-12.751,0-31.825-1.445-41.623-3.655-.387-.089-.754-.173-1.113-.264-.406-.1-.793-.2-1.159-.313-.268-.074-.524-.158-.765-.231s-.459-.147-.671-.221c-.011,0-.019-.008-.029-.008a9.014,9.014,0,0,1-1.767-.83,8.535,8.535,0,0,1-2.815-2.85Z" transform="translate(-302.486 -412.349)" fill="#e1f3f9"/>
    <g id="Group_3948" data-name="Group 3948" transform="translate(1.497 32.974)">
      <path id="Path_6175" data-name="Path 6175" d="M305.887,443.465h-1.592c-.083.159-.157.307-.231.462h1.823a6.987,6.987,0,0,1,2.337,13.57c.211.075.431.147.671.221a7.444,7.444,0,0,0-3.008-14.254Z" transform="translate(-304.064 -443.465)" fill="#bec3c9"/>
    </g>
    <path id="Path_6176" data-name="Path 6176" d="M455.046,460.008v.46H310.4c-.1-.029-.212-.056-.313-.092-.157-.046-.305-.092-.452-.138-.24-.075-.459-.147-.671-.221-.011,0-.019-.008-.029-.008Z" transform="translate(-303.309 -413.01)" fill="#bec3c9"/>
    <g id="Group_3949" data-name="Group 3949" transform="translate(93.108 46.998)">
      <rect id="Rectangle_1450" data-name="Rectangle 1450" width="0.462" height="4.693" fill="#bec3c9"/>
    </g>
    <g id="Group_3950" data-name="Group 3950" transform="translate(143.005 46.998)">
      <rect id="Rectangle_1451" data-name="Rectangle 1451" width="0.46" height="4.693" fill="#bec3c9"/>
    </g>
  </g>
  <g id="Group_3959" data-name="Group 3959" transform="translate(387.44 51.207)">
    <rect id="Rectangle_1452" data-name="Rectangle 1452" width="27.636" height="4.657" transform="translate(3.561 0.151)" fill="#34373a"/>
    <g id="Group_3952" data-name="Group 3952" transform="translate(4.659 0.377)">
      <path id="Path_6177" data-name="Path 6177" d="M771.781,466.5l-6.773-2.965.22-.505L772,466Z" transform="translate(-764.855 -463.033)" fill="#494c4f"/>
      <rect id="Rectangle_1453" data-name="Rectangle 1453" width="0.38" height="7.393" transform="translate(0 0.853) rotate(-66.36)" fill="#222a30"/>
    </g>
    <g id="Group_3953" data-name="Group 3953" transform="translate(13.059 0.377)">
      <path id="Path_6178" data-name="Path 6178" d="M781.69,466.5l-6.774-2.965.22-.505L781.909,466Z" transform="translate(-774.764 -463.033)" fill="#494c4f"/>
      <rect id="Rectangle_1454" data-name="Rectangle 1454" width="0.38" height="7.393" transform="translate(0 0.853) rotate(-66.362)" fill="#222a30"/>
    </g>
    <g id="Group_3954" data-name="Group 3954" transform="translate(21.459 0.377)">
      <rect id="Rectangle_1455" data-name="Rectangle 1455" width="0.551" height="7.392" transform="translate(0.153 0.505) rotate(-66.357)" fill="#494c4f"/>
      <rect id="Rectangle_1456" data-name="Rectangle 1456" width="0.379" height="7.393" transform="translate(0 0.852) rotate(-66.357)" fill="#222a30"/>
    </g>
    <g id="Group_3955" data-name="Group 3955">
      <path id="Path_6179" data-name="Path 6179" d="M766.889,466.366a3.778,3.778,0,1,1-3.777-3.777A3.777,3.777,0,0,1,766.889,466.366Z" transform="translate(-759.332 -462.589)" fill="#091308"/>
      <path id="Path_6180" data-name="Path 6180" d="M766.064,466.546a2.772,2.772,0,1,1-2.772-2.772A2.773,2.773,0,0,1,766.064,466.546Z" transform="translate(-759.513 -462.769)" fill="#222428"/>
      <path id="Path_6181" data-name="Path 6181" d="M765.427,466.686a2,2,0,1,1-2-2A1.995,1.995,0,0,1,765.427,466.686Z" transform="translate(-759.652 -462.909)" fill="#34373a"/>
    </g>
    <g id="Group_3956" data-name="Group 3956" transform="translate(8.928)">
      <path id="Path_6182" data-name="Path 6182" d="M777.42,466.366a3.778,3.778,0,1,1-3.775-3.777A3.776,3.776,0,0,1,777.42,466.366Z" transform="translate(-769.864 -462.589)" fill="#091308"/>
      <path id="Path_6183" data-name="Path 6183" d="M776.6,466.546a2.773,2.773,0,1,1-2.771-2.772A2.772,2.772,0,0,1,776.6,466.546Z" transform="translate(-770.045 -462.769)" fill="#222428"/>
      <path id="Path_6184" data-name="Path 6184" d="M775.959,466.686a2,2,0,1,1-1.994-2A2,2,0,0,1,775.959,466.686Z" transform="translate(-770.184 -462.909)" fill="#34373a"/>
    </g>
    <g id="Group_3957" data-name="Group 3957" transform="translate(17.856)">
      <path id="Path_6185" data-name="Path 6185" d="M787.952,466.366a3.778,3.778,0,1,1-3.777-3.777A3.777,3.777,0,0,1,787.952,466.366Z" transform="translate(-780.395 -462.589)" fill="#091308"/>
      <path id="Path_6186" data-name="Path 6186" d="M787.127,466.546a2.772,2.772,0,1,1-2.771-2.772A2.772,2.772,0,0,1,787.127,466.546Z" transform="translate(-780.576 -462.769)" fill="#222428"/>
      <path id="Path_6187" data-name="Path 6187" d="M786.492,466.686a2,2,0,1,1-2-2A2,2,0,0,1,786.492,466.686Z" transform="translate(-780.715 -462.909)" fill="#34373a"/>
    </g>
    <g id="Group_3958" data-name="Group 3958" transform="translate(26.786)">
      <path id="Path_6188" data-name="Path 6188" d="M798.485,466.366a3.777,3.777,0,1,1-3.778-3.777A3.778,3.778,0,0,1,798.485,466.366Z" transform="translate(-790.93 -462.589)" fill="#091308"/>
      <path id="Path_6189" data-name="Path 6189" d="M797.659,466.546a2.772,2.772,0,1,1-2.772-2.772A2.772,2.772,0,0,1,797.659,466.546Z" transform="translate(-791.11 -462.769)" fill="#222428"/>
      <path id="Path_6190" data-name="Path 6190" d="M797.023,466.686a2,2,0,1,1-2-2A2,2,0,0,1,797.023,466.686Z" transform="translate(-791.25 -462.909)" fill="#34373a"/>
    </g>
  </g>
  <path id="Path_6191" data-name="Path 6191" d="M661.323,404.568v51.691h100.75c12.752,0,31.825-1.445,41.623-3.655.388-.089.756-.173,1.114-.264.4-.1.793-.2,1.159-.313.1-.029.212-.056.313-.092.158-.046.305-.092.451-.138.242-.075.46-.147.672-.221.009,0,.019-.008.027-.008a8.922,8.922,0,0,0,1.767-.83,8.527,8.527,0,0,0,2.815-2.85c1.5-2.548,1.345-5.786-.193-9.331a5.518,5.518,0,0,0-.239-.5.109.109,0,0,1-.016-.047c-.074-.155-.148-.3-.231-.462a18.865,18.865,0,0,0-.948-1.729c-.183-.313-.376-.624-.587-.938-5.688-8.665-18.43-18.354-34.845-24.392-.314-.11-.625-.23-.936-.33a94.809,94.809,0,0,0-27.4-5.474c-1.434-.075-2.87-.112-4.325-.112Z" transform="translate(-356.968 -402.547)" fill="#f2f2f4"/>
  <path id="Path_6192" data-name="Path 6192" d="M761.766,404.7c.884,3.08-3.548,5.474,1.574,5.474s12.7,2.169,22.253,9.125c5.079,3.7,12.578,10.45,17.105,14.627,2.346,2.165,3.648,3.637,11.288,3.637h12.5a18.869,18.869,0,0,0-.948-1.729c-.183-.313-.376-.624-.587-.938-5.688-8.665-18.43-18.354-34.845-24.392-.314-.11-.625-.23-.936-.33A94.81,94.81,0,0,0,761.766,404.7Z" transform="translate(-372.12 -402.567)" fill="#26c5d2"/>
  <path id="Path_6193" data-name="Path 6193" d="M799.719,434.7H755.243V420.048h23.232a10.554,10.554,0,0,1,3.8.826.057.057,0,0,1,.037.009,25.941,25.941,0,0,1,4.582,2.485c1.049.688,2.1,1.462,3.119,2.263.432.331.855.682,1.27,1.033.541.437,1.066.89,1.573,1.333.515.459,1.022.909,1.5,1.361,2.427,2.244,4.362,4.284,5.28,5.263A.627.627,0,0,1,799.719,434.7Z" transform="translate(-371.27 -404.904)" fill="#134960"/>
  <path id="Path_6194" data-name="Path 6194" d="M793.157,414.009c.25,3.588,4.98,7.581,10.224,11.712,1.4,1.086,13.967,10.682,26.463,11.08l.615.016c-.183-.313-.376-.624-.587-.938-5.688-8.665-18.43-18.354-34.845-24.392-.314-.11-.625-.23-.936-.33A3.927,3.927,0,0,0,793.157,414.009Z" transform="translate(-377.041 -403.55)" fill="#020401"/>
  <path id="Path_6195" data-name="Path 6195" d="M830.042,435.938a27.777,27.777,0,0,1-5.264-.689c-.974-.211-1.95-.468-2.915-.764a50.292,50.292,0,0,1-7.168-2.88c-.791-.387-1.564-.782-2.3-1.185-.866-.471-1.693-.949-2.475-1.417-.12-.073-.238-.138-.351-.212q-.829-.511-1.591-.994c-1.535-1-2.842-1.951-3.855-2.742-1.875-1.484-3.744-2.981-5.335-4.445-.609-.57-1.186-1.131-1.7-1.682-2.465-2.642-3.707-5.108-2.143-7.078a2.856,2.856,0,0,1,.258-.3c2.18.8,4.287,1.675,6.329,2.605.075.037.157.064.231.1,1.04.459,2.052.949,3.055,1.445.286.137.57.285.845.432a84.8,84.8,0,0,1,8.823,5.151c.518.34,1.032.693,1.538,1.05.883.615,1.738,1.25,2.568,1.887a64.473,64.473,0,0,1,5.473,4.684A41.827,41.827,0,0,1,830.042,435.938Z" transform="translate(-377.209 -403.609)" fill="#134960"/>
  <g id="Group_3966" data-name="Group 3966" transform="translate(365.918 10.835)">
    <g id="Group_3962" data-name="Group 3962">
      <g id="Group_3961" data-name="Group 3961">
        <g id="Group_3960" data-name="Group 3960">
          <path id="Path_6196" data-name="Path 6196" d="M748.71,417.12v25.586a1.606,1.606,0,0,1-1.611,1.612h-11a1.613,1.613,0,0,1-1.612-1.612V417.12a1.62,1.62,0,0,1,1.612-1.612h11A1.612,1.612,0,0,1,748.71,417.12Z" transform="translate(-734.026 -415.048)" fill="#f2f2f4"/>
          <path id="Path_6197" data-name="Path 6197" d="M748.628,442.623V417.037a1.612,1.612,0,0,0-1.611-1.612h-11a1.62,1.62,0,0,0-1.612,1.612v25.586a1.613,1.613,0,0,0,1.612,1.612h11A1.606,1.606,0,0,0,748.628,442.623Zm.462-25.586v25.586a2.072,2.072,0,0,1-2.073,2.073h-11a2.074,2.074,0,0,1-2.07-2.073V417.037a2.073,2.073,0,0,1,2.07-2.072h11A2.071,2.071,0,0,1,749.089,417.037Z" transform="translate(-733.944 -414.965)" fill="#020401"/>
        </g>
      </g>
    </g>
    <g id="Group_3965" data-name="Group 3965" transform="translate(2.916 4.309)">
      <g id="Group_3964" data-name="Group 3964">
        <g id="Group_3963" data-name="Group 3963">
          <path id="Path_6198" data-name="Path 6198" d="M746.327,424.783v5.576a4.2,4.2,0,0,1-4.206,4.2,3.877,3.877,0,0,1-1.344-.23,3.979,3.979,0,0,1-1.416-.81,4.335,4.335,0,0,1-.505-.516,4.187,4.187,0,0,1-.93-2.642v-5.668a4.145,4.145,0,0,1,.212-1.241,4.223,4.223,0,0,1,3.892-2.861h.091a4.212,4.212,0,0,1,3.985,2.861A4.034,4.034,0,0,1,746.327,424.783Z" transform="translate(-737.467 -420.13)" fill="#134960"/>
          <path id="Path_6199" data-name="Path 6199" d="M746.245,430.277V424.7a4.2,4.2,0,0,0-8.4,0v5.576a4.2,4.2,0,0,0,8.4,0Zm-4.206-10.229A4.66,4.66,0,0,1,746.7,424.7v5.576a4.66,4.66,0,0,1-9.32,0V424.7A4.659,4.659,0,0,1,742.039,420.048Z" transform="translate(-737.384 -420.048)" fill="#020401"/>
        </g>
      </g>
    </g>
    <path id="Path_6200" data-name="Path 6200" d="M746.327,424.783v.747L738.857,433a4.187,4.187,0,0,1-.93-2.642v-5.668l4.1-4.1h.091A4.208,4.208,0,0,1,746.327,424.783Z" transform="translate(-734.55 -415.821)" fill="#30768c"/>
    <path id="Path_6201" data-name="Path 6201" d="M746.585,427.619v2.23l-5.549,5.548a3.979,3.979,0,0,1-1.416-.81Z" transform="translate(-734.808 -416.892)" fill="#30768c"/>
    <path id="Path_6202" data-name="Path 6202" d="M746.145,423.45h-7.968a4.223,4.223,0,0,1,3.892-2.861h.091A4.212,4.212,0,0,1,746.145,423.45Z" transform="translate(-734.589 -415.821)" fill="#30768c" style="mix-blend-mode: multiply;isolation: isolate"/>
  </g>
  <g id="Group_3967" data-name="Group 3967" transform="translate(312.855 14.773)">
    <path id="Path_6203" data-name="Path 6203" d="M721.571,420.048V434.7H671.785V420.048h49.786Z" transform="translate(-671.416 -419.677)" fill="#134960"/>
    <path id="Path_6204" data-name="Path 6204" d="M729.646,431.639v4.673l-.156.156h-4.675Z" transform="translate(-679.491 -421.442)" fill="#30768c"/>
    <path id="Path_6205" data-name="Path 6205" d="M713.126,420.048,698.47,434.7H688.359l14.646-14.655Z" transform="translate(-673.94 -419.677)" fill="#30768c"/>
    <path id="Path_6206" data-name="Path 6206" d="M726.519,420.048v7.809l-6.846,6.845H704.281l14.655-14.655Z" transform="translate(-676.365 -419.677)" fill="#30768c"/>
    <path id="Path_6207" data-name="Path 6207" d="M685.015,420.048l-13.23,13.219V420.048Z" transform="translate(-671.416 -419.677)" fill="#30768c"/>
    <path id="Path_6208" data-name="Path 6208" d="M691.237,420.048,676.579,434.7h-4.491l14.657-14.655Z" transform="translate(-671.462 -419.677)" fill="#30768c"/>
    <path id="Path_6209" data-name="Path 6209" d="M721.873,435.006H671.35v-15.4h50.523Zm-49.786-.737h49.049V420.347H672.087Z" transform="translate(-671.35 -419.61)" fill="#0f1219"/>
    <path id="Path_6210" data-name="Path 6210" d="M721.571,420.048v3.32H671.785v-3.32h49.786Z" transform="translate(-671.416 -419.677)" fill="#30768c" style="mix-blend-mode: multiply;isolation: isolate"/>
  </g>
  <path id="Path_6211" data-name="Path 6211" d="M742.289,404.568H661.323v5.586H774.017A94.449,94.449,0,0,0,742.289,404.568Z" transform="translate(-356.968 -402.547)" fill="#26c5d2"/>
  <path id="Path_6212" data-name="Path 6212" d="M661.323,455.667v8.373h100.75c12.752,0,31.825-1.445,41.623-3.655.388-.089.756-.173,1.114-.264.4-.1.793-.2,1.159-.313.268-.074.525-.158.764-.231s.46-.147.672-.221c.009,0,.019-.008.027-.008a8.922,8.922,0,0,0,1.767-.83,8.527,8.527,0,0,0,2.815-2.85Z" transform="translate(-356.968 -410.328)" fill="#e1f3f9"/>
  <g id="Group_3968" data-name="Group 3968" transform="translate(445.33 34.995)">
    <path id="Path_6213" data-name="Path 6213" d="M827.621,450.92a7.421,7.421,0,0,0,4.434,6.8c.242-.075.46-.147.672-.221a6.987,6.987,0,0,1,2.337-13.57h1.823c-.074-.155-.148-.3-.231-.462h-1.592A7.456,7.456,0,0,0,827.621,450.92Z" transform="translate(-827.621 -443.465)" fill="#bec3c9"/>
  </g>
  <path id="Path_6214" data-name="Path 6214" d="M661.323,460.008v.46H805.968c.1-.029.212-.056.313-.092.158-.046.305-.092.451-.138.242-.075.46-.147.672-.221.009,0,.019-.008.027-.008Z" transform="translate(-356.968 -410.989)" fill="#bec3c9"/>
  <g id="Group_3969" data-name="Group 3969" transform="translate(362.523 49.019)">
    <rect id="Rectangle_1457" data-name="Rectangle 1457" width="0.46" height="4.693" fill="#bec3c9"/>
  </g>
  <g id="Group_3970" data-name="Group 3970" transform="translate(312.626 49.019)">
    <rect id="Rectangle_1458" data-name="Rectangle 1458" width="0.459" height="4.693" fill="#bec3c9"/>
  </g>
  <g id="Group_3971" data-name="Group 3971" transform="translate(181.436 49.019)">
    <rect id="Rectangle_1459" data-name="Rectangle 1459" width="0.459" height="4.683" fill="#bec3c9"/>
  </g>
  <g id="Group_3972" data-name="Group 3972" transform="translate(228.497 49.019)">
    <rect id="Rectangle_1460" data-name="Rectangle 1460" width="0.461" height="4.683" fill="#bec3c9"/>
  </g>
  <g id="Group_3973" data-name="Group 3973" transform="translate(274.575 49.019)">
    <rect id="Rectangle_1461" data-name="Rectangle 1461" width="0.461" height="4.683" fill="#bec3c9"/>
  </g>
  <rect id="Rectangle_1462" data-name="Rectangle 1462" width="4.563" height="51.675" transform="translate(151.737 2.022)" fill="#020401"/>
  <rect id="Rectangle_1463" data-name="Rectangle 1463" width="1.516" height="51.675" transform="translate(153.261 2.022)" fill="#2d2d2d"/>
  <path id="Path_6215" data-name="Path 6215" d="M792.383,425.779l-9.082,9.072H770.8l13.84-13.829a.057.057,0,0,1,.037.009,25.941,25.941,0,0,1,4.582,2.485C790.314,424.2,791.362,424.978,792.383,425.779Z" transform="translate(-373.639 -405.052)" fill="#30768c"/>
  <path id="Path_6216" data-name="Path 6216" d="M777.547,420.048,762.879,434.7h-7.636V431.8l11.748-11.748Z" transform="translate(-371.27 -404.904)" fill="#30768c"/>
  <path id="Path_6217" data-name="Path 6217" d="M805.7,436.293l-.083.082H795.065l5.355-5.345C802.847,433.274,804.782,435.314,805.7,436.293Z" transform="translate(-377.334 -406.576)" fill="#30768c"/>
  <path id="Path_6218" data-name="Path 6218" d="M797.887,429.185l-6.708,6.706h-2.9l8.032-8.039C796.855,428.289,797.381,428.742,797.887,429.185Z" transform="translate(-376.301 -406.092)" fill="#30768c"/>
  <path id="Path_6219" data-name="Path 6219" d="M754.8,419.61h23.6a11.093,11.093,0,0,1,3.972.865c3.226,1.282,8.888,4.736,17.539,13.909l.587.622H754.8Zm27.3,1.548a10.464,10.464,0,0,0-3.7-.811H755.543V434.27h43.249C790.566,425.659,785.188,422.384,782.109,421.158Z" transform="translate(-371.203 -404.837)" fill="#0f1219"/>
  <path id="Path_6220" data-name="Path 6220" d="M778.471,420.048H755.238v3.32h31.651a25.847,25.847,0,0,0-4.582-2.485A10.77,10.77,0,0,0,778.471,420.048Z" transform="translate(-371.269 -404.904)" fill="#30768c" style="mix-blend-mode: multiply;isolation: isolate"/>
  <path id="Path_6221" data-name="Path 6221" d="M814.991,421.767l-6.5,6.516c-1.535-1-2.842-1.951-3.855-2.742-1.875-1.484-3.744-2.981-5.335-4.445-.609-.57-1.186-1.131-1.7-1.682l4.674-4.675c1.04.459,2.051.949,3.055,1.445.286.137.57.285.845.432A84.81,84.81,0,0,1,814.991,421.767Z" transform="translate(-377.718 -404.095)" fill="#30768c"/>
  <path id="Path_6222" data-name="Path 6222" d="M821.339,426.155l-6.193,6.2c-.866-.471-1.693-.949-2.475-1.417-.12-.073-.238-.138-.351-.212l6.451-6.46C819.655,424.883,820.509,425.518,821.339,426.155Z" transform="translate(-379.961 -405.546)" fill="#30768c"/>
</svg>
