<svg xmlns="http://www.w3.org/2000/svg" width="27" height="26" viewBox="0 0 27 26">
  <g id="Group_3407" data-name="Group 3407" transform="translate(-601.047 -1013.299)">
    <rect id="Rectangle_1059" data-name="Rectangle 1059" width="27" height="26" rx="5" transform="translate(601.047 1013.299)" fill="#fff"/>
    <path id="Icon_awesome-twitter" data-name="Icon awesome-twitter" d="M13.253,6.371c.009.131.009.262.009.394a8.555,8.555,0,0,1-8.614,8.614A8.555,8.555,0,0,1,0,14.019a6.263,6.263,0,0,0,.731.037A6.063,6.063,0,0,0,4.49,12.763a3.033,3.033,0,0,1-2.831-2.1,3.818,3.818,0,0,0,.572.047,3.2,3.2,0,0,0,.8-.1A3.028,3.028,0,0,1,.6,7.636V7.6a3.049,3.049,0,0,0,1.368.384,3.032,3.032,0,0,1-.937-4.049A8.605,8.605,0,0,0,7.273,7.1,3.418,3.418,0,0,1,7.2,6.408a3.03,3.03,0,0,1,5.239-2.071,5.96,5.96,0,0,0,1.921-.731,3.019,3.019,0,0,1-1.331,1.668,6.069,6.069,0,0,0,1.743-.469,6.508,6.508,0,0,1-1.518,1.565Z" transform="translate(607.614 1016.621)" fill="#2e58a6"/>
  </g>
</svg>
