<svg id="undraw_privacy_protection_nlwy" xmlns="http://www.w3.org/2000/svg" width="591.67" height="533.654" viewBox="0 0 591.67 533.654">
  <circle id="Ellipse_98" data-name="Ellipse 98" cx="138.959" cy="138.959" r="138.959" transform="translate(141.234 231.164)" fill="#f2f2f2"/>
  <ellipse id="Ellipse_99" data-name="Ellipse 99" cx="131.865" cy="18.014" rx="131.865" ry="18.014" transform="translate(128.698 497.625)" fill="#3f3d56"/>
  <ellipse id="Ellipse_100" data-name="Ellipse 100" cx="9.334" cy="4.531" rx="9.334" ry="4.531" transform="translate(254.045 145.018) rotate(-18.58)" fill="#3f3d56"/>
  <path id="Path_5402" data-name="Path 5402" d="M486.423,278.489l48.965-22.31s82.955-31.356,153.918,45.183c0,0-31.8-20.416-55.91,6.552,0,0-45.362-12.272-83.429,32.819,0,0-59.539,9.016-84.337,40.613,0,0-27.645-4.252-38.649,30.795a1.051,1.051,0,0,1-1.739.433h0a1.044,1.044,0,0,1-.3-.551C423.914,406.607,411.756,334.355,486.423,278.489Z" transform="translate(-241.007 -111.499)" fill="#2e58a6"/>
  <path id="Path_5403" data-name="Path 5403" d="M486.423,278.489l48.965-22.31s82.955-31.356,153.918,45.183c0,0-31.8-20.416-55.91,6.552,0,0-45.362-12.272-83.429,32.819,0,0-59.539,9.016-84.337,40.613,0,0-27.645-4.252-38.649,30.795a1.051,1.051,0,0,1-1.739.433h0a1.044,1.044,0,0,1-.3-.551C423.914,406.607,411.756,334.355,486.423,278.489Z" transform="translate(-241.007 -111.499)" opacity="0.2"/>
  <path id="Path_5404" data-name="Path 5404" d="M405.524,384.224l20.389,3.4,6.8-32.283-16.424-6.8Z" transform="translate(-145.196 -124.794)" fill="#2f2e41"/>
  <circle id="Ellipse_101" data-name="Ellipse 101" cx="17.557" cy="17.557" r="17.557" transform="translate(270.806 217.802)" fill="#a0616a"/>
  <path id="Path_5405" data-name="Path 5405" d="M568.026,416.421s1.7,21.522-11.327,23.221,11.327,40.212,17.557,39.646,17.557-41.911,17.557-41.911-14.726-10.195-9.629-19.256Z" transform="translate(-287.309 -171.15)" fill="#a0616a"/>
  <path id="Path_5406" data-name="Path 5406" d="M542.483,537.35s2.266,16.425,9.062,16.425-4.531-18.69-4.531-18.69Z" transform="translate(-283.571 -213.638)" fill="#a0616a"/>
  <path id="Path_5407" data-name="Path 5407" d="M694.983,564.2s16.991,14.159,14.726,18.69-16.991-5.1-18.124-16.425Z" transform="translate(-336.956 -224.062)" fill="#a0616a"/>
  <path id="Path_5408" data-name="Path 5408" d="M524.554,648.9l-10.761,40.212L501.9,737.816h11.327s3.965-15.292,11.327-23.221c0,0,7.363-12.46,7.363-20.956l17.557-41.345Z" transform="translate(-269.04 -254.387)" fill="#a0616a"/>
  <path id="Path_5409" data-name="Path 5409" d="M609.535,648.318l3.4,37.947s-.566,27.186,0,33.416a124.911,124.911,0,0,1,0,15.292h10.195s9.628-33.416,6.8-51.54l3.965-42.478Z" transform="translate(-307.579 -251.544)" fill="#a0616a"/>
  <path id="Path_5410" data-name="Path 5410" d="M566,472.781s-15.259-12.093-11.311-28.984c0,0-15.308.666-21.538,6.9s1.7,27.186,1.7,27.186,13.593,22.655,11.327,32.849-26.619,64-18.69,67.4,56.071,15.292,80.425-4.531c0,0,6.23-56.07-18.69-74.194v-14.16s4.531-3.965,2.265-14.159c0,0,9.628-17.557,3.965-20.956s-18.674-8.378-18.674-8.378S577.892,467.117,566,472.781Z" transform="translate(-277.635 -180.219)" fill="#2f2e41"/>
  <path id="Path_5411" data-name="Path 5411" d="M523.152,455.663s-7.363-1.133-14.726,9.628-26.619,27.752-17.557,36.248S524.284,515.7,524.284,515.7l5.664-10.195-24.354-11.894,20.389-15.292Z" transform="translate(-264.24 -185.189)" fill="#2f2e41"/>
  <path id="Path_5412" data-name="Path 5412" d="M626.984,455.682s7.929,0,11.327,9.628,23.221,42.478,23.221,42.478l11.327,17.557-7.929,9.062-22.088-24.92-20.956-34.548Z" transform="translate(-312.001 -185.208)" fill="#2f2e41"/>
  <path id="Path_5413" data-name="Path 5413" d="M510.682,785.646H494.824l-3.4,27.752s-9.062,14.726,4.531,13.026,9.062-16.991,9.062-16.991l3.4-5.664,1.133,11.894,1.133-.566V802.07S516.913,796.407,510.682,785.646Z" transform="translate(-264.231 -303.35)" fill="#2f2e41"/>
  <path id="Path_5414" data-name="Path 5414" d="M625.268,785.014l-14.726-1.133L607.711,815.6s-1.7,11.894,8.5,10.195,6.8-11.328,6.8-11.328V796.908Z" transform="translate(-306.888 -302.718)" fill="#2f2e41"/>
  <path id="Path_5415" data-name="Path 5415" d="M558.717,370.768s-8.251,2.75-8.67,13.612a19.261,19.261,0,0,0,.573,5.158c.465,1.969.763,6.206-2.837,11.742a116.246,116.246,0,0,0-6.6,11.348l-.026.052,9.062,1.133,1.927-15.021a74.8,74.8,0,0,1,5.94-21.087l.063-.14s3.965,7.363,11.894,7.363l-2.832-2.832s12.46,5.1,16.991,5.1c0,0,3.4,2.265,0,5.664s-10.195,11.327-6.23,17.557.566,7.929.566,7.929l6.23-3.4,2.832-1.7v2.265l14.726-1.7s3.965-.566-4.531-10.195c0,0-2.243-3.739-1.262-6.964a16.267,16.267,0,0,0,.618-7.607C595.25,378.429,587.783,357.32,558.717,370.768Z" transform="translate(-283.097 -153.25)" fill="#2f2e41"/>
  <path id="Path_5416" data-name="Path 5416" d="M668.4,508.07c5.6-5.7-.6-17.5-1.088-18.4l-64-130.7a1.667,1.667,0,1,0-2.993,1.466L664.354,491.2l.018.033c.064.117,6.243,11.854.739,15.217-5.927,3.624-12.84-2.247-12.909-2.307a1.666,1.666,0,1,0-2.179,2.522c.357.309,8.846,7.508,16.826,2.628A8.076,8.076,0,0,0,668.4,508.07Z" transform="translate(-304.217 -150.247)" fill="#3f3d56"/>
  <path id="Path_5417" data-name="Path 5417" d="M480.393,264.394l47.423-21.608s80.343-30.368,149.073,43.761c0,0-30.8-19.773-54.15,6.346,0,0-43.934-11.886-80.8,31.786,0,0-57.665,8.732-81.682,39.335,0,0-27.609-4.246-37.914,31.426l-1.426-1.4S405.217,320.642,480.393,264.394Z" transform="translate(-239.556 -106.776)" fill="#2e58a6"/>
  <path id="Path_5418" data-name="Path 5418" d="M503.186,279.671S479.965,357.83,482.8,379.352" transform="translate(-262.115 -122.188)" fill="#3f3d56"/>
  <path id="Path_5419" data-name="Path 5419" d="M552.922,262.3s29.263,66.092,36.626,71.756" transform="translate(-287.309 -115.966)" fill="#3f3d56"/>
  <path id="Path_5420" data-name="Path 5420" d="M587.919,246.145s75.327,45.31,95.15,50.407" transform="translate(-299.839 -110.184)" fill="#3f3d56"/>
  <path id="Path_5421" data-name="Path 5421" d="M408.819,748.531c-.136-.222-3.346-5.582-4.458-16.71-1.021-10.21-.364-27.419,8.561-51.425,16.908-45.477-3.9-82.17-4.109-82.535l1.026-.6c.054.093,5.422,9.448,8.594,24.345a106.21,106.21,0,0,1-4.4,59.2c-16.879,45.4-4.33,66.891-4.2,67.1Z" transform="translate(-233.988 -235.901)" fill="#3f3d56"/>
  <circle id="Ellipse_102" data-name="Ellipse 102" cx="7.711" cy="7.711" r="7.711" transform="translate(160.509 343.868)" fill="#3f3d56"/>
  <circle id="Ellipse_103" data-name="Ellipse 103" cx="7.711" cy="7.711" r="7.711" transform="translate(184.828 372.339)" fill="#3f3d56"/>
  <circle id="Ellipse_104" data-name="Ellipse 104" cx="7.711" cy="7.711" r="7.711" transform="translate(168.22 391.32)" fill="#2e58a6"/>
  <circle id="Ellipse_105" data-name="Ellipse 105" cx="7.711" cy="7.711" r="7.711" transform="translate(188.386 407.334)" fill="#2e58a6"/>
  <circle id="Ellipse_106" data-name="Ellipse 106" cx="7.711" cy="7.711" r="7.711" transform="translate(162.288 432.246)" fill="#3f3d56"/>
  <path id="Path_5422" data-name="Path 5422" d="M418.075,814.815S410.364,795.834,433.5,781.6Z" transform="translate(-238.586 -301.901)" fill="#3f3d56"/>
  <path id="Path_5423" data-name="Path 5423" d="M386.885,821.642s-3.509-20.184-30.671-20.011Z" transform="translate(-216.878 -309.073)" fill="#3f3d56"/>
  <path id="Path_5424" data-name="Path 5424" d="M163.539,0,190.68,14.85,138.092,49.678l-25.156-16.6Z" transform="translate(-40.436)" fill="#3f3d56"/>
  <path id="Path_5425" data-name="Path 5425" d="M57.833,73.493,0,110.777l26.857,15.962L84.669,88.146Z" transform="translate(0 -26.314)" fill="#3f3d56"/>
  <path id="Path_5426" data-name="Path 5426" d="M238.886,78.608a22.794,22.794,0,0,0-12.27,15.538,6.736,6.736,0,0,0,2.209,6.739L245.545,115a7.75,7.75,0,0,0,8.763.845c6.8-3.77,17.714-11.683,12.84-21.7a6.928,6.928,0,0,0-2.414-2.741L246.1,79.083A7.274,7.274,0,0,0,238.886,78.608Z" transform="translate(-170.409 -49.934)" fill="#d0cde1"/>
  <ellipse id="Ellipse_107" data-name="Ellipse 107" cx="27.502" cy="18.677" rx="27.502" ry="18.677" transform="matrix(0.597, -0.802, 0.802, 0.597, 72.735, 72.938)" fill="#3f3d56"/>
  <path id="Path_5427" data-name="Path 5427" d="M287.277,143.64c3.39,2.525,11.452-2.453,18.7-11.285q.963-1.171,1.9-2.432.689-.926,1.328-1.852c6.72-9.71,9.376-19.234,5.905-21.818-3.5-2.6-11.957,2.768-19.373,12.114q-.621.785-1.23,1.6a63.491,63.491,0,0,0-3.888,5.867C285.842,134.042,284.288,141.414,287.277,143.64Z" transform="translate(-191.65 -59.861)" opacity="0.2"/>
  <path id="Path_5428" data-name="Path 5428" d="M293.339,132.96l15.354,6.518,10.986,4.664,1.625-2.193-9.379-6.755-13.468-9.7q-.621.785-1.23,1.6A63.481,63.481,0,0,0,293.339,132.96Z" transform="translate(-194.366 -66.984)" fill="#d0cde1"/>
  <circle id="Ellipse_108" data-name="Ellipse 108" cx="3.337" cy="3.337" r="3.337" transform="translate(124.953 74.223)" fill="#d0cde1"/>
  <path id="Path_5429" data-name="Path 5429" d="M340.245,191.594a1.593,1.593,0,0,1,.755-.385c17.976-3.714,29.288-14.065,34.579-31.641a1.6,1.6,0,0,1,3.063.922c-5.583,18.544-18.029,29.933-36.995,33.852a1.6,1.6,0,0,1-1.4-2.747Z" transform="translate(-210.974 -78.778)" fill="#2e58a6"/>
  <path id="Path_5430" data-name="Path 5430" d="M333.353,174.333a1.59,1.59,0,0,1,.755-.385c13.479-2.785,21.959-10.546,25.927-23.725a1.6,1.6,0,1,1,3.063.922c-4.277,14.207-13.813,22.933-28.343,25.935a1.6,1.6,0,0,1-1.4-2.747Z" transform="translate(-208.506 -75.432)" fill="#2e58a6"/>
  <path id="Path_5431" data-name="Path 5431" d="M350.427,209.577a1.59,1.59,0,0,1,.755-.385c17.939-3.707,37.557-21.657,42.838-39.2a1.6,1.6,0,1,1,3.063.922c-5.578,18.53-26.3,37.493-45.253,41.409a1.6,1.6,0,0,1-1.4-2.747Z" transform="translate(-214.62 -82.51)" fill="#2e58a6"/>
  <path id="Path_5432" data-name="Path 5432" d="M714.771,0,687.63,14.85l52.587,34.829,25.156-16.6Z" transform="translate(-246.203)" fill="#3f3d56"/>
  <path id="Path_5433" data-name="Path 5433" d="M816.615,73.493l57.832,37.284L847.59,126.739,789.779,88.146Z" transform="translate(-282.777 -26.314)" fill="#3f3d56"/>
  <path id="Path_5434" data-name="Path 5434" d="M937.724,78.608a22.794,22.794,0,0,1,12.27,15.538,6.737,6.737,0,0,1-2.209,6.739L931.065,115a7.75,7.75,0,0,1-8.763.845c-6.8-3.77-17.714-11.683-12.84-21.7a6.929,6.929,0,0,1,2.414-2.741l18.633-12.322a7.274,7.274,0,0,1,7.215-.475Z" transform="translate(-414.531 -49.934)" fill="#d0cde1"/>
  <ellipse id="Ellipse_109" data-name="Ellipse 109" cx="18.677" cy="27.502" rx="18.677" ry="27.502" transform="matrix(0.802, -0.597, 0.597, 0.802, 456.124, 51.129)" fill="#3f3d56"/>
  <path id="Path_5435" data-name="Path 5435" d="M895.5,143.64c-3.39,2.525-11.452-2.453-18.7-11.285q-.963-1.171-1.9-2.432-.689-.926-1.328-1.852c-6.72-9.71-9.376-19.234-5.906-21.818,3.5-2.6,11.957,2.768,19.373,12.114q.621.785,1.23,1.6a63.506,63.506,0,0,1,3.889,5.867C896.93,134.042,898.484,141.414,895.5,143.64Z" transform="translate(-399.453 -59.861)" opacity="0.2"/>
  <path id="Path_5436" data-name="Path 5436" d="M891.064,132.96l-15.354,6.518-10.986,4.664-1.625-2.193,9.379-6.755,13.468-9.7q.621.785,1.23,1.6a63.484,63.484,0,0,1,3.888,5.868Z" transform="translate(-398.366 -66.984)" fill="#d0cde1"/>
  <circle id="Ellipse_110" data-name="Ellipse 110" cx="3.337" cy="3.337" r="3.337" transform="translate(460.042 74.223)" fill="#d0cde1"/>
  <path id="Path_5437" data-name="Path 5437" d="M838.012,191.594a1.593,1.593,0,0,0-.755-.385c-17.976-3.714-29.288-14.064-34.579-31.641a1.6,1.6,0,1,0-3.063.922c5.583,18.544,18.029,29.933,36.995,33.852a1.6,1.6,0,0,0,1.4-2.747Z" transform="translate(-375.612 -78.778)" fill="#2e58a6"/>
  <path id="Path_5438" data-name="Path 5438" d="M849.729,174.333a1.59,1.59,0,0,0-.755-.385c-13.479-2.785-21.959-10.546-25.927-23.725a1.6,1.6,0,0,0-3.063.922c4.277,14.207,13.813,22.933,28.343,25.935a1.6,1.6,0,0,0,1.4-2.747Z" transform="translate(-382.905 -75.432)" fill="#2e58a6"/>
  <path id="Path_5439" data-name="Path 5439" d="M823.223,209.577a1.59,1.59,0,0,0-.755-.385c-17.939-3.707-37.557-21.657-42.838-39.2a1.6,1.6,0,0,0-3.063.922c5.578,18.53,26.3,37.493,45.253,41.409a1.6,1.6,0,0,0,1.4-2.747Z" transform="translate(-367.36 -82.51)" fill="#2e58a6"/>
</svg>
