<svg id="undraw_cookie_love_ulvn" xmlns="http://www.w3.org/2000/svg" width="128.136" height="107.109" viewBox="0 0 128.136 107.109">
  <path id="Path_5612" data-name="Path 5612" d="M194.284,104.588,108,26.272,121.493,0l94.869,103.945Z" transform="translate(-90.915)" fill="#f2f2f2" opacity="0.23"/>
  <circle id="Ellipse_128" data-name="Ellipse 128" cx="5.22" cy="5.22" r="5.22" transform="translate(58.848 11.719)" fill="#f2f2f2" opacity="0.23"/>
  <circle id="Ellipse_129" data-name="Ellipse 129" cx="1.74" cy="1.74" r="1.74" transform="translate(85.266 25.956)" fill="#3f3d56"/>
  <circle id="Ellipse_130" data-name="Ellipse 130" cx="1.74" cy="1.74" r="1.74" transform="translate(85.266 39.719)" fill="#3f3d56"/>
  <circle id="Ellipse_131" data-name="Ellipse 131" cx="1.74" cy="1.74" r="1.74" transform="translate(102.667 43.199)" fill="#3f3d56"/>
  <ellipse id="Ellipse_132" data-name="Ellipse 132" cx="64.068" cy="3.164" rx="64.068" ry="3.164" transform="translate(0 100.781)" fill="#f2f2f2" opacity="0.23"/>
  <path id="Path_5615" data-name="Path 5615" d="M454.322,317.975c-.722-1.191-3.243-1.16-3.243-1.16-2.3,3.411-7.814-.212-7.814-.212-4.1,1.833-6.6-4.01-6.6-4.01-5.515-.825-4.663-6.616-4.663-6.616-2.744-.551-1.974-5.511-1.974-5.511s1.522-1.249.773-2.162c-.476-.581-.506-2.247-.464-3.385a37.845,37.845,0,1,0,24.419,22.926C454.564,318.064,454.413,318.125,454.322,317.975Z" transform="translate(-351.935 -264.518)" fill="#f9f9fa"/>
  <path id="Path_5613" data-name="Path 5613" d="M446.388,311.4c-.727-1.2-3.265-1.168-3.265-1.168-2.311,3.434-7.866-.214-7.866-.214-4.126,1.846-6.643-4.037-6.643-4.037-5.552-.83-4.694-6.661-4.694-6.661-2.762-.555-1.987-5.548-1.987-5.548s1.533-1.257.778-2.177c-.48-.585-.509-2.262-.467-3.408a38.1,38.1,0,1,0,24.583,23.081C446.631,311.49,446.479,311.551,446.388,311.4Z" transform="translate(-344.842 -258.844)" fill="#3f3d56"/>
  <path id="Path_5614" data-name="Path 5614" d="M446.388,311.4c-.727-1.2-3.265-1.168-3.265-1.168-2.311,3.434-7.866-.214-7.866-.214-4.126,1.846-6.643-4.037-6.643-4.037-5.552-.83-4.694-6.661-4.694-6.661-2.762-.555-1.987-5.548-1.987-5.548s1.533-1.257.778-2.177c-.48-.585-.509-2.262-.467-3.408a38.1,38.1,0,1,0,24.583,23.081C446.631,311.49,446.479,311.551,446.388,311.4Z" transform="translate(-344.842 -258.844)" opacity="0.1"/>
  <path id="Path_5616" data-name="Path 5616" d="M497.385,412.321s-6.253-3.979-12.221,0a8.632,8.632,0,0,0-3.609,5.368,11.925,11.925,0,0,0,2.341,10.128l13.5,17.055a4.013,4.013,0,0,0,4,1.458l.088-.021a4.025,4.025,0,0,0,2.544-1.932l9.39-16.49a15.97,15.97,0,0,0,2.029-9.934c-.44-3.391-2.069-6.966-6.7-8.192C508.754,409.764,503.354,407.49,497.385,412.321Z" transform="translate(-435.965 -362.124)" fill="#f0f4fc"/>
  <path id="Path_5617" data-name="Path 5617" d="M497.385,412.321s-6.253-3.979-12.221,0a8.632,8.632,0,0,0-3.609,5.368,11.925,11.925,0,0,0,2.341,10.128l13.5,17.055a4.013,4.013,0,0,0,4,1.458l.088-.021a4.025,4.025,0,0,0,2.544-1.932l9.39-16.49a15.97,15.97,0,0,0,2.029-9.934c-.44-3.391-2.069-6.966-6.7-8.192C508.754,409.764,503.354,407.49,497.385,412.321Z" transform="translate(-435.965 -362.124)" opacity="0.1"/>
  <path id="Path_5618" data-name="Path 5618" d="M503.106,419.411s-5.865-3.732-11.464,0a8.1,8.1,0,0,0-3.385,5.036,11.186,11.186,0,0,0,2.2,9.5l12.666,16a3.765,3.765,0,0,0,3.754,1.368l.083-.019a3.775,3.775,0,0,0,2.387-1.812l8.809-15.469a14.981,14.981,0,0,0,1.9-9.318c-.413-3.181-1.941-6.535-6.284-7.684C513.77,417.011,508.7,414.878,503.106,419.411Z" transform="translate(-441.622 -368.253)" fill="#f0f4fc"/>
  <path id="Path_5619" data-name="Path 5619" d="M545.94,467.794a5.383,5.383,0,0,0-5.578,0,3.939,3.939,0,0,0-1.647,2.45,5.442,5.442,0,0,0,1.068,4.622s7.306,8.6,7.989,8.449l.04-.009c.492-.118,5.447-8.408,5.447-8.408a7.289,7.289,0,0,0,.926-4.534,4.073,4.073,0,0,0-3.057-3.739A5.3,5.3,0,0,0,545.94,467.794Z" transform="translate(-484.228 -410.236)" fill="#2e58a6" opacity="0.39"/>
  <path id="Path_5620" data-name="Path 5620" d="M277.434,449.785l.8,1.333,1.6,2.666.533,1.866-1.066,1.6,1.333,3.2.533,1.866-1.066,1.066,2.133,1.6" transform="translate(-233.546 -378.633)" opacity="0.1"/>
  <path id="Path_5621" data-name="Path 5621" d="M513.825,375.631v2.133l-1.333,3.466-.8,1.866,1.333,2.4.533,1.6,2.133.8.8,1.333v3.2" transform="translate(-430.746 -316.209)" opacity="0.1"/>
  <path id="Path_5622" data-name="Path 5622" d="M789.1,500.574l-2.133,1.333s-1.066.533-1.066.8v2.133" transform="translate(-692.426 -439.019)" opacity="0.1"/>
  <path id="Path_5623" data-name="Path 5623" d="M550.455,341.925l.533,2.666-.533,1.866" transform="translate(-463.377 -287.835)" opacity="0.1"/>
  <path id="Path_5624" data-name="Path 5624" d="M545.494,493.6l-1.6,2.4-1.866,1.6v1.066L543.094,500v1.6l-.8,1.6" transform="translate(-456.283 -415.52)" opacity="0.1"/>
  <path id="Path_5625" data-name="Path 5625" d="M391.264,207.1H388.6l-2.133,1.866L383,210.832l-1.6,1.333v.533l-3.466,1.866-1.066,1.866" transform="translate(-317.25 -174.338)" opacity="0.1"/>
  <path id="Path_5626" data-name="Path 5626" d="M434.043,347.211l-2.4,4.8-.8,1.866-1.866,2.4s-1.333,2.4-1.6,2.666a10.976,10.976,0,0,1-2.133.8l2.666,2.666" transform="translate(-388.822 -309.917)" opacity="0.1"/>
  <path id="Path_5627" data-name="Path 5627" d="M209.936,352.037,209.4,355.5l.533,2.133v3.732l-1.6,6.932,1.6,1.866,1.866,2.4" transform="translate(-175.379 -296.347)" opacity="0.1"/>
  <path id="Path_5628" data-name="Path 5628" d="M243.727,362.149l1.6.8,1.066,3.466,2.133-.533,1.066,1.866" transform="translate(-205.171 -304.86)" opacity="0.1"/>
  <path id="Path_5629" data-name="Path 5629" d="M429.112,568.471l4.266-.533,1.866-1.866h2.666" transform="translate(-361.23 -476.524)" opacity="0.1"/>
  <path id="Path_5630" data-name="Path 5630" d="M265.636,545.848l1.6,1.866,2.666.8,1.866.533.533,2.933" transform="translate(-223.614 -459.499)" opacity="0.1"/>
  <path id="Path_5631" data-name="Path 5631" d="M464.5,454.5l1.866-1.333.8-2.133,1.6-.267.8-2.666" transform="translate(-391.022 -377.214)" opacity="0.1"/>
  <path id="Path_5632" data-name="Path 5632" d="M133.559,65.079h4.464a5.314,5.314,0,0,1,5.314,5.314v9.778H128.245V70.393A5.314,5.314,0,0,1,133.559,65.079Z" transform="translate(-107.958 -54.784)" fill="#2f2e41"/>
  <path id="Path_5633" data-name="Path 5633" d="M378.614,706.621s-.475,3.006-1.266,3.48,4.113,1.582,4.113,1.582l.791-4.746Z" transform="translate(-348.43 -612.471)" fill="#fbbebe"/>
  <path id="Path_5634" data-name="Path 5634" d="M379.034,489.621l1.74,2.057-.791,7.119-.633,14.079s1.266,12.181,0,12.5-6.96.158-6.8-.633.316-1.424.633-2.531-.316-5.062-.316-5.062l.791-4.429-2.847-19.141Z" transform="translate(-342.997 -429.799)" fill="#2f2e41"/>
  <path id="Path_5635" data-name="Path 5635" d="M346.931,724.873s-1.74-.316-1.9,0-3.164,3.638-3.638,3.638-3.955,3.164-.316,3.322,9.65-2.689,9.65-2.689-.885-4.025-.838-3.832S346.931,725.664,346.931,724.873Z" transform="translate(-316.588 -627.717)" fill="#2f2e41"/>
  <path id="Path_5636" data-name="Path 5636" d="M374.808,666.152s4.429,4.9,4.588,5.379,2.531,0,2.531,0l.949-3.164-.791-1.107-4.429-3.638Z" transform="translate(-346.364 -576.273)" fill="#fbbebe"/>
  <path id="Path_5637" data-name="Path 5637" d="M402.6,684.779l-2.294,2.159s2.927,4.485,2.927,4.96.158,4.429,1.74,3.8,1.74-6.96,1.74-6.96-.158-6.486-1.107-6.961a7.925,7.925,0,0,0-3.029-.325S403.867,684.621,402.6,684.779Z" transform="translate(-367.83 -591.263)" fill="#2f2e41"/>
  <path id="Path_5638" data-name="Path 5638" d="M301.055,397.138s-.791,2.531-.949,3.164A13.968,13.968,0,0,0,299,405.364c0,2.689.316,5.853,0,6.17s-5.379,18.034-3.164,19.932,9.492,8.226,9.966,9.017.633,2.689,1.582,2.373,4.588-3.48,4.746-4.113-2.056-1.74-2.056-1.74-4.429-6.486-5.537-6.328-.949-.791-.791-1.266.475-.791,0-.791-.158-1.266,0-1.9,3.8-9.175,3.8-9.175l9.65-4.271s-.475-11.548-3.955-14.712l-.791-1.9S303.586,396.03,301.055,397.138Z" transform="translate(-279.413 -351.395)" fill="#2f2e41"/>
  <path id="Path_5639" data-name="Path 5639" d="M332.4,242.621s.791,5.537-1.107,5.853-3.48.158-3.48.316,4.746,5.062,4.746,5.062l4.429-.316,3.955-4.271s-3.638-.633-3.638-2.847-.158-3.8-.158-3.8Z" transform="translate(-306.799 -221.872)" fill="#fbbebe"/>
  <path id="Path_5640" data-name="Path 5640" d="M332.4,242.621s.791,5.537-1.107,5.853-3.48.158-3.48.316,4.746,5.062,4.746,5.062l4.429-.316,3.955-4.271s-3.638-.633-3.638-2.847-.158-3.8-.158-3.8Z" transform="translate(-306.799 -221.872)" opacity="0.1"/>
  <circle id="Ellipse_133" data-name="Ellipse 133" cx="4.904" cy="4.904" r="4.904" transform="translate(23.145 13.235)" fill="#fbbebe"/>
  <path id="Path_5641" data-name="Path 5641" d="M309.225,276.621s-6.169.791-6.644,2.847,3.164,14.87,3.638,15.977a3.5,3.5,0,0,1,.316,1.9,6.259,6.259,0,0,1,5.062-1.107,31.937,31.937,0,0,0,7.277.316s1.424-5.853,1.74-6.486a23.71,23.71,0,0,0,1.582-5.062c0-.949,1.9-4.9,1.9-4.9a4.305,4.305,0,0,0-4.429-2.689s-1.518-.679-1.945-.182-2.8,2.713-5.806,1.763S309.225,276.621,309.225,276.621Z" transform="translate(-285.527 -250.494)" fill="#2e58a6"/>
  <path id="Path_5642" data-name="Path 5642" d="M299.5,293.621h-1.74l-.949,12.5s3.48.949,3.955.316S299.5,293.621,299.5,293.621Z" transform="translate(-280.703 -264.805)" fill="#2e58a6"/>
  <path id="Path_5643" data-name="Path 5643" d="M419.808,293.621l3.006.791s2.215,8.068,2.373,8.226a4.024,4.024,0,0,1,.316,1.107s0,.158.316.633.791.158.475.791-.791.316-.475.949a6.655,6.655,0,0,1,.158,2.373s-.791-3.006-3.638-2.215l-1.9-8.542Z" transform="translate(-384.245 -264.805)" fill="#2e58a6"/>
  <path id="Path_5644" data-name="Path 5644" d="M151.783,86.022h-7.62l-1.725-3.965h10.639Z" transform="translate(-119.905 -69.076)" fill="#2f2e41"/>
  <ellipse id="Ellipse_134" data-name="Ellipse 134" cx="0.384" cy="1.023" rx="0.384" ry="1.023" transform="translate(22.32 17.988) rotate(-16.16)" fill="#ffb9b9"/>
  <ellipse id="Ellipse_135" data-name="Ellipse 135" cx="1.023" cy="0.384" rx="1.023" ry="0.384" transform="translate(32.545 19.74) rotate(-73.84)" fill="#ffb9b9"/>
  <circle id="Ellipse_136" data-name="Ellipse 136" cx="2.847" cy="2.847" r="2.847" transform="translate(29.424 34.182)" fill="#3f3d56"/>
  <circle id="Ellipse_137" data-name="Ellipse 137" cx="2.847" cy="2.847" r="2.847" transform="translate(29.424 34.182)" opacity="0.1"/>
  <circle id="Ellipse_138" data-name="Ellipse 138" cx="2.565" cy="2.565" r="2.565" transform="translate(29.706 34.464)" fill="#3f3d56"/>
  <path id="Path_5645" data-name="Path 5645" d="M389.315,334.653a1.233,1.233,0,0,0-1.277,0,.9.9,0,0,0-.377.561,1.246,1.246,0,0,0,.245,1.059l1.411,1.783a.419.419,0,0,0,.418.152l.009,0a.421.421,0,0,0,.266-.2l.981-1.724a1.669,1.669,0,0,0,.212-1.038.933.933,0,0,0-.7-.856A1.214,1.214,0,0,0,389.315,334.653Z" transform="translate(-357.157 -299.074)" opacity="0.1"/>
  <path id="Path_5646" data-name="Path 5646" d="M389.912,335.394a1.156,1.156,0,0,0-1.2,0,.846.846,0,0,0-.354.526,1.169,1.169,0,0,0,.23.993l1.324,1.672a.394.394,0,0,0,.392.143l.009,0a.4.4,0,0,0,.25-.189l.921-1.617a1.566,1.566,0,0,0,.2-.974.875.875,0,0,0-.657-.8A1.139,1.139,0,0,0,389.912,335.394Z" transform="translate(-357.748 -299.715)" fill="#f0f4fc"/>
  <path id="Path_5647" data-name="Path 5647" d="M394.384,340.452a.563.563,0,0,0-.583,0,.412.412,0,0,0-.172.256.569.569,0,0,0,.112.483,7.845,7.845,0,0,0,.835.883h0a10.03,10.03,0,0,0,.569-.879.762.762,0,0,0,.1-.474.426.426,0,0,0-.32-.391A.554.554,0,0,0,394.384,340.452Z" transform="translate(-362.195 -304.103)" opacity="0.1"/>
  <circle id="Ellipse_139" data-name="Ellipse 139" cx="2.847" cy="2.847" r="2.847" transform="translate(26.893 35.764)" fill="#3f3d56"/>
  <circle id="Ellipse_140" data-name="Ellipse 140" cx="2.847" cy="2.847" r="2.847" transform="translate(26.893 35.764)" opacity="0.1"/>
  <circle id="Ellipse_141" data-name="Ellipse 141" cx="2.565" cy="2.565" r="2.565" transform="translate(27.175 36.046)" fill="#3f3d56"/>
  <path id="Path_5648" data-name="Path 5648" d="M373.315,344.653a1.233,1.233,0,0,0-1.277,0,.9.9,0,0,0-.377.561,1.246,1.246,0,0,0,.245,1.059l1.411,1.783a.419.419,0,0,0,.418.152l.009,0a.421.421,0,0,0,.266-.2l.982-1.724a1.669,1.669,0,0,0,.212-1.038.933.933,0,0,0-.7-.856A1.215,1.215,0,0,0,373.315,344.653Z" transform="translate(-343.688 -307.492)" opacity="0.1"/>
  <path id="Path_5649" data-name="Path 5649" d="M373.912,345.394a1.156,1.156,0,0,0-1.2,0,.847.847,0,0,0-.354.526,1.169,1.169,0,0,0,.23.993l1.324,1.672a.393.393,0,0,0,.392.143l.009,0a.394.394,0,0,0,.249-.189l.921-1.617a1.566,1.566,0,0,0,.2-.974.875.875,0,0,0-.657-.8A1.139,1.139,0,0,0,373.912,345.394Z" transform="translate(-344.279 -308.133)" fill="#f0f4fc"/>
  <path id="Path_5650" data-name="Path 5650" d="M378.384,350.452a.563.563,0,0,0-.583,0,.412.412,0,0,0-.172.256.569.569,0,0,0,.112.483,7.84,7.84,0,0,0,.835.883h0a10.03,10.03,0,0,0,.569-.879.762.762,0,0,0,.1-.474.426.426,0,0,0-.32-.391.554.554,0,0,0-.542.122Z" transform="translate(-348.727 -312.522)" opacity="0.1"/>
  <path id="Path_5651" data-name="Path 5651" d="M332.028,297.909c-.069-.114-.312-.111-.312-.111-.221.328-.751-.02-.751-.02-.394.176-.634-.385-.634-.385a.545.545,0,0,1-.448-.636c-.264-.053-.19-.53-.19-.53s.146-.12.074-.208a.639.639,0,0,1-.045-.325,3.636,3.636,0,1,0,2.346,2.2C332.051,297.918,332.037,297.924,332.028,297.909Z" transform="translate(-304.459 -266.417)" fill="#3f3d56"/>
  <path id="Path_5652" data-name="Path 5652" d="M332.028,297.909c-.069-.114-.312-.111-.312-.111-.221.328-.751-.02-.751-.02-.394.176-.634-.385-.634-.385a.545.545,0,0,1-.448-.636c-.264-.053-.19-.53-.19-.53s.146-.12.074-.208a.639.639,0,0,1-.045-.325,3.636,3.636,0,1,0,2.346,2.2C332.051,297.918,332.037,297.924,332.028,297.909Z" transform="translate(-304.459 -266.417)" opacity="0.1"/>
  <path id="Path_5653" data-name="Path 5653" d="M332.488,298.436c-.066-.109-.3-.106-.3-.106-.21.312-.714-.019-.714-.019-.374.168-.6-.366-.6-.366a.518.518,0,0,1-.426-.6c-.251-.05-.18-.5-.18-.5s.139-.114.071-.2a.608.608,0,0,1-.042-.309,3.458,3.458,0,1,0,2.231,2.095C332.51,298.445,332.5,298.45,332.488,298.436Z" transform="translate(-305.135 -266.958)" fill="#3f3d56"/>
  <path id="Path_5654" data-name="Path 5654" d="M336.876,307.543a1.126,1.126,0,0,0-1.166,0,.824.824,0,0,0-.344.512,1.138,1.138,0,0,0,.223.967l1.289,1.628a.383.383,0,0,0,.382.139l.008,0a.384.384,0,0,0,.243-.184l.9-1.574a1.524,1.524,0,0,0,.194-.948.852.852,0,0,0-.639-.782A1.108,1.108,0,0,0,336.876,307.543Z" transform="translate(-313.137 -276.276)" fill="#f0f4fc"/>
  <path id="Path_5655" data-name="Path 5655" d="M336.876,307.543a1.126,1.126,0,0,0-1.166,0,.824.824,0,0,0-.344.512,1.138,1.138,0,0,0,.223.967l1.289,1.628a.383.383,0,0,0,.382.139l.008,0a.384.384,0,0,0,.243-.184l.9-1.574a1.524,1.524,0,0,0,.194-.948.852.852,0,0,0-.639-.782A1.108,1.108,0,0,0,336.876,307.543Z" transform="translate(-313.137 -276.276)" opacity="0.1"/>
  <path id="Path_5656" data-name="Path 5656" d="M337.422,308.22a1.056,1.056,0,0,0-1.094,0,.773.773,0,0,0-.323.481,1.067,1.067,0,0,0,.21.907l1.209,1.527a.359.359,0,0,0,.358.131l.008,0a.361.361,0,0,0,.228-.173l.841-1.476a1.43,1.43,0,0,0,.182-.889.8.8,0,0,0-.6-.733A1.04,1.04,0,0,0,337.422,308.22Z" transform="translate(-313.677 -276.861)" fill="#f0f4fc"/>
  <path id="Path_5657" data-name="Path 5657" d="M341.505,312.838a.514.514,0,0,0-.532,0,.376.376,0,0,0-.157.234.519.519,0,0,0,.1.441,7.158,7.158,0,0,0,.762.806h0a9.149,9.149,0,0,0,.52-.8.7.7,0,0,0,.088-.433.389.389,0,0,0-.292-.357A.506.506,0,0,0,341.505,312.838Z" transform="translate(-317.738 -280.868)" opacity="0.1"/>
  <path id="Path_5658" data-name="Path 5658" d="M139.49,210.3l.076.127.153.254.051.178-.1.153.127.305.051.178-.1.1.2.153" transform="translate(-117.424 -177.029)" opacity="0.1"/>
  <path id="Path_5659" data-name="Path 5659" d="M162.05,203.219v.2l-.127.331-.076.178.127.229.051.153.2.076.076.127v.305" transform="translate(-136.243 -171.071)" opacity="0.1"/>
  <path id="Path_5660" data-name="Path 5660" d="M364.711,315.966l-.2.127s-.1.051-.1.076v.2" transform="translate(-337.607 -283.615)" opacity="0.1"/>
  <path id="Path_5661" data-name="Path 5661" d="M165.545,200l.051.254-.051.178" transform="translate(-139.357 -168.363)" opacity="0.1"/>
  <path id="Path_5662" data-name="Path 5662" d="M165.072,214.478l-.153.229-.178.153v.1l.1.127v.153l-.076.153" transform="translate(-138.68 -180.549)" opacity="0.1"/>
  <path id="Path_5663" data-name="Path 5663" d="M150.353,187.135H150.1l-.2.178-.331.178-.153.127v.051l-.331.178-.1.178" transform="translate(-125.412 -157.532)" opacity="0.1"/>
  <path id="Path_5664" data-name="Path 5664" d="M330.826,301.33l-.229.458-.076.178-.178.229s-.127.229-.153.254a1.049,1.049,0,0,1-.2.076l.254.254" transform="translate(-308.633 -271.294)" opacity="0.1"/>
  <path id="Path_5665" data-name="Path 5665" d="M133.048,200.967,133,201.3l.051.2v.356l-.153.661.153.178.178.229" transform="translate(-111.872 -169.176)" opacity="0.1"/>
  <path id="Path_5666" data-name="Path 5666" d="M136.273,201.932l.153.076.1.331.2-.051.1.178" transform="translate(-114.716 -169.988)" opacity="0.1"/>
  <path id="Path_5667" data-name="Path 5667" d="M153.965,221.623l.407-.051.178-.178h.255" transform="translate(-129.609 -186.371)" opacity="0.1"/>
  <path id="Path_5668" data-name="Path 5668" d="M138.364,219.464l.153.178.254.076.178.051.051.28" transform="translate(-116.476 -184.746)" opacity="0.1"/>
  <path id="Path_5669" data-name="Path 5669" d="M157.343,210.746l.178-.127.076-.2.153-.025.076-.254" transform="translate(-132.453 -176.893)" opacity="0.1"/>
  <path id="Path_5670" data-name="Path 5670" d="M297.177,364.5l-.475,1.266s-.316,4.113,1.582,3.955,3.006-2.531,3.006-2.531-1.107-3.006-2.373-2.689S297.177,364.5,297.177,364.5Z" transform="translate(-280.598 -324.449)" fill="#2e58a6"/>
  <path id="Path_5671" data-name="Path 5671" d="M307.793,334.108s-.949,2.847.158,2.847a4.47,4.47,0,0,0,3.322-3.164c.158-1.424,3.006-6.8.949-6.328s-3.006,4.429-3.006,4.429Z" transform="translate(-289.632 -293.269)" fill="#fbbebe"/>
  <path id="Path_5672" data-name="Path 5672" d="M382.577,356.684l.988,1.652s.435,3.094-1.779,3.094-5.379-3.006-5.379-3.006a6.3,6.3,0,0,0-2.531-.475c-.949.158-6.17,0-3.955-2.689s6.011,0,6.011,0l3.955,1.9,2.057-1.107Z" transform="translate(-341.793 -315.687)" fill="#fbbebe"/>
  <path id="Path_5673" data-name="Path 5673" d="M435.89,355.437l-1.582,2.531s3.638.475,3.955,1.266-1.424-4.113-1.424-4.113Z" transform="translate(-396.451 -316.576)" fill="#2e58a6"/>
</svg>
